<?xml version="1.0" encoding="utf-8"?>
<!-- Generator: Adobe Illustrator 21.0.0, SVG Export Plug-In . SVG Version: 6.00 Build 0)  -->
<svg version="1.1" id="Layer_1" xmlns="http://www.w3.org/2000/svg" xmlns:xlink="http://www.w3.org/1999/xlink" x="0px" y="0px"
	 viewBox="0 0 82.5 47.2" style="enable-background:new 0 0 82.5 47.2;" xml:space="preserve">
<style type="text/css">
	.st0{fill:#233750;}
</style>
<g>
	<path class="st0" d="M14.5,33.4c0-0.5-0.1-1-0.2-1.4c-0.1-0.5-0.3-0.9-0.6-1.3c-0.2-0.4-0.5-0.8-0.9-1.2c-0.3-0.4-0.7-0.7-1.2-0.9
		c-0.4-0.3-0.9-0.5-1.4-0.6c-0.5-0.2-1.1-0.2-1.6-0.2c-2.7,0-5.4,0-8.1,0c-0.2,0-0.3,0.1-0.4,0.2C0,27.9,0,28.1,0,28.3
		c0,6.1,0,12.2,0,18.3c0,0.2,0.1,0.3,0.2,0.4c0.1,0.1,0.2,0.1,0.4,0.1c1.5-0.2,2.3-0.2,3.8-0.4c0.4,0,0.6-0.2,0.6-0.6
		c0-2.6,0-3.9,0-6.5c1.5-0.1,2.3-0.1,3.8-0.2c0.9-0.1,1.6-0.3,2.4-0.6c0.7-0.4,1.3-0.8,1.8-1.4c0.5-0.6,0.9-1.2,1.2-1.9
		C14.4,34.8,14.5,34.1,14.5,33.4z M9.4,34.2c-0.1,0.2-0.2,0.5-0.4,0.7c-0.2,0.2-0.4,0.4-0.6,0.5c-0.2,0.1-0.5,0.2-0.8,0.2
		c-1.1,0-1.6,0.1-2.7,0.1c0-1.6,0-2.5,0-4.1c1.1,0,1.6,0,2.7-0.1c0.3,0,0.6,0,0.8,0.2c0.2,0.1,0.4,0.3,0.6,0.5
		c0.2,0.2,0.3,0.4,0.4,0.6c0.1,0.2,0.1,0.5,0.1,0.7C9.6,33.7,9.5,34,9.4,34.2z"/>
	<path class="st0" d="M25,28.6c-0.1-0.3-0.2-0.4-0.3-0.7c-0.1-0.1-0.1-0.1-0.2-0.2c-0.1-0.1-0.2-0.1-0.4-0.1c-1.3,0-1.9,0-3.2,0
		c-0.1,0-0.1,0-0.2,0c-0.1,0-0.1,0.1-0.2,0.1c-0.1,0-0.1,0.1-0.2,0.2c0,0.1-0.1,0.1-0.1,0.2c-2.3,5.8-4.6,11.5-6.9,17.3
		c-0.1,0.2,0,0.3,0.1,0.4c0.1,0.1,0.2,0.1,0.4,0.1c1.4-0.1,2.1-0.2,3.6-0.3c0.3,0,0.5-0.2,0.6-0.5c0.2-0.4,0.5-1.4,0.7-1.8
		c0.2-0.4,0.3-0.8,0.5-1.2c2.2-0.1,4.5-0.2,6.7-0.3c0.2,0.4,0.3,0.8,0.5,1.1c0.2,0.4,0.5,1.3,0.6,1.7c0.1,0.1,0.1,0.3,0.2,0.3
		c0.1,0.1,0.3,0.1,0.5,0.1c1.4-0.1,2.1-0.1,3.5-0.1c0.2,0,0.4-0.1,0.5-0.2c0.1-0.1,0.1-0.2,0-0.4C29.4,39.1,27.2,33.9,25,28.6z
		 M20.5,38.3c0.2-0.4,0.3-0.8,0.5-1.3c0.2-0.5,0.3-0.9,0.5-1.4c0.2-0.5,0.3-0.9,0.5-1.4c0.2-0.5,0.3-0.9,0.5-1.3
		c0.8,2.1,1.2,3.1,1.9,5.2C22.8,38.2,22,38.3,20.5,38.3z"/>
	<path class="st0" d="M48.1,43.7c-1.1-2-2.2-4-3.3-6c0.5-0.2,0.9-0.5,1.3-0.8c0.4-0.3,0.7-0.7,1-1.1c0.3-0.4,0.5-0.8,0.6-1.3
		c0.2-0.5,0.2-0.9,0.2-1.5c0-0.8-0.2-1.5-0.5-2.1c-0.3-0.7-0.8-1.2-1.3-1.7c-0.6-0.5-1.2-0.9-2-1.2c-0.8-0.3-1.6-0.4-2.4-0.4
		c-2.7,0-5.5,0-8.2,0c-0.2,0-0.3,0-0.4,0.1c-0.1,0.1-0.1,0.2-0.1,0.4c0,5.4,0,10.9,0,16.3c0,0.2,0.1,0.3,0.2,0.4
		c0.1,0.1,0.2,0.1,0.4,0.1c1.5,0,2.3,0,3.8-0.1c0.4,0,0.6-0.2,0.6-0.5c0-2.2,0-3.4,0-5.6c0.8,0,1.2,0,2.1,0c1.2,2.3,1.9,3.4,3.1,5.7
		c0,0.1,0.1,0.2,0.2,0.3c0.1,0.1,0.2,0.1,0.4,0.1c1.7,0,2.6,0,4.4,0c0.2,0,0.3,0,0.4-0.1c0.1-0.1,0.1-0.2,0.1-0.3
		c0-0.1,0-0.2-0.1-0.4C48.2,43.9,48.1,43.8,48.1,43.7z M42.7,33.8c-0.1,0.2-0.2,0.4-0.4,0.6c-0.2,0.2-0.4,0.3-0.6,0.5
		C41.5,35,41.3,35,41,35.1c-0.1,0-0.3,0-0.4,0c-0.1,0-0.3,0-0.4,0c-0.9,0-1.4,0-2.3,0c0-1.6,0-2.5,0-4.1c0.7,0,1.1,0,1.8,0
		c0.2,0,0.5,0,0.7,0c0.2,0,0.4,0,0.7,0c0.3,0,0.5,0.1,0.8,0.2c0.2,0.1,0.4,0.3,0.6,0.5c0.2,0.2,0.3,0.4,0.4,0.6
		c0.1,0.2,0.1,0.4,0.1,0.7C42.8,33.3,42.8,33.5,42.7,33.8z"/>
	<path class="st0" d="M63.7,27.6c-0.1-0.1-0.3-0.1-0.4-0.1c-4.5,0-9.1,0-13.6,0c-0.2,0-0.3,0-0.4,0.1c-0.1,0.1-0.2,0.2-0.2,0.4
		c0,1.1,0,1.7,0,2.8c0,0.2,0.1,0.3,0.2,0.4c0.1,0.1,0.3,0.1,0.4,0.1c1.7,0,2.6,0,4.4,0c0,4.3,0,8.7,0,13c0,0.2,0.1,0.3,0.2,0.4
		c0.1,0.1,0.3,0.2,0.4,0.2c1.5,0,2.2,0.1,3.7,0.1c0.2,0,0.3,0,0.4-0.1c0.1-0.1,0.2-0.2,0.2-0.4c0-4.4,0-8.8,0-13.1
		c1.7,0,2.6,0,4.4,0c0.2,0,0.3-0.1,0.4-0.2c0.1-0.1,0.2-0.3,0.2-0.4c0-1.2,0-1.7,0-2.9C63.9,27.9,63.8,27.7,63.7,27.6z"/>
	<path class="st0" d="M82.5,27.7c0-0.1,0-0.1-0.1-0.1c0,0-0.1-0.1-0.1-0.1c-2,0-2.9,0-4.9,0c-0.1,0-0.1,0-0.1,0c0,0-0.1,0-0.1,0
		c0,0-0.1,0.1-0.1,0.1c0,0-0.1,0.1-0.1,0.2c-1,2.1-2,4.2-3,6.3c-1-2.1-2.1-4.2-3.1-6.3c-0.1-0.1-0.1-0.2-0.1-0.2
		c0,0-0.1-0.1-0.1-0.1c0,0-0.1,0-0.1,0c0,0-0.1,0-0.1,0c-2,0-2.9,0-4.9,0c-0.1,0-0.1,0-0.1,0.1c0,0-0.1,0.1-0.1,0.1
		c0,0.1,0.1,0.2,0.2,0.3c2,3.3,4.1,6.7,6,10c0,2.4,0,4.9,0,7.3c0,0.2,0,0.3,0.1,0.4c0.1,0.1,0.2,0.2,0.4,0.2
		c1.5,0.1,2.3,0.2,3.8,0.3c0.4,0,0.6-0.1,0.6-0.5c0-2.5,0-5,0-7.5c2-3.4,4-6.8,6-10.3C82.4,27.9,82.5,27.8,82.5,27.7z"/>
	<path class="st0" d="M6.1,26.1c0.2,0,0.4,0.1,0.6,0.1c0.3,0,0.6-0.1,0.8-0.3c0.2-0.2,0.5-0.3,0.7-0.6c0.2-0.2,0.4-0.5,0.6-0.8
		c0.2-0.3,0.3-0.6,0.5-0.9c0.2-0.5,0.5-1.1,0.8-1.9c0.3-0.8,0.7-1.6,1-2.5c0.4-0.9,0.7-1.8,1.1-2.8c0.4-0.9,0.7-1.8,1-2.7
		c0.3-0.8,0.6-1.6,0.9-2.2c0.2-0.6,0.4-1.1,0.5-1.3c0,0,0,0,0,0l0.6-1.5c0,0-0.6-1.1-5.2-0.2l-1,2.7c-0.3,0.9-0.7,1.9-1,3
		c-0.4,1.1-0.7,2.1-1.1,3.3c-0.4,1.1-0.7,2.2-1,3.2c-0.3,1-0.6,2-0.8,2.8c-0.2,0.9-0.3,1.6-0.4,2.1c0.2,0.1,0.5,0.1,0.7,0.2
		C5.7,26,5.9,26,6.1,26.1z"/>
	<path class="st0" d="M20.9,12.9c-0.1-0.2-0.2-0.3-0.4-0.5c-0.2-0.2-0.4-0.4-0.6-0.6c-0.2-0.2-0.4-0.4-0.6-0.6
		c-0.2-0.2-0.4-0.3-0.6-0.4c-0.2-0.1-0.3-0.2-0.4-0.2c-0.3,0-0.7,0.2-1.1,0.5c-0.4,0.3-0.9,0.8-1.2,1.3c-0.4,0.5-0.7,1.1-1,1.7
		c-0.3,0.6-0.4,1.2-0.4,1.8l0,0.4c-0.4,0.5-0.8,1-1.1,1.4c-0.4,0.4-0.6,0.7-0.8,0.9c-0.1,0.2-0.2,0.4-0.1,0.7
		c0.1,0.3,0.2,0.6,0.3,0.9c0.1,0.3,0.3,0.5,0.5,0.7c0.2,0.2,0.3,0.2,0.4,0.1c0.2-0.2,0.5-0.5,0.7-0.7c0.2-0.3,0.5-0.5,0.7-0.8
		c0.1,0.5,0.2,0.9,0.3,1.4c0.1,0.4,0.2,0.8,0.3,1.2c0.1,0.3,0.1,0.6,0.1,0.9c0,0.2,0,0.4-0.1,0.5c-0.1,0.1-0.3,0.2-0.6,0.1
		c-0.3,0-0.6-0.1-1-0.2c-0.3-0.1-0.7-0.2-1.1-0.4c-0.4-0.1-0.6-0.3-0.9-0.4c-0.2-0.1-0.4-0.1-0.5,0c-0.1,0.1-0.1,0.3-0.1,0.6
		c0,0.3,0.2,0.6,0.3,0.9c0.2,0.3,0.5,0.7,0.8,0.9c0.3,0.3,0.8,0.5,1.3,0.8c0.5,0.2,1.1,0.3,1.8,0.3c0.4,0,0.9-0.1,1.4-0.3
		c0.5-0.2,1-0.5,1.5-0.8c0.5-0.3,0.8-0.7,1.1-1.1c0.3-0.4,0.5-0.9,0.5-1.3c0-0.3-0.1-0.7-0.2-1.3c-0.1-0.6-0.3-1.2-0.4-1.9
		c-0.2-0.7-0.3-1.4-0.5-2.1c-0.2-0.7-0.3-1.3-0.4-1.9l2-2.2C21,13.1,21,13,20.9,12.9z"/>
	<path class="st0" d="M66.4,22.5c0,0.2,0.2,0.4,0.4,0.6c0.2,0.2,0.4,0.4,0.7,0.7c0.3,0.2,0.5,0.4,0.9,0.7c0.3,0.2,0.6,0.4,0.9,0.6
		c0.3,0.2,0.6,0.3,0.8,0.4c0.2,0.1,0.4,0.1,0.6,0.1c0.3,0,0.6-0.1,1-0.3c0.4-0.2,0.8-0.4,1.2-0.7c0.4-0.3,0.8-0.6,1.3-1
		c0.4-0.4,0.8-0.7,1.2-1.1c0.4-0.4,0.7-0.7,0.9-1c0.3-0.3,0.4-0.6,0.5-0.8c0.1-0.2,0.1-0.4,0-0.6c-0.1-0.3-0.2-0.5-0.3-0.8
		c-0.1-0.3-0.3-0.5-0.4-0.6c-0.1-0.2-0.2-0.2-0.3-0.2c-0.2,0.2-0.4,0.4-0.7,0.7c-0.3,0.3-0.6,0.6-1,0.9c-0.4,0.3-0.7,0.6-1.1,0.9
		c-0.4,0.3-0.8,0.6-1.2,0.8c-0.4,0.2-0.8,0.4-1.2,0.4c-0.4,0.1-0.7,0-1.1-0.1c0.1,0,0.2-0.1,0.3-0.2c0.1-0.1,0.3-0.2,0.4-0.4
		c0.1-0.2,0.3-0.4,0.4-0.6c0.1-0.2,0.2-0.4,0.3-0.6c0.2-0.5,0.4-1.1,0.8-1.8c0.3-0.7,0.6-1.5,1-2.3c0.4-0.8,0.7-1.7,1.1-2.6
		c0.4-0.9,0.7-1.7,1-2.5c0.3-0.8,0.6-1.4,0.8-2c0.2-0.6,0.4-1,0.5-1.3c0.1-0.2,0-0.3-0.1-0.6c-0.2-0.2-0.4-0.5-0.7-0.7
		c-0.3-0.2-0.6-0.5-1-0.7c-0.4-0.2-0.7-0.4-1-0.6c-0.3-0.2-0.6-0.3-0.9-0.3c-0.2,0-0.4,0-0.4,0.1c-0.1,0.3-0.3,0.8-0.6,1.4
		c-0.2,0.6-0.5,1.3-0.8,2.1c-0.3,0.8-0.6,1.7-0.9,2.6C69.3,12,69,13,68.6,14c-0.3-0.3-0.6-0.5-1-0.8c-0.4-0.3-0.7-0.5-1.1-0.7
		c-0.4-0.2-0.7-0.4-1.1-0.5c-0.4-0.1-0.7-0.2-1-0.2c-0.6,0-1.1,0.2-1.6,0.6c-0.5,0.4-1,1-1.5,1.6c-0.5,0.7-0.9,1.4-1.2,2.2
		c-0.4,0.8-0.6,1.6-0.8,2.4c-0.1,0.2-0.1,0.4-0.1,0.6c-0.2,0.2-0.4,0.4-0.6,0.6c-0.3,0.3-0.7,0.6-1,0.9c-0.4,0.3-0.7,0.6-1.1,0.8
		c-0.4,0.2-0.7,0.4-1.1,0.4c-0.4,0.1-0.7,0-1-0.1c0.1,0,0.2-0.1,0.3-0.2c0.1-0.1,0.3-0.3,0.4-0.4c0.1-0.2,0.3-0.4,0.4-0.6
		c0.1-0.2,0.2-0.4,0.3-0.6c0.2-0.4,0.4-0.9,0.7-1.5c0.2-0.6,0.5-1.1,0.7-1.7c0.2-0.6,0.5-1.1,0.7-1.6c0.2-0.5,0.4-0.9,0.5-1.3
		c0-0.1,0-0.3-0.2-0.5c-0.2-0.2-0.4-0.4-0.7-0.6c-0.3-0.2-0.6-0.4-1-0.6c-0.4-0.2-0.7-0.3-1.1-0.5c-0.3-0.1-0.6-0.2-0.9-0.2
		c-0.2,0-0.4,0-0.5,0.2c-0.3,0.5-0.7,1-1.1,1.6c-0.4,0.6-0.8,1.3-1.2,1.9c-0.4,0.7-0.8,1.4-1.2,2c-0.4,0.7-0.8,1.3-1.2,1.9
		c-0.4,0.6-0.7,1.1-1.1,1.5c-0.4,0.4-0.7,0.7-1,0.8c0.2-0.2,0.3-0.4,0.4-0.6c0.1-0.2,0.3-0.5,0.5-0.9c0.2-0.4,0.4-0.9,0.7-1.5
		c0.3-0.6,0.5-1.2,0.8-1.8c0.2-0.6,0.5-1.2,0.7-1.7c0.2-0.5,0.4-0.9,0.5-1.2c0.1-0.2,0.1-0.3-0.1-0.5c-0.2-0.2-0.4-0.4-0.6-0.6
		c-0.3-0.2-0.6-0.4-0.9-0.6c-0.4-0.2-0.7-0.3-1-0.4c-0.3-0.1-0.6-0.2-0.8-0.2c-0.2,0-0.4,0-0.4,0.2c-0.1,0.4-0.3,0.9-0.6,1.5
		c-0.2,0.6-0.5,1.3-0.7,2c-0.2,0.7-0.5,1.5-0.7,2.3c-0.2,0.5-0.3,1-0.5,1.5c-0.2,0.2-0.4,0.4-0.6,0.6c-0.3,0.3-0.7,0.6-1,0.9
		c-0.4,0.3-0.7,0.6-1.1,0.8c-0.4,0.2-0.7,0.4-1.1,0.4c-0.4,0.1-0.7,0-1-0.1c0.1,0,0.2-0.1,0.3-0.2c0.1-0.1,0.3-0.3,0.4-0.4
		c0.1-0.2,0.3-0.4,0.4-0.6c0.1-0.2,0.2-0.4,0.3-0.6c0.2-0.4,0.4-0.9,0.7-1.5c0.3-0.6,0.5-1.1,0.7-1.7c0.2-0.6,0.5-1.1,0.7-1.6
		c0.2-0.5,0.4-0.9,0.5-1.3c0-0.1,0-0.3-0.2-0.5c-0.2-0.2-0.4-0.4-0.7-0.6c-0.3-0.2-0.6-0.4-1-0.6c-0.4-0.2-0.7-0.3-1.1-0.5
		c-0.3-0.1-0.6-0.2-0.9-0.2c-0.3,0-0.4,0-0.5,0.2c-0.2,0.4-0.5,1.1-0.8,2.1c-0.3-0.3-0.6-0.6-1-0.8c-0.4-0.3-0.7-0.5-1.1-0.7
		c-0.4-0.2-0.8-0.4-1.1-0.5c-0.4-0.1-0.7-0.2-1-0.2c-0.6,0-1.1,0.2-1.6,0.6c-0.5,0.4-1,1-1.5,1.6c-0.5,0.7-0.9,1.4-1.2,2.2
		c-0.4,0.8-0.6,1.6-0.8,2.4c0,0.2-0.1,0.4-0.1,0.6c-0.2,0.2-0.4,0.4-0.7,0.6c-0.4,0.3-0.7,0.6-1.1,0.9c-0.4,0.3-0.8,0.6-1.2,0.8
		c-0.4,0.2-0.8,0.4-1.2,0.4c-0.4,0.1-0.7,0-1.1-0.1c0.1,0,0.2-0.1,0.3-0.2c0.1-0.1,0.3-0.2,0.4-0.4c0.1-0.2,0.3-0.4,0.4-0.6
		c0.1-0.2,0.2-0.4,0.3-0.6c0.2-0.5,0.4-1.1,0.8-1.8c0.3-0.7,0.6-1.5,1-2.3c0.3-0.8,0.7-1.7,1.1-2.6c0.4-0.9,0.7-1.7,1-2.5
		c0.3-0.8,0.6-1.4,0.8-2c0.2-0.6,0.4-1,0.5-1.3c0.1-0.2,0-0.3-0.1-0.6c-0.2-0.2-0.4-0.5-0.7-0.7c-0.3-0.2-0.6-0.5-1-0.7
		c-0.4-0.2-0.7-0.4-1-0.6C27.3,5.1,27,5,26.7,4.9c-0.2,0-0.4,0-0.4,0.1c-0.2,0.4-0.4,1.1-0.7,1.9c-0.3,0.8-0.7,1.8-1.1,2.9
		c-0.4,1.1-0.8,2.2-1.2,3.4c-0.4,1.2-0.8,2.4-1.2,3.5c-0.4,1.2-0.7,2.2-0.9,3.2c-0.3,1-0.4,1.8-0.5,2.4c0,0.2,0.1,0.4,0.2,0.6
		c0.2,0.2,0.4,0.4,0.6,0.7c0.3,0.2,0.6,0.5,0.9,0.7c0.3,0.2,0.6,0.4,1,0.6c0.3,0.2,0.6,0.3,0.9,0.4c0.3,0.1,0.5,0.2,0.6,0.2
		c0.3,0,0.6-0.1,1-0.3c0.4-0.2,0.8-0.4,1.2-0.7c0.4-0.3,0.8-0.6,1.3-1c0.3-0.2,0.5-0.4,0.7-0.7c0.2,0.3,0.5,0.6,0.9,0.9
		c0.5,0.3,0.9,0.6,1.4,0.9c0.5,0.3,1,0.5,1.4,0.6c0.5,0.2,0.8,0.2,1,0.2c0.2,0,0.4-0.1,0.7-0.3c0.2-0.2,0.5-0.5,0.7-0.8
		c0.2-0.3,0.5-0.7,0.7-1.2c0.2-0.4,0.5-0.9,0.7-1.4c0,0.1,0,0.2,0,0.3c0,0.1,0,0.2,0,0.3c0,0.2,0.2,0.5,0.6,0.9
		c0.4,0.3,0.8,0.7,1.3,1c0.5,0.3,1,0.6,1.5,0.8c0.5,0.2,0.8,0.3,1,0.3c0.3,0,0.6-0.1,1-0.3c0.4-0.2,0.8-0.4,1.1-0.7
		c0.3-0.2,0.6-0.5,0.9-0.8c0,0,0.1,0.1,0.1,0.1c0.3,0.2,0.6,0.5,0.9,0.8c0.4,0.3,0.7,0.5,1.1,0.7c0.4,0.2,0.7,0.3,0.9,0.3
		c0,0,0.1,0,0.1-0.1l0,0c0.2-0.4,0.5-0.9,0.9-1.4c0.4-0.5,0.7-1.1,1.2-1.7c0.4-0.6,0.9-1.2,1.3-1.9c0.5-0.6,0.9-1.3,1.4-1.9
		c-0.2,0.8-0.4,1.6-0.5,2.3c-0.1,0.7-0.2,1.3-0.2,1.7c0,0.2,0.2,0.5,0.6,0.9c0.4,0.3,0.8,0.7,1.3,1c0.5,0.3,1,0.6,1.5,0.8
		c0.5,0.2,0.8,0.3,1,0.3c0.3,0,0.6-0.1,1-0.3c0.4-0.2,0.8-0.4,1.1-0.7c0.4-0.3,0.8-0.6,1.2-1c0.2-0.2,0.4-0.4,0.6-0.6
		c0.2,0.3,0.5,0.5,0.8,0.8c0.5,0.3,0.9,0.6,1.4,0.9c0.5,0.3,1,0.5,1.4,0.7c0.5,0.2,0.8,0.2,1,0.2c0.2,0,0.4-0.1,0.6-0.2
		c0.2-0.2,0.4-0.4,0.6-0.7c0.2-0.3,0.4-0.6,0.6-0.9C66,23.3,66.2,22.9,66.4,22.5z M37.4,17.2c-0.2,0.5-0.5,1-0.7,1.5
		c-0.3,0.5-0.5,1-0.8,1.5c-0.3,0.5-0.6,0.9-0.8,1.3c-0.3,0.4-0.5,0.6-0.7,0.8c-0.2,0.2-0.4,0.2-0.6,0.1c-0.1-0.1-0.2-0.3-0.2-0.7
		c0-0.4,0.1-0.8,0.2-1.4c0.1-0.5,0.3-1.1,0.5-1.7c0.2-0.6,0.4-1.1,0.7-1.6c0.3-0.5,0.6-0.9,1-1.2c0.4-0.3,0.7-0.5,1.1-0.5
		c0.2,0,0.4,0.1,0.6,0.2c0.2,0.1,0.3,0.3,0.4,0.4C37.8,16.3,37.6,16.7,37.4,17.2z M65,21.6c-0.2,0.3-0.5,0.6-0.7,0.7
		c-0.2,0.2-0.4,0.2-0.5,0.1c-0.1-0.1-0.2-0.3-0.2-0.7c0-0.4,0.1-0.8,0.2-1.4c0.1-0.5,0.3-1.1,0.5-1.7c0.2-0.6,0.4-1.1,0.7-1.6
		c0.3-0.5,0.6-0.9,1-1.2c0.4-0.3,0.7-0.5,1.1-0.5c0.2,0,0.3,0.1,0.5,0.2c0.2,0.1,0.3,0.2,0.4,0.4l-0.2,0.6c-0.2,0.4-0.4,0.8-0.6,1.3
		c-0.2,0.5-0.5,0.9-0.7,1.4c-0.3,0.5-0.5,0.9-0.8,1.4C65.5,20.9,65.2,21.3,65,21.6z"/>
	<path class="st0" d="M21.6,6.4C25.3,4.2,27.4,1,27.4,1s-4.7,2.1-8.2,0.1c-3-1.7-5.8-1-5.8-1l-2.9,7.3C15.4,5.6,17.8,8.6,21.6,6.4z"
		/>
</g>
</svg>
