<?xml version="1.0" encoding="utf-8"?>
<!-- Generator: Adobe Illustrator 21.0.0, SVG Export Plug-In . SVG Version: 6.00 Build 0)  -->
<svg version="1.1" id="Layer_1" xmlns="http://www.w3.org/2000/svg" xmlns:xlink="http://www.w3.org/1999/xlink" x="0px" y="0px"
	 viewBox="0 0 815.2 465.1" style="enable-background:new 0 0 815.2 465.1;" xml:space="preserve">
<style type="text/css">
	.st0{fill:#EA503D;}
</style>
<title>Artboard 14</title>
<g>
	<path class="st0" d="M143.5,329.8c0-4.7-0.6-9.5-1.9-14c-1.3-4.6-3.1-9-5.5-13.2c-2.4-4.2-5.4-8.2-8.7-11.7
		c-3.4-3.6-7.3-6.7-11.5-9.3c-9.1-5.6-19.6-8.5-30.3-8.4l-80.1,0.3c-1.5-0.1-3.1,0.5-4.1,1.6c-1,1.2-1.5,2.7-1.4,4.2l0.4,181.1
		c-0.1,1.5,0.4,2.9,1.5,3.9c1.2,0.8,2.6,1.1,4,0.9c14.8-1.6,22.3-2.4,37.1-3.9c3.8-0.4,5.7-2.3,5.7-5.8c0-25.7-0.1-38.5-0.1-64.1
		c15.2-1,22.8-1.4,37.9-2.3c8.1-0.5,16-2.6,23.3-6.3c6.8-3.5,12.9-8.1,18-13.6c4.9-5.4,8.9-11.6,11.6-18.4
		C142.1,344,143.5,336.9,143.5,329.8z M93.1,338.4c-0.8,2.4-2.1,4.6-3.8,6.5c-1.7,2-3.8,3.6-6.1,4.7c-2.5,1.3-5.3,2-8.1,2.1
		c-10.6,0.4-15.9,0.7-26.5,1.1c0-16.3,0-24.5-0.1-40.8l26.6-0.6c2.8-0.1,5.5,0.4,8.1,1.6c2.3,1.1,4.4,2.6,6.1,4.5
		c1.7,1.8,3,4,3.8,6.3c0.9,2.3,1.3,4.7,1.3,7.1C94.4,333.4,94,336,93.1,338.4z"/>
	<path class="st0" d="M246.7,282.5l-3.1-6.5c-0.7-0.8-1.4-1.5-2.3-2.1c-1-0.8-2.3-1.2-3.6-1.2l-32.1,0.1c-0.7,0-1.4,0.2-2.1,0.4
		c-0.8,0.3-1.5,0.6-2.1,1.1c-0.6,0.4-1.2,0.9-1.7,1.5c-0.4,0.4-0.7,0.9-0.8,1.5c-23,57-45.6,114.1-67.8,171.4
		c-0.7,1.6-0.5,2.8,0.6,3.5c1.2,0.7,2.6,1,4,0.9c14.1-1.1,21.2-1.6,35.3-2.5c2.9,0,5.5-1.9,6.4-4.7c1.5-4,4.8-13.8,6.5-17.8
		c1.6-4,3.2-8,4.8-11.9c22.2-1.1,44.4-2.1,66.6-2.8c1.6,3.8,3.2,7.5,4.8,11.3c1.6,3.7,4.5,13,6.2,16.8c0.4,1.3,1.3,2.4,2.5,3.1
		c1.4,0.7,2.9,0.9,4.5,0.8c13.9-0.5,20.8-0.8,34.7-1.2c2.3-0.1,3.9-0.6,4.8-1.5c0.9-1,1.1-2.5,0.4-3.6
		C290.6,386.8,268.6,334.7,246.7,282.5z M202.5,378.6c1.6-4,3.2-8.2,4.8-12.7c1.6-4.5,3.2-9.1,4.8-13.7c1.6-4.6,3.2-9.2,4.8-13.7
		c1.6-4.5,3.2-8.7,4.8-12.6c7.7,20.7,11.5,31,19.3,51.4C225.6,377.8,217.9,378.1,202.5,378.6z"/>
	<path class="st0" d="M475.2,431.9c-10.8-19.9-21.6-39.7-32.4-59.6c4.5-2.2,8.6-5,12.5-8.2c3.7-3.1,7-6.7,9.8-10.7
		c2.7-3.9,4.9-8.2,6.4-12.8c1.5-4.6,2.3-9.5,2.3-14.4c0-7.3-1.7-14.5-4.9-21c-3.2-6.6-7.7-12.4-13.3-17.2c-5.8-5-12.5-8.9-19.7-11.6
		c-7.7-2.9-15.9-4.3-24.2-4.2l-81,0.2c-1.5-0.1-3,0.4-4.1,1.4c-0.9,1-1.4,2.4-1.4,3.7c0.1,53.7,0.2,107.4,0.3,161.1
		c-0.1,1.4,0.5,2.7,1.5,3.6c1.2,0.8,2.6,1.2,4,1.1c14.9-0.3,22.4-0.5,37.3-0.7c3.8,0,5.8-1.7,5.8-4.8c0-22.2-0.1-33.3-0.1-55.5
		c8.1-0.1,12.2-0.1,20.3-0.1c12.3,22.4,18.4,33.6,30.6,56.1c0.3,1.2,1.1,2.3,2.2,3c1.1,0.7,2.5,1.1,3.8,1.1
		c17.2,0.1,25.8,0.2,43,0.4c1.3,0.1,2.5-0.2,3.6-0.9c0.9-0.6,1.4-1.6,1.3-2.7c-0.1-1.3-0.6-2.6-1.4-3.7
		C476.5,434.2,475.7,433,475.2,431.9z M422.2,333.6L422.2,333.6c-0.9,2.2-2.1,4.3-3.6,6.1c-1.7,1.9-3.7,3.4-5.9,4.5
		c-2.5,1.3-5.1,2-7.9,2.3c-1.4,0.1-2.7,0.3-3.9,0.3c-1.2,0.1-2.5,0.1-4,0.1c-9.2,0-13.8,0-23.1,0.1c0-16.3-0.1-24.4-0.1-40.7
		l17.3-0.1c2.4,0,4.7,0,6.7,0.1c2,0.1,4.3,0.2,6.6,0.4c2.7,0.3,5.4,1.1,7.8,2.4c2.3,1.2,4.3,2.8,6,4.6c1.6,1.8,3,3.8,3.9,6.1
		c0.9,2.1,1.4,4.4,1.4,6.7C423.4,329,423,331.4,422.2,333.6z"/>
	<path class="st0" d="M629.5,273.2c-1.2-0.8-2.6-1.3-4-1.3l-134.8,0.3c-1.5,0-3,0.4-4.2,1.3c-1.1,0.8-1.7,2.2-1.7,3.6
		c0,11.1,0.1,16.6,0.1,27.6c-0.1,1.6,0.5,3.2,1.7,4.2c1.2,1,2.7,1.5,4.2,1.5c17.3,0,25.9,0.1,43.1,0.2c0.2,42.8,0.3,85.6,0.5,128.5
		c0,1.5,0.7,2.9,1.9,3.8c1.1,1,2.5,1.6,4,1.6c14.7,0.5,22.1,0.8,36.8,1.4c1.6,0.1,3.1-0.4,4.3-1.5c1-0.9,1.6-2.2,1.6-3.6
		c-0.2-43.3-0.3-86.6-0.5-129.9c17.3,0.2,25.9,0.2,43.2,0.4c1.7,0.1,3.3-0.6,4.4-1.9c1-1.1,1.5-2.5,1.5-4c0-11.4-0.1-17.2-0.1-28.6
		C631.5,275.5,630.7,274.1,629.5,273.2z"/>
	<path class="st0" d="M815.2,273.4c0-0.5-0.2-1-0.6-1.3c-0.4-0.4-0.9-0.6-1.4-0.6l-48.3,0.1c-0.4,0.1-0.9,0.3-1.3,0.3
		c-0.4,0-0.7,0.2-1.1,0.4c-0.4,0.3-0.7,0.6-1,1c-0.5,0.7-0.9,1.4-1.3,2.1c-9.9,20.7-19.9,41.4-30,62c-10.1-20.7-20.3-41.4-30.7-62
		c-0.6-0.9-1-1.6-1.4-2.1c-0.3-0.4-0.6-0.7-1-0.9c-0.3-0.2-0.6-0.3-1-0.4c-0.5-0.1-0.9-0.2-1.4-0.3l-48.2,0.1c-0.5,0-1,0.2-1.4,0.5
		c-0.3,0.3-0.5,0.8-0.5,1.2c0.1,1.1,0.7,2.2,1.6,2.9c20.2,32.9,40.1,66,59.6,99.2c0.1,24.1,0.2,48.3,0.3,72.4
		c-0.1,1.5,0.4,3,1.4,4.2c1,1.1,2.4,1.7,3.9,1.8c15,1.2,22.5,1.8,37.5,3.1c3.8,0.3,5.7-1.4,5.7-5.2c-0.1-24.6-0.2-49.2-0.2-73.9
		c20.1-33.7,39.8-67.6,59.1-101.8C814.5,275.8,815.1,274.6,815.2,273.4z"/>
	<path class="st0" d="M60,257.5c1.8,0.3,3.7,0.5,5.6,0.5c2.8-0.1,5.5-1,7.9-2.5c2.6-1.6,4.9-3.5,6.9-5.7c2.2-2.4,4.1-5,5.8-7.9
		c1.7-2.9,3.3-5.8,4.8-8.8c2.2-4.6,4.9-10.7,8.1-18.3c3.2-7.6,6.5-15.8,10.1-24.7c3.5-8.8,7.1-17.9,10.8-27.2
		c3.6-9.3,7.1-18.1,10.3-26.2c3.3-8.2,6.1-15.3,8.4-21.4c2.4-6.1,4.1-10.4,5.3-13c0-0.1,0-0.2,0-0.2l6.4-14.7c0,0-6.3-10.6-51.2-2
		l-9.8,26.4c-3.3,9.2-6.8,19.1-10.3,29.6c-3.5,10.5-7.1,21.3-10.7,32.3c-3.6,11-6.9,21.6-9.8,31.7s-5.5,19.4-7.5,27.9
		c-1.8,6.9-3.1,13.9-4,21c2.4,0.7,4.7,1.4,6.9,2C55.9,256.7,57.9,257.1,60,257.5z"/>
	<path class="st0" d="M207,127c-1.1-1.8-2.3-3.5-3.7-5.1c-1.8-2.1-3.7-4-5.7-5.9c-2.2-2-4.3-3.8-6.4-5.5c-1.8-1.4-3.7-2.8-5.7-4
		c-1-0.8-2.2-1.3-3.5-1.5c-3.1,0-6.8,1.7-11.1,5.2c-4.6,3.8-8.8,8.2-12.3,13c-4,5.3-7.4,11-10.1,17.1c-2.6,5.5-4.1,11.4-4.2,17.5v4
		c-4,5.2-7.8,9.9-11.3,14.1s-6.2,7.3-7.8,9.4c-1.5,1.8-2,4.2-1.4,7.4c0.5,3.1,1.5,6,2.9,8.8c1.2,2.5,2.8,4.7,4.7,6.7
		c1.7,1.7,3.1,2,4.1,0.8c2.2-2.2,4.5-4.7,6.9-7.3s4.8-5.3,7.3-8.2c1,4.6,2.1,9.1,3.3,13.4s2.1,8.2,2.8,11.6c0.7,2.8,1.1,5.7,1.4,8.6
		c0.2,2.3-0.1,3.8-0.7,4.6c-0.9,1.2-2.8,1.6-5.7,1.4c-3.2-0.3-6.4-1-9.5-1.9c-3.5-1-7-2.2-10.4-3.5c-3-1.1-5.8-2.5-8.6-4.1
		c-2.2-1.2-3.9-1.2-4.9,0s-1.4,3-1,5.6c0.6,3.1,1.7,6.1,3.4,8.8c2,3.6,4.7,6.7,7.8,9.4c3.8,3.2,8.1,5.7,12.7,7.4
		c5.7,2.2,11.9,3.2,18,3.1c4.7-0.1,9.3-1.1,13.6-2.9c5.1-2,9.9-4.6,14.4-7.8c4.4-3.1,8.2-6.9,11.3-11.3c2.9-3.8,4.5-8.5,4.5-13.3
		c-0.2-4.3-0.8-8.5-1.8-12.7c-1.2-5.6-2.6-11.8-4.2-18.5c-1.6-6.7-3.2-13.5-5-20.4c-1.7-6.9-3-13-3.9-18.4l20-21.9
		C207.9,129.6,207.8,128.5,207,127z"/>
	<path class="st0" d="M655.9,222.3c0.7,2.2,1.9,4.2,3.5,5.8c2.1,2.3,4.3,4.4,6.6,6.5c2.7,2.3,5.5,4.5,8.5,6.4
		c3.1,2.1,6.1,3.9,8.9,5.6c2.5,1.5,5.2,2.8,7.9,3.9c1.8,0.8,3.7,1.3,5.7,1.4c2.8,0,6.2-0.9,10.1-2.8c4.3-2.1,8.3-4.5,12.1-7.3
		c4.2-3,8.3-6.3,12.5-10c4.2-3.7,8-7.4,11.5-11c3.5-3.7,6.5-7,9-10.2c2-2.3,3.7-4.9,5.1-7.6c0.6-1.5,0.5-3.6-0.2-6.4
		c-0.8-2.8-1.8-5.5-3.1-8c-1.1-2.3-2.5-4.4-4.1-6.4c-1.4-1.6-2.4-2.1-3-1.5c-1.6,1.9-3.9,4.3-6.7,7.1c-2.8,2.8-6,5.8-9.5,9
		c-3.5,3.1-7.2,6.2-11.2,9.2c-3.8,2.9-7.9,5.4-12.1,7.6c-3.8,2-7.8,3.5-11.9,4.4c-3.5,0.8-7.2,0.5-10.5-0.9c1.3-0.2,2.4-0.7,3.3-1.6
		c1.6-1.3,3-2.7,4.2-4.3c1.5-1.8,2.9-3.8,4.2-5.8c1.2-1.9,2.3-3.9,3.1-6c1.9-4.8,4.4-10.8,7.4-18s6.3-15,9.8-23.2l10.7-25.3
		c3.6-8.6,7-16.7,10.1-24.3c3.1-7.5,5.9-14.2,8.3-19.9c2.4-5.7,4.2-9.9,5.2-12.4c0.7-1.5,0.3-3.4-1.3-5.7c-1.9-2.6-4.2-5-6.7-7.1
		c-3-2.6-6.2-5-9.5-7.1c-3.3-2.2-6.6-4.1-10.2-5.8c-2.7-1.4-5.5-2.4-8.5-3c-2.4-0.4-3.8-0.1-4.2,0.9c-1.3,3.3-3.2,8-5.5,14.2
		c-2.4,6.2-5,13.2-7.9,21.1c-2.9,7.9-6,16.5-9.4,25.8s-6.5,18.7-9.6,28.2c-3-2.7-6.2-5.3-9.7-7.9c-3.4-2.6-7.1-4.9-10.8-6.9
		c-3.5-1.9-7.2-3.5-10.9-4.8c-3.2-1.1-6.6-1.7-10-1.8c-5.5,0-10.9,2.1-16.3,6.3c-5.7,4.6-10.7,10-14.8,16.1
		c-4.7,7-8.8,14.4-12.1,22.1c-3.4,7.8-6.2,15.9-8.3,24.1c-0.5,2.1-1,4.2-1.4,6.3c-1.8,1.9-3.7,3.8-5.7,5.8
		c-3.2,3.1-6.6,6.2-10.2,9.2c-3.4,2.9-7.1,5.4-11,7.6c-3.4,2-7.1,3.4-10.9,4.3c-3.4,0.8-7,0.5-10.3-0.9c1.3-0.2,2.4-0.8,3.3-1.7
		c1.5-1.3,2.9-2.7,4.1-4.3c1.5-1.8,2.9-3.7,4.1-5.7c1.2-1.9,2.4-3.9,3.3-6c2.1-4.3,4.3-9.3,6.8-14.8c2.4-5.6,4.8-11.1,7.2-16.6
		c2.4-5.5,4.6-10.8,6.7-15.7c2.1-5,3.7-9.1,4.9-12.4c0.4-1.3-0.2-3-1.8-4.9c-2-2.3-4.4-4.2-6.9-5.9c-3.2-2.1-6.4-4-9.8-5.8
		c-3.4-1.8-6.8-3.3-10.4-4.5c-2.8-1.1-5.7-1.7-8.7-2c-2.5-0.1-4,0.4-4.8,1.6c-3.4,4.6-7,10-10.8,16.1c-3.8,6.1-7.6,12.5-11.6,19.2
		L499.7,174c-3.9,6.7-7.8,12.8-11.6,18.4c-3.3,5-7,9.8-10.9,14.4c-3.5,4-6.7,6.7-9.7,8c1.5-1.9,2.9-3.9,4.2-6
		c1.2-1.9,2.8-4.9,4.9-8.9c1.9-3.9,4.1-8.7,6.7-14.4c2.5-5.7,5-11.6,7.4-17.6c2.4-6,4.8-11.5,7-16.6c2.2-5.1,4-9,5.3-11.5
		c0.9-1.5,0.6-3.2-0.9-5.1c-1.8-2.2-3.9-4.2-6.3-5.8c-2.9-2.1-6-3.9-9.3-5.4c-3.2-1.6-6.5-3-9.9-4.1c-2.6-0.9-5.4-1.5-8.1-1.8
		c-2.3-0.1-3.7,0.4-4.1,1.6c-1.5,3.6-3.3,8.4-5.5,14.5c-2.2,6.1-4.5,12.8-7,20.2c-2.4,7.3-4.9,14.9-7.3,22.8
		c-1.6,5.1-3.1,10-4.5,14.8c-1.9,2-3.8,4-6,6.1c-3.2,3.1-6.6,6.2-10.2,9.2c-3.4,2.9-7.1,5.4-11,7.6c-3.4,2-7.1,3.4-11,4.3
		c-3.4,0.8-6.9,0.5-10.1-0.9c1.3-0.2,2.4-0.8,3.3-1.7c1.5-1.3,2.9-2.7,4.1-4.3c1.5-1.8,2.9-3.7,4.1-5.7c1.2-1.9,2.4-3.9,3.3-6
		c2.1-4.3,4.4-9.3,6.9-14.9c2.5-5.6,4.9-11.1,7.2-16.6l6.5-15.7c2.1-5,3.7-9.1,4.9-12.4c0.4-1.3-0.2-3-1.8-4.9
		c-2-2.3-4.4-4.2-6.9-5.9c-3.2-2.1-6.4-4-9.8-5.8c-3.4-1.8-6.8-3.3-10.4-4.6c-2.8-1.1-5.8-1.7-8.8-2c-2.5-0.1-4.1,0.4-4.7,1.6
		c-2.1,4.3-4.8,11.1-8.2,20.3c-3.1-2.9-6.4-5.6-9.8-8.1c-3.5-2.5-7.2-4.9-10.9-7c-3.6-2-7.3-3.7-11.2-5c-3.3-1.2-6.8-1.8-10.3-1.9
		c-5.5,0-10.9,2.1-16.3,6.3c-5.7,4.6-10.7,10.1-14.8,16.2c-4.7,7-8.8,14.4-12.1,22.1c-3.4,7.8-6.2,15.9-8.3,24.1
		c-0.5,1.9-0.9,3.8-1.3,5.7c-2.1,2-4.4,4.1-6.8,6.3c-3.6,3.1-7.3,6.2-11.3,9.2c-3.8,2.9-7.9,5.4-12.1,7.6c-3.8,2-7.8,3.4-11.9,4.3
		c-3.5,0.8-7.2,0.5-10.5-0.9c1.3-0.2,2.5-0.7,3.5-1.6c1.6-1.2,3-2.7,4.2-4.3c1.4-1.8,2.8-3.7,4.1-5.8c1.2-1.9,2.4-3.9,3.3-6
		c1.9-4.8,4.4-10.8,7.4-18c3-7.2,6.3-15,9.6-23.2c3.4-8.3,6.9-16.7,10.5-25.3c3.6-8.6,7-16.7,10.1-24.2c3.1-7.5,5.9-14.1,8.3-19.9
		s4.2-9.9,5.2-12.4c0.7-1.5,0.3-3.4-1.4-5.7c-1.9-2.6-4.2-5-6.7-7.1c-6-5.1-12.5-9.4-19.5-12.9c-2.6-1.4-5.5-2.4-8.4-3
		c-2.4-0.4-3.8-0.1-4.2,0.9c-1.6,4.2-4,10.4-7.2,18.6s-6.7,17.7-10.5,28.4c-3.8,10.7-7.8,22-12,33.9c-4.2,12-8,23.6-11.5,35
		c-3.5,11.4-6.6,22-9.1,31.8c-2.1,7.9-3.7,16-4.8,24.1c-0.1,1.6,0.6,3.5,2.1,5.7c1.8,2.4,3.9,4.7,6.3,6.7c2.8,2.4,5.7,4.7,8.7,6.9
		c3.1,2.2,6.2,4.2,9.5,6.1c2.8,1.6,5.7,3.1,8.6,4.3c1.9,0.9,3.9,1.5,5.9,1.7c2.8,0,6.2-0.9,10.1-2.8c4.3-2.1,8.3-4.5,12.1-7.3
		c4.2-3,8.3-6.3,12.6-10c2.6-2.2,5-4.4,7.2-6.7c2.3,3.5,5.2,6.5,8.6,8.8c4.5,3.4,9.3,6.4,14.4,9c4.6,2.4,9.4,4.5,14.3,6.3
		c4.5,1.6,7.7,2.4,9.5,2.4c2.1,0,4.2-1,6.5-3c2.6-2.4,4.8-5.1,6.8-8c2.5-3.7,4.8-7.5,6.9-11.5c2.3-4.3,4.5-8.8,6.5-13.4
		c-0.1,1.2-0.3,2.3-0.3,3.4c-0.1,1-0.1,2-0.1,2.9c0,2.4,1.8,5.3,5.5,8.7c3.9,3.6,8.2,6.9,12.7,9.8c4.6,3,9.4,5.6,14.4,7.9
		c4.8,2.1,8.2,3.2,10.3,3.2c3.4-0.2,6.8-1.1,9.8-2.8c4-2.1,7.8-4.5,11.4-7.3c3.1-2.4,6.2-5.1,9.2-7.9c0.3,0.3,0.5,0.5,0.8,0.8
		c2.8,2.7,5.9,5.2,9,7.4c3.4,2.5,7,4.7,10.7,6.7c3.6,1.9,6.6,2.9,8.8,2.9c0.3,0,0.6-0.3,0.9-0.9h0.2c2.2-3.9,5.1-8.5,8.6-13.9
		c3.5-5.4,7.3-11.1,11.6-17.1c4.2-6,8.7-12.2,13.3-18.5c4.7-6.4,9.3-12.5,13.9-18.4c-2.1,8-3.8,15.5-5.1,22.3
		c-1.2,5.5-1.9,11.1-2,16.7c0,2.4,1.8,5.3,5.5,8.7c3.9,3.6,8.2,6.9,12.7,9.8c4.6,2.9,9.4,5.5,14.4,7.8c4.8,2.1,8.2,3.2,10.3,3.2
		c3.4-0.2,6.8-1.1,9.8-2.8c4-2.1,7.8-4.5,11.4-7.3c4-3.1,7.8-6.5,11.5-10c2-1.9,3.9-3.8,5.7-5.8c2.2,3,4.9,5.6,7.9,7.7
		c4.5,3.3,9.3,6.3,14.3,9c4.6,2.5,9.4,4.6,14.3,6.4c4.5,1.6,7.7,2.4,9.5,2.4c2.1-0.1,4.1-1,5.7-2.5c2.3-1.9,4.3-4.1,6-6.5
		c2.2-3,4.2-6.1,6-9.4C652,230.1,654,226.3,655.9,222.3z M369.7,169.9c-2.3,4.8-4.7,9.7-7.3,14.9c-2.6,5.1-5.3,10.2-8.2,15.2
		c-2.9,5-5.6,9.3-8.2,13c-2.1,3-4.5,5.8-7.2,8.3c-2.2,1.9-4.1,2.2-5.6,1c-1.2-0.9-1.8-3.3-1.8-7.1c0.1-4.6,0.7-9.2,1.7-13.6
		c1.2-5.6,2.8-11.1,4.6-16.5c1.9-5.6,4.3-11,7.3-16.1c2.6-4.5,5.8-8.6,9.6-12.2c3.5-3.2,7.2-4.8,11.3-4.8c2,0,3.9,0.6,5.5,1.9
		c1.5,1.2,2.9,2.6,4.1,4.1C373.9,161.1,372,165.1,369.7,169.9z M642.2,213.9L642.2,213.9c-1.9,2.6-4.1,5-6.6,7c-2,1.5-3.7,1.7-5,0.7
		c-1.2-0.9-1.8-3.3-1.8-7.1c0.1-4.6,0.6-9.1,1.6-13.6c1.2-5.6,2.8-11.1,4.6-16.5c1.9-5.6,4.3-11,7.3-16.1c2.6-4.5,5.8-8.6,9.5-12.2
		c3.5-3.2,7.2-4.8,11.3-4.8c1.8,0,3.5,0.6,4.9,1.7c1.5,1.1,2.8,2.3,4,3.7l-2,6.3c-1.8,3.7-3.8,7.9-6,12.5s-4.6,9.3-7.1,14
		c-2.5,4.7-5,9.2-7.5,13.5C647.3,206.6,644.9,210.3,642.2,213.9z"/>
	<path class="st0" d="M213.1,63.3c37.3-22.1,57.5-53,57.5-53s-46,20.5-81.5,0.9c-29.7-16.4-56.9-10-56.9-10l-28.9,72.5
		C151.8,55.6,176.2,85.1,213.1,63.3z"/>
</g>
</svg>
