<?xml version="1.0" encoding="utf-8"?>
<!-- Generator: Adobe Illustrator 21.0.0, SVG Export Plug-In . SVG Version: 6.00 Build 0)  -->
<svg version="1.1" id="Layer_1" xmlns="http://www.w3.org/2000/svg" xmlns:xlink="http://www.w3.org/1999/xlink" x="0px" y="0px"
	 viewBox="0 0 699.7 332" style="enable-background:new 0 0 699.7 332;" xml:space="preserve">
<style type="text/css">
	.st0{fill:#FFFFFF;}
</style>
<g>
	<path class="st0" d="M327.7,191.6l0.8,0.9c0.2-0.3,0.4-0.7,0.6-1l-0.9-1C328.1,190.8,327.9,191.2,327.7,191.6z"/>
	<path class="st0" d="M325.3,197.4l0.5,0.5c0.2-0.4,0.3-0.7,0.5-1.1l-0.5-0.6C325.6,196.6,325.5,197,325.3,197.4z"/>
	<path class="st0" d="M326.5,194.4l0.7,0.7c0.2-0.3,0.4-0.7,0.6-1.1l-0.7-0.8C326.8,193.7,326.6,194,326.5,194.4z"/>
	<path class="st0" d="M329,188.8l1,1.1c0.2-0.3,0.4-0.7,0.6-1l-1.1-1.2C329.4,188.1,329.2,188.5,329,188.8z"/>
	<path class="st0" d="M426.3,180.1l3.2,3.6c0.6,0.1,1.2,0.3,1.8,0.4l-3.2-3.7C427.5,180.3,426.9,180.2,426.3,180.1z"/>
	<path class="st0" d="M333.4,181.1l1.5,1.7c0.2-0.3,0.5-0.6,0.7-0.9l-1.5-1.7C333.9,180.4,333.6,180.8,333.4,181.1z"/>
	<path class="st0" d="M330.4,186.2l1.2,1.3c0.2-0.3,0.4-0.6,0.6-1l-1.2-1.4C330.8,185.5,330.6,185.8,330.4,186.2z"/>
	<path class="st0" d="M331.9,183.6l1.3,1.5c0.2-0.3,0.4-0.6,0.7-0.9l-1.4-1.6C332.3,182.9,332.1,183.2,331.9,183.6z"/>
	<path class="st0" d="M126,95l3.3,3.8c0.6,0.1,1.2,0.2,1.7,0.3l-3.3-3.7C127.2,95.2,126.6,95.1,126,95z"/>
	<path class="st0" d="M494.6,166.5c-0.6-0.1-1.2-0.3-1.8-0.4l3.5,3.7c0.2-0.3,0.4-0.5,0.6-0.9L494.6,166.5z"/>
	<path class="st0" d="M435.1,181.5l3.4,3.8c0.6,0.1,1.1,0.1,1.7,0.2l-3.4-3.8C436.2,181.6,435.6,181.5,435.1,181.5z"/>
	<path class="st0" d="M323.4,203.7L323.4,203.7c0.2-0.3,0.3-0.7,0.5-1.1l-0.2-0.2C323.6,202.9,323.5,203.3,323.4,203.7z"/>
	<path class="st0" d="M430.8,180.9l3.3,3.7c0.6,0.1,1.2,0.2,1.8,0.3l-3.3-3.8C431.9,181.1,431.4,181,430.8,180.9z"/>
	<path class="st0" d="M130.5,95.9l3.2,3.6c0.6,0.1,1.2,0.3,1.8,0.4l-3.2-3.6C131.7,96.1,131.1,96,130.5,95.9z"/>
	<path class="st0" d="M318.3,223.3l2.5,2.8c0.3-0.3,0.6-0.6,0.8-0.8l-1.3-1.4C319.7,223.6,319,223.4,318.3,223.3z"/>
	<path class="st0" d="M421.6,179l3.1,3.5c0.6,0.2,1.3,0.4,2,0.5l-3.1-3.6C422.9,179.3,422.2,179.2,421.6,179z"/>
	<path class="st0" d="M121.8,94.5l3.4,3.9c0.5,0,1.1,0.1,1.6,0.2l-3.4-3.8C122.9,94.6,122.3,94.5,121.8,94.5z"/>
	<path class="st0" d="M345.9,165.4l2.5,2.8c0.3-0.2,0.6-0.5,0.8-0.7l-2.5-2.9C346.4,164.9,346.1,165.2,345.9,165.4z"/>
	<path class="st0" d="M347.8,163.4l2.6,2.9c0.3-0.2,0.6-0.5,0.9-0.7l-2.7-3C348.4,162.9,348.1,163.2,347.8,163.4z"/>
	<path class="st0" d="M352,159.6l2.9,3.2c0.3-0.2,0.6-0.5,0.9-0.7l-2.9-3.3C352.5,159.1,352.3,159.4,352,159.6z"/>
	<path class="st0" d="M358.5,154.3l3.2,3.7c0.3-0.2,0.6-0.4,1-0.6l-3.3-3.7C359.2,153.9,358.8,154.1,358.5,154.3z"/>
	<path class="st0" d="M343.9,167.5l2.3,2.6c0.3-0.3,0.5-0.5,0.8-0.8l-2.4-2.7C344.4,166.9,344.2,167.2,343.9,167.5z"/>
	<path class="st0" d="M335,178.6l1.6,1.8c0.2-0.3,0.5-0.6,0.7-0.9l-1.7-1.9C335.5,178,335.3,178.3,335,178.6z"/>
	<path class="st0" d="M349.9,161.5l2.7,3.1c0.3-0.2,0.6-0.5,0.9-0.7l-2.8-3.1C350.4,161,350.2,161.3,349.9,161.5z"/>
	<path class="st0" d="M356.3,156.1l3.1,3.5c0.3-0.2,0.6-0.4,0.9-0.6l-3.2-3.6C356.9,155.6,356.6,155.8,356.3,156.1z"/>
	<path class="st0" d="M342,169.6l2.2,2.5c0.3-0.3,0.5-0.5,0.8-0.8l-2.3-2.6C342.5,169,342.3,169.3,342,169.6z"/>
	<path class="st0" d="M354.1,157.8l3,3.4c0.3-0.2,0.6-0.4,0.9-0.7l-3-3.4C354.7,157.3,354.4,157.6,354.1,157.8z"/>
	<path class="st0" d="M363.2,151.1l3.5,3.9c0.3-0.2,0.7-0.4,1-0.6l-3.5-4C363.8,150.7,363.5,150.9,363.2,151.1z"/>
	<path class="st0" d="M336.7,176.3l1.8,2c0.2-0.3,0.5-0.6,0.7-0.9l-1.8-2.1C337.2,175.7,336.9,176,336.7,176.3z"/>
	<path class="st0" d="M411,175.4l2.5,2.8c0.8,0.4,1.7,0.8,2.6,1.2l-2.7-3.1C412.5,176.1,411.7,175.8,411,175.4z"/>
	<path class="st0" d="M416.6,177.5l2.9,3.3c0.7,0.2,1.4,0.5,2.1,0.7l-3-3.4C417.9,178,417.3,177.8,416.6,177.5z"/>
	<path class="st0" d="M360.8,152.7l3.3,3.8c0.3-0.2,0.6-0.4,1-0.6l-3.4-3.8C361.4,152.2,361.1,152.5,360.8,152.7z"/>
	<path class="st0" d="M338.4,174l1.9,2.2c0.2-0.3,0.5-0.6,0.8-0.8l-2-2.2C338.9,173.4,338.6,173.7,338.4,174z"/>
	<path class="st0" d="M340.2,171.7l2.1,2.3c0.3-0.3,0.5-0.5,0.8-0.8l-2.1-2.4C340.7,171.2,340.4,171.5,340.2,171.7z"/>
	<path class="st0" d="M110.8,183.8l0.8,0.9c-0.2-1.2-0.4-1.8-0.4-1.8C111.1,183.2,110.9,183.5,110.8,183.8z"/>
	<path class="st0" d="M324.3,200.4l0.3,0.3c0.1-0.4,0.3-0.7,0.5-1.2l-0.4-0.4C324.6,199.6,324.4,200,324.3,200.4z"/>
	<path class="st0" d="M502.5,120.4l-3.2-3.6c-0.6-0.2-1.3-0.3-1.9-0.4l3.3,3.7C501.3,120.1,501.9,120.2,502.5,120.4z"/>
	<path class="st0" d="M512.3,123l-3-3.4c-0.7-0.2-1.3-0.4-2-0.6l3,3.4C511,122.6,511.7,122.8,512.3,123z"/>
	<path class="st0" d="M493.1,115.7l3.4,3.8c0.5,0,1.1,0.1,1.6,0.2l-3.3-3.8C494.2,115.8,493.6,115.7,493.1,115.7z"/>
	<path class="st0" d="M487.4,117.7l1.5,1.7c0.4,0,0.9,0,1.5,0l-2.5-2.9C487.7,117,487.5,117.4,487.4,117.7z"/>
	<path class="st0" d="M506.8,121.4c0.2,0,0.4,0.1,0.5,0.1l-3.1-3.5c-0.7-0.2-1.3-0.4-2-0.6l3.1,3.5
		C505.8,121.1,506.3,121.3,506.8,121.4z"/>
	<path class="st0" d="M450.2,113.8c1.1,0.8,2.2,1.6,3.5,2.2l-2.5-2.8c-0.9-0.4-1.8-0.8-2.6-1.2L450.2,113.8z"/>
	<path class="st0" d="M477.1,67.9l0.6,0.7c0.2-0.2,0.5-0.5,0.8-0.8l-1.1-1.3C477.3,67,477.2,67.4,477.1,67.9z"/>
	<path class="st0" d="M482.5,103.6c0.2-0.4,0.3-0.8,0.5-1.2l-3.7-4.2c0.2-0.6,0.5-1.2,0.7-1.8l3.7,4.2c0.1-0.4,0.3-0.8,0.4-1.2
		l-3.8-4.2c0.2-0.6,0.4-1.3,0.6-1.9l3.8,4.3c0.1-0.4,0.3-0.8,0.4-1.3l-3.8-4.3c0.2-0.7,0.4-1.3,0.5-1.9l3.8,4.3
		c0.1-0.4,0.2-0.9,0.3-1.3l-3.8-4.3c0.2-0.7,0.3-1.4,0.5-2l3.8,4.3c0.1-0.5,0.2-0.9,0.3-1.4l-3.8-4.3c0.2-0.8,0.3-1.5,0.4-2.1
		l3.8,4.3c0.1-0.5,0.2-1,0.3-1.4l-3.5-4c-0.1,0-0.2,0-0.3,0c0.2-1.1,0.3-1.8,0.4-1.9c0.5-0.8,0.3-2-0.4-2c0,0-0.2,0-0.4,0
		c0-0.5-0.3-1-0.6-1c-0.6,0-20.7-0.4-21.9-0.1s-5,2.6-5.6,6.8c-0.4,2.3,0.8,4,2.1,5.1c1,1.2,2.4,2,3.5,2.3c-0.1,0-0.1,0-0.2,0
		l3.2,3.6c0.5,0.2,1.1,0.4,1.5,0.4c0.1,0,0.2,0,0.4,0l-3.5-3.9c0.6-0.1,1.2-0.3,1.8-0.5l3.6,4c0.3-0.1,0.6-0.2,0.8-0.4
		c-2.6,10.6-8.6,13.1-13.2,9.1c-1-1.2-2-2.7-2.8-4.6l4.2,4.8c-0.4-0.9-0.8-1.9-1.2-3l-4.1-4.6c-0.3-1.1-0.6-2.2-0.8-3.4l4,4.5
		c-0.1-0.7-0.2-1.4-0.3-2.1l-3.9-4.4c-0.1-0.9-0.2-1.8-0.2-2.8l3.9,4.4c0-0.6-0.1-1.2-0.1-1.8l-3.9-4.4c0-0.8,0-1.7,0-2.5l3.8,4.3
		c0-0.4,0-0.9,0-1.4c0-0.1,0-0.2,0-0.3l-3.8-4.3c0-0.8,0.1-1.6,0.2-2.4l3.8,4.3c0-0.5,0.1-1,0.2-1.5l-3.8-4.3
		c0.1-0.8,0.2-1.5,0.3-2.2l3.8,4.3c0.1-0.5,0.1-1,0.2-1.5l-3.8-4.3c0.1-0.7,0.2-1.4,0.4-2.1l3.8,4.3c0.1-0.5,0.2-0.9,0.3-1.4
		l-3.8-4.3c0.2-0.7,0.3-1.3,0.5-2l3.8,4.3c0.1-0.4,0.2-0.9,0.4-1.3l-3.8-4.3c0.2-0.6,0.4-1.3,0.6-1.9l3.8,4.2
		c0.1-0.4,0.3-0.8,0.4-1.2l-3.7-4.2c0.2-0.6,0.4-1.2,0.7-1.8l3.7,4.2c0.2-0.4,0.3-0.8,0.5-1.2l-3.7-4.2c0.3-0.6,0.5-1.1,0.8-1.7
		l3.7,4.2c0.2-0.4,0.4-0.7,0.5-1.1l-3.7-4.2c0.3-0.5,0.6-1.1,0.9-1.6l3.7,4.2c0.2-0.3,0.4-0.7,0.6-1l-3.7-4.2c0.3-0.5,0.6-1,0.9-1.5
		l3.7,4.2c0.2-0.3,0.4-0.6,0.7-1l-3.7-4.2c0.3-0.5,0.7-0.9,1-1.4l3.7,4.2c0.2-0.3,0.5-0.6,0.7-0.9l-3.7-4.1c0.4-0.5,0.8-0.9,1.1-1.3
		l3.7,4.1c0.3-0.3,0.5-0.6,0.8-0.8l-3.7-4.1c0.4-0.4,0.8-0.8,1.2-1.2l3.6,4.1c0.3-0.3,0.6-0.5,0.8-0.7l-3.6-4.1c0.5-0.4,1-0.8,1.3-1
		l3.6,4.1c0.4-0.3,0.7-0.5,0.9-0.6l-3.6-4.1c0.1-0.1,0.2-0.1,0.2-0.1s-0.3-0.5-1-1.2c0.7-0.5,1-0.7,1-0.7s-3-7.3-13.9-9
		c0,0-16.6,14.1-21.6,27.8s-6.8,12-8.3,13.3c0,0,0.4,0.4,1.1,0.9c0,0-0.1,0-0.1,0.1c0,0,1.2,1,2.6,2.3c1.3,1.3,2.4,2.8,2.7,3.9
		c0.5,1.9,3.9,14.7,12.7,23.1c4,4.2,9.3,7.6,16.2,8.4c0,0-0.1,0-0.1,0l3.4,3.8c0.2,0,0.4,0.1,0.7,0.1c0.3,0,0.7,0,1,0.1l-3.4-3.9
		c0.8,0,1.5,0,2.2-0.1l3.5,3.9c0.5,0,0.9-0.1,1.3-0.2l-3.5-4c0.6-0.1,1.2-0.3,1.8-0.5l3.6,4c0.4-0.1,0.8-0.3,1.1-0.4l-3.6-4
		c0.5-0.2,1.1-0.5,1.6-0.8l3.6,4.1c0.3-0.2,0.7-0.4,1-0.6l-3.6-4.1c0.5-0.3,0.9-0.7,1.3-1l3.6,4.1c0.3-0.2,0.6-0.5,0.9-0.7l-3.6-4.1
		c0.4-0.4,0.8-0.8,1.2-1.2l3.7,4.1c0.3-0.3,0.5-0.6,0.8-0.8l-3.7-4.1c0.4-0.4,0.7-0.9,1.1-1.4l3.7,4.2c0.2-0.3,0.5-0.6,0.7-0.9
		l-3.7-4.2c0.3-0.5,0.6-1,0.9-1.5l3.7,4.2c0.2-0.3,0.4-0.7,0.6-1l-3.7-4.2c0.3-0.5,0.6-1.1,0.8-1.6l3.7,4.2c0.2-0.4,0.4-0.7,0.5-1.1
		l-3.7-4.2c0.3-0.6,0.5-1.1,0.8-1.7L482.5,103.6z M467,86.1l2.2,2.5c0-0.5,0.1-1,0.1-1.6l-1.8-2c0.5-0.1,1.3-0.3,2-0.3
		c-0.1,2.8-0.4,5.3-0.8,7.5c0.1-0.4,0.1-0.9,0.2-1.4l-2.1-2.4C467,87.8,467,86.8,467,86.1z M464.8,90.5c0.5-0.3,1-0.7,1.4-1l2.5,2.9
		c-0.1,0.7-0.3,1.4-0.4,2.1L464.8,90.5z"/>
	<path class="st0" d="M454.4,114.3l3,3.4c0.7,0.2,1.3,0.4,2,0.6l-3.2-3.6C455.6,114.6,455,114.4,454.4,114.3z"/>
	<path class="st0" d="M515.3,123.8c0.7,0.2,1.4,0.4,2,0.6l-3-3.4c-0.7-0.2-1.3-0.4-2.1-0.6L515.3,123.8z"/>
	<path class="st0" d="M533.8,88.4c0,0-0.1,0.3-0.4,0.7l0.2,0.3C533.7,88.8,533.8,88.4,533.8,88.4z"/>
	<path class="st0" d="M480.4,65.7l-2.5-2.8c0,0.5-0.1,1-0.2,1.5l1.9,2.2C479.9,66.3,480.2,66,480.4,65.7z"/>
	<path class="st0" d="M578,67.5l1.9,2.2c0.4-0.1,0.7-0.2,1.2-0.4l-2.5-2.8C578.4,66.8,578.2,67.2,578,67.5z"/>
	<path class="st0" d="M533.3,91.6l-0.8-0.9c-0.2,0.3-0.4,0.7-0.6,1l1.1,1.3C533.2,92.5,533.2,92,533.3,91.6z"/>
	<path class="st0" d="M546.2,64.9c0.3,0.7,0.7,1.3,1.2,1.8l0.1,0.1c0.9,1,2.1,1.6,3.2,1.9l-3.2-3.6
		C547.1,65.2,546.7,65.1,546.2,64.9z"/>
	<path class="st0" d="M532.7,95.2l-1.7-1.9c-0.2,0.3-0.4,0.7-0.6,1l2.1,2.3C532.6,96.1,532.7,95.6,532.7,95.2z"/>
	<path class="st0" d="M520.5,125.4c0.8,0.2,1.5,0.5,2.1,0.7l-2.9-3.3c-0.6-0.2-1.4-0.5-2.2-0.8L520.5,125.4z"/>
	<path class="st0" d="M527,38.9c0-0.4,0-0.9-0.2-1.3l-0.5-0.5c-0.1,0-0.1-0.1-0.2-0.1c-0.3,0-0.8-0.1-1.5-0.1l2.2,2.5
		C527,39.2,527,39,527,38.9z"/>
	<path class="st0" d="M529,96.8l3,3.4c0.1-0.5,0.1-1,0.2-1.5l-2.6-3C529.4,96.2,529.2,96.5,529,96.8z"/>
	<path class="st0" d="M492,15.2l-3-3.4c-0.2,0.4-0.3,0.7-0.5,1.1l3.5,3.9C492,16.3,492,15.8,492,15.2z"/>
	<path class="st0" d="M72,330.7l1.1,1.3c0.1-0.5,0.2-0.9,0.3-1.4l-2.9-3.2C71,328.7,71.6,329.9,72,330.7z"/>
	<path class="st0" d="M67.7,252.1l-3.4-3.8c-0.6-0.1-1.1-0.1-1.7-0.2l3.3,3.7C66.5,251.9,67.1,252,67.7,252.1z"/>
	<path class="st0" d="M59.9,247.6c-0.6-0.1-1.3-0.3-1.9-0.5l3,3.3c0.7,0.2,1.4,0.5,2.1,0.7L59.9,247.6z"/>
	<path class="st0" d="M47,241.8c0.6,0.5,1.2,1,1.8,1.5l-0.8-0.9C47.6,242.2,47.3,242,47,241.8z"/>
	<path class="st0" d="M52.3,244.9l2.3,2.6c0.9,0.5,1.8,1,2.8,1.5l-2.6-3C54,245.6,53.1,245.3,52.3,244.9z"/>
	<path class="st0" d="M184.3,84.6c-0.6-1.8-1.6-2.7-2.7-3.1L184.3,84.6z"/>
	<path class="st0" d="M253.8,298.8l3.2,3.6c0.6,0.2,1.2,0.3,1.9,0.4l-3.3-3.7C255,299,254.4,298.9,253.8,298.8z"/>
	<path class="st0" d="M242.3,294c1.5,1.4,3,2.6,4.6,3.7l-1.8-2.1C244.1,295.2,243.2,294.6,242.3,294z"/>
	<path class="st0" d="M248.8,297.4l2.7,3c0.8,0.4,1.6,0.7,2.4,1l-2.9-3.3C250.3,297.9,249.6,297.7,248.8,297.4z"/>
	<path class="st0" d="M293.2,167.8l-0.8-0.9c-0.1,0-0.2-0.1-0.2-0.1C292.6,167.2,292.9,167.5,293.2,167.8z"/>
	<path class="st0" d="M342.5,93.8c0-0.1-0.1-0.2-0.3-0.3L342.5,93.8z"/>
	<path class="st0" d="M109.4,186.4l3,3.4c-0.1-0.7-0.2-1.4-0.3-2l-2.2-2.5C109.7,185.7,109.5,186.1,109.4,186.4z"/>
	<path class="st0" d="M15.6,169.5l3.1,3.5c0.7,0.2,1.3,0.4,2,0.5l-3.3-3.7C16.9,169.8,16.3,169.7,15.6,169.5z"/>
	<path class="st0" d="M490.7,6.3c0,0,0,0.2-0.1,0.5l0.4,0.4C490.8,6.6,490.7,6.3,490.7,6.3z"/>
	<path class="st0" d="M491.6,10.6l-1.6-1.8c-0.1,0.4-0.2,0.8-0.4,1.2l2.2,2.5C491.8,11.8,491.7,11.2,491.6,10.6z"/>
	<path class="st0" d="M10.4,167.6c1.4,1.7,3.1,2.9,4.7,3.8l-2.5-2.8C11.8,168.3,11.1,168,10.4,167.6z"/>
	<path class="st0" d="M298.9,171.7c0.6,0.3,1.2,0.5,1.8,0.7c0.1,0,0.3,0.1,0.4,0.1L298,169c-0.6-0.1-1.2-0.2-1.9-0.4L298.9,171.7z"
		/>
	<path class="st0" d="M487.4,82.4c-0.1,0-0.5,0-1.2,0l1.7,1.9C488.3,83.5,488,82.4,487.4,82.4z"/>
	<path class="st0" d="M668.5,207.9l2.9,3.2c0.3-0.2,0.6-0.5,0.9-0.7l-2.8-3.2C669.1,207.5,668.8,207.7,668.5,207.9z"/>
	<path class="st0" d="M536.3,156c0.9,0.4,1.7,0.8,2.6,1.2l-2.4-2.7c-0.9-0.4-1.8-0.9-2.6-1.3L536.3,156z"/>
	<path class="st0" d="M542.9,159.2c0.9,0.5,1.8,0.9,2.7,1.4l-2.3-2.6c-0.9-0.5-1.8-0.9-2.8-1.4L542.9,159.2z"/>
	<path class="st0" d="M549.8,162.7c0.9,0.5,1.9,1,2.8,1.5l-2.2-2.5c-0.9-0.5-1.9-1-2.8-1.5L549.8,162.7z"/>
	<path class="st0" d="M530,153.1c0.8,0.4,1.7,0.7,2.5,1.1l-2.5-2.9c-0.8-0.4-1.7-0.8-2.5-1.2L530,153.1z"/>
	<path class="st0" d="M556.9,166.5c1,0.5,1.9,1,2.9,1.6l-2.2-2.5c-1-0.5-1.9-1.1-2.9-1.6L556.9,166.5z"/>
	<path class="st0" d="M512.5,146.1c0.7,0.3,1.5,0.5,2.2,0.8l-2.8-3.2c-0.7-0.3-1.5-0.6-2.2-0.8L512.5,146.1z"/>
	<path class="st0" d="M501.9,142.5c0.7,0.2,1.4,0.4,2.1,0.6l-3-3.3c-0.7-0.2-1.4-0.5-2.1-0.7L501.9,142.5z"/>
	<path class="st0" d="M507.1,144.2c0.7,0.2,1.4,0.5,2.1,0.7l-2.9-3.3c-0.7-0.3-1.4-0.5-2.2-0.8L507.1,144.2z"/>
	<path class="st0" d="M496.4,169.7c-0.1,0.1-0.1,0.2-0.2,0.2c0.5,0.1,1.1,0.2,1.6,0.3l-1-1.2C496.7,169.2,496.6,169.5,496.4,169.7z"
		/>
	<path class="st0" d="M523.9,150.5c0.8,0.3,1.6,0.7,2.4,1l-2.6-3c-0.8-0.4-1.6-0.7-2.4-1.1L523.9,150.5z"/>
	<path class="st0" d="M518.1,148.1c0.8,0.3,1.5,0.6,2.3,0.9l-2.7-3.1c-0.8-0.3-1.5-0.6-2.3-0.9L518.1,148.1z"/>
	<path class="st0" d="M608.1,188.8l-3.4-3.9c-0.5,0-1.1-0.1-1.6-0.2l3.3,3.8C606.9,188.6,607.5,188.7,608.1,188.8z"/>
	<path class="st0" d="M593.4,89.2c0.3,0.1,0.6,0.2,0.9,0.4c0.1,0,0.2,0.1,0.3,0.1c-0.9-1.1-2-2.1-3.4-3L593.4,89.2z"/>
	<path class="st0" d="M605.3,105.1l-1.9-2.1c0.1,0.9,0.1,1.4,0.1,1.4S604.3,104.7,605.3,105.1z"/>
	<path class="st0" d="M620.5,77.4l2.4,2.7C622.5,79.1,621.8,78.1,620.5,77.4z"/>
	<path class="st0" d="M597.3,123.2l1.3,1.5c1,0.7,2,1.3,3,2C600.3,125.5,598.8,124.3,597.3,123.2z"/>
	<path class="st0" d="M623.3,104.2l-1.3-1.4C622.4,103.3,622.8,103.8,623.3,104.2z"/>
	<path class="st0" d="M593.8,182.8l3,3.4c0.7,0.2,1.4,0.4,2.1,0.6l-3.1-3.5C595.1,183.2,594.5,183,593.8,182.8z"/>
	<path class="st0" d="M585.1,181.4c0.8,0.4,1.7,0.8,2.5,1.2l-2.6-3c-0.8-0.3-1.6-0.7-2.4-1.1L585.1,181.4z"/>
	<path class="st0" d="M571.4,174.4c1,0.5,1.9,1,2.9,1.5l-2.3-2.6c-0.9-0.5-1.9-1-2.8-1.5L571.4,174.4z"/>
	<path class="st0" d="M578.4,178.1c0.9,0.5,1.8,0.9,2.7,1.4l-2.4-2.7c-0.9-0.4-1.8-0.9-2.7-1.3L578.4,178.1z"/>
	<path class="st0" d="M591.2,184.1c0.8,0.3,1.5,0.6,2.3,0.9l-2.9-3.2c-0.7-0.3-1.5-0.5-2.2-0.8L591.2,184.1z"/>
	<path class="st0" d="M496.8,141c0.7,0.2,1.3,0.4,2,0.6l-3-3.4c-0.7-0.2-1.3-0.4-2-0.6L496.8,141z"/>
	<path class="st0" d="M603.7,188.1l-3.2-3.7c-0.6-0.1-1.2-0.2-1.8-0.3l3.2,3.6C602.5,187.8,603.1,188,603.7,188.1z"/>
	<path class="st0" d="M691.8,183.4l0.9,1c0.2-0.3,0.4-0.7,0.6-1.1l-0.8-0.9C692.3,182.8,692.1,183.1,691.8,183.4z"/>
	<path class="st0" d="M688.5,188.1l1.3,1.4c0.2-0.3,0.4-0.7,0.6-1l-1.2-1.3C689,187.5,688.7,187.8,688.5,188.1z"/>
	<path class="st0" d="M690.2,185.8l1.1,1.2c0.2-0.3,0.4-0.7,0.6-1l-1-1.1C690.6,185.2,690.4,185.5,690.2,185.8z"/>
	<path class="st0" d="M686.7,190.4l1.4,1.6c0.2-0.3,0.4-0.6,0.6-1l-1.4-1.6C687.2,189.8,687,190.1,686.7,190.4z"/>
	<path class="st0" d="M683.1,194.7l1.8,2c0.2-0.3,0.5-0.6,0.7-0.9l-1.7-2C683.6,194.2,683.3,194.4,683.1,194.7z"/>
	<path class="st0" d="M653.3,216.2l3.5,4c0.4-0.2,0.7-0.3,1.1-0.5l-3.5-3.9C654.1,215.9,653.7,216,653.3,216.2z"/>
	<path class="st0" d="M699.7,169.4c-0.1,0.2-0.3,0.6-0.5,1.1l0,0C699.4,170.2,699.6,169.8,699.7,169.4L699.7,169.4z"/>
	<path class="st0" d="M697.9,173.3l0.2,0.2c0.2-0.4,0.3-0.8,0.5-1.1l-0.1-0.1C698.3,172.5,698.1,172.9,697.9,173.3z"/>
	<path class="st0" d="M695,178.5l0.5,0.6c0.2-0.4,0.4-0.7,0.5-1.1l-0.4-0.5C695.4,177.8,695.2,178.1,695,178.5z"/>
	<path class="st0" d="M693.4,181l0.7,0.8c0.2-0.4,0.4-0.7,0.6-1.1l-0.6-0.7C693.9,180.3,693.6,180.6,693.4,181z"/>
	<path class="st0" d="M696.5,175.9l0.3,0.4c0.2-0.4,0.3-0.7,0.5-1.1l-0.3-0.3C696.8,175.2,696.7,175.5,696.5,175.9z"/>
	<path class="st0" d="M684.9,192.6l1.6,1.8c0.2-0.3,0.4-0.6,0.7-1l-1.5-1.8C685.4,192,685.2,192.3,684.9,192.6z"/>
	<path class="st0" d="M666.2,209.5l3,3.4c0.3-0.2,0.6-0.5,0.9-0.7l-2.9-3.3C666.8,209.1,666.5,209.3,666.2,209.5z"/>
	<path class="st0" d="M663.8,211l3.1,3.5c0.3-0.2,0.6-0.4,0.9-0.6l-3.1-3.5C664.4,210.6,664.1,210.8,663.8,211z"/>
	<path class="st0" d="M661.3,212.5l3.2,3.6c0.3-0.2,0.6-0.4,1-0.6l-3.2-3.6C662,212.1,661.6,212.3,661.3,212.5z"/>
	<path class="st0" d="M656.1,215l3.4,3.9c0.3-0.2,0.7-0.4,1-0.5l-3.4-3.8C656.8,214.7,656.4,214.9,656.1,215z"/>
	<path class="st0" d="M658.7,213.8l3.3,3.8c0.3-0.2,0.7-0.4,1-0.6l-3.3-3.7C659.4,213.5,659.1,213.6,658.7,213.8z"/>
	<path class="st0" d="M675.1,202.7l2.5,2.8c0.3-0.3,0.5-0.5,0.8-0.8l-2.4-2.7C675.7,202.2,675.4,202.4,675.1,202.7z"/>
	<path class="st0" d="M677.2,200.8l2.3,2.6c0.3-0.3,0.5-0.6,0.8-0.8L678,200C677.8,200.3,677.5,200.5,677.2,200.8z"/>
	<path class="st0" d="M679.2,198.8l2.1,2.4c0.2-0.3,0.5-0.6,0.7-0.9L680,198C679.8,198.3,679.5,198.6,679.2,198.8z"/>
	<path class="st0" d="M673,204.5l2.6,2.9c0.3-0.3,0.5-0.5,0.8-0.8l-2.5-2.9C673.6,204,673.3,204.3,673,204.5z"/>
	<path class="st0" d="M681.2,196.8l2,2.2c0.2-0.3,0.5-0.6,0.7-0.9L682,196C681.7,196.3,681.4,196.5,681.2,196.8z"/>
	<path class="st0" d="M670.8,206.2l2.7,3.1c0.3-0.2,0.6-0.5,0.8-0.8l-2.7-3C671.4,205.8,671.1,206,670.8,206.2z"/>
	<path class="st0" d="M564.1,170.5c1,0.5,1.9,1.1,2.9,1.6l-2.2-2.5c-1-0.5-1.9-1-2.9-1.6L564.1,170.5z"/>
	<path class="st0" d="M593.9,216.8l2.8,3.2c0.7,0.3,1.5,0.6,2.2,0.8l-2.9-3.3C595.3,217.3,594.6,217.1,593.9,216.8z"/>
	<path class="st0" d="M599.1,218.5l3,3.4c0.7,0.2,1.3,0.4,2,0.6l-3.1-3.5C600.4,218.8,599.7,218.6,599.1,218.5z"/>
	<path class="st0" d="M604.5,219.8c-0.2,0-0.4-0.1-0.6-0.1l3.2,3.6c0.6,0.2,1.3,0.3,1.9,0.4l-3.2-3.6
		C605.3,219.9,604.9,219.9,604.5,219.8z"/>
	<path class="st0" d="M575,208.2l2.1,2.4c1,0.6,2,1.1,3,1.6l-2.2-2.5C576.9,209.2,575.9,208.7,575,208.2z"/>
	<path class="st0" d="M581.9,211.8l2.4,2.7c0.9,0.5,1.8,0.9,2.7,1.3l-2.5-2.8C583.6,212.6,582.8,212.2,581.9,211.8z"/>
	<path class="st0" d="M588.2,214.6l2.6,3c0.8,0.4,1.6,0.7,2.4,1.1l-2.7-3.1C589.7,215.3,589,214.9,588.2,214.6z"/>
	<path class="st0" d="M448.3,132.9l3.3,3.7c0.6,0.1,1.2,0.2,1.8,0.3l-3.3-3.7C449.6,133.1,449,133,448.3,132.9z"/>
	<path class="st0" d="M608.4,220.5l3.3,3.7c0.6,0.1,1.2,0.2,1.8,0.3l-3.3-3.7C609.5,220.7,609,220.6,608.4,220.5z"/>
	<path class="st0" d="M463,139.3l-2.9-3.3c-0.7-0.3-1.4-0.5-2.2-0.7l3,3.4C461.6,138.9,462.3,139.1,463,139.3z"/>
	<path class="st0" d="M612.7,221.1l3.4,3.8c0.6,0.1,1.1,0.2,1.7,0.2l-3.4-3.8C613.8,221.3,613.3,221.2,612.7,221.1z"/>
	<path class="st0" d="M453,133.9l3.2,3.6c0.6,0.1,1.3,0.3,1.9,0.4l-3.1-3.5C454.3,134.2,453.6,134,453,133.9z"/>
	<path class="st0" d="M534.1,183.2l2,2.2c1,0.6,2.1,1.2,3.1,1.8l-1.9-2.1C536.3,184.5,535.2,183.8,534.1,183.2z"/>
	<path class="st0" d="M567.4,203.8l1.9,2.1c1.1,0.7,2.1,1.3,3.2,1.9l-2-2.2C569.5,205.1,568.4,204.4,567.4,203.8z"/>
	<path class="st0" d="M519.8,175.5l2.5,2.8c0.9,0.4,1.7,0.8,2.6,1.2l-2.4-2.7C521.6,176.3,520.7,175.9,519.8,175.5z"/>
	<path class="st0" d="M507.7,170.3l2.9,3.2c0.7,0.2,1.5,0.5,2.2,0.8l-2.8-3.1C509.2,170.9,508.5,170.6,507.7,170.3z"/>
	<path class="st0" d="M497.9,167.3c0,0.1-0.1,0.2-0.1,0.2l2.8,3.2c0.6,0.1,1.3,0.3,1.9,0.5l-3.1-3.5
		C498.9,167.6,498.4,167.4,497.9,167.3z"/>
	<path class="st0" d="M502.4,168.6l3,3.4c0.7,0.2,1.3,0.4,2,0.6l-2.9-3.3C503.8,169,503.1,168.8,502.4,168.6z"/>
	<path class="st0" d="M513.5,172.6l2.7,3c0.8,0.3,1.6,0.6,2.4,1l-2.6-2.9C515.1,173.3,514.3,173,513.5,172.6z"/>
	<path class="st0" d="M526.6,179l2.2,2.5c0.9,0.5,1.9,1,2.8,1.5l-2.1-2.4C528.6,180,527.6,179.5,526.6,179z"/>
	<path class="st0" d="M559.2,198.8l1.7,1.9c1.1,0.7,2.3,1.4,3.4,2.1l-1.7-2C561.4,200.2,560.3,199.5,559.2,198.8z"/>
	<path class="st0" d="M550.7,193.4l1.7,1.9c1.1,0.7,2.3,1.4,3.4,2.2l-1.6-1.9C553,194.9,551.8,194.2,550.7,193.4z"/>
	<path class="st0" d="M444,132.3l3.4,3.8c0.6,0.1,1.1,0.1,1.7,0.2l-3.3-3.8C445.2,132.4,444.6,132.3,444,132.3z"/>
	<path class="st0" d="M542.2,188.1l1.8,2c1.1,0.7,2.2,1.3,3.3,2l-1.7-1.9C544.5,189.5,543.3,188.8,542.2,188.1z"/>
	<path class="st0" d="M569.3,133.9l2.3,2.6c0.2-0.4,0.4-0.7,0.5-1.1l-2-2.3C569.8,133.4,569.5,133.6,569.3,133.9z"/>
	<path class="st0" d="M573.1,132.3l-1.3-1.5c-0.2,0.3-0.4,0.6-0.7,0.9l1.7,1.9C572.9,133,573,132.6,573.1,132.3z"/>
	<path class="st0" d="M554.1,136.3c-0.7-0.2-1.4-0.5-2.2-0.8l2.8,3.1c0.8,0.3,1.5,0.6,2.3,0.9L554.1,136.3z"/>
	<path class="st0" d="M559,137.5c-0.5-0.1-1.2-0.2-1.8-0.3l3.1,3.5c0.7,0.2,1.4,0.4,2,0.5L559,137.5z"/>
	<path class="st0" d="M566.8,135.4l3.1,3.5c0.2-0.3,0.5-0.6,0.7-0.9l-2.7-3.1C567.6,135.1,567.2,135.3,566.8,135.4z"/>
	<path class="st0" d="M574.2,108.5c0.5,0.4,0.9,0.8,1.4,1.3l-0.6-0.7C574.8,108.9,574.5,108.7,574.2,108.5z"/>
	<path class="st0" d="M466.2,138.7c-0.8-0.4-1.7-0.9-2.6-1.3l2.7,3c0.8,0.3,1.6,0.7,2.4,1L466.2,138.7z"/>
	<path class="st0" d="M583.7,114.6c-1.1-0.7-2.2-1.3-3.3-2l1.6,1.9c1.1,0.7,2.3,1.5,3.4,2.2L583.7,114.6z"/>
	<path class="st0" d="M591.8,119.5c-1.1-0.7-2.2-1.4-3.3-2l1.9,2.1c1.1,0.6,2.1,1.3,3.2,1.9L591.8,119.5z"/>
	<path class="st0" d="M542.3,131.4c-0.9-0.4-1.8-0.8-2.6-1.2l2.4,2.7c0.8,0.4,1.7,0.8,2.6,1.3L542.3,131.4z"/>
	<path class="st0" d="M548.5,134.2c-0.8-0.3-1.6-0.7-2.4-1l2.6,2.9c0.8,0.4,1.6,0.7,2.5,1.1L548.5,134.2z"/>
	<path class="st0" d="M471.1,141.6l1.7,1.9c0.9,0.5,1.7,1,2.4,1.5C474,143.8,472.6,142.7,471.1,141.6z"/>
	<path class="st0" d="M537.7,130.6c0,0,0.1,0.1,0.4,0.2l-0.4-0.4C537.7,130.6,537.7,130.6,537.7,130.6z"/>
	<path class="st0" d="M473.4,167.9l-3.4-3.9c-0.5,0-1.1-0.1-1.6-0.1l3.4,3.9C472.3,167.9,472.8,167.9,473.4,167.9z"/>
	<path class="st0" d="M695.9,165.4c0,0-2.8,6.6-8.6,15.1c2.7-4.8,5.2-10.2,7.6-16.1c0,0-41.6,98.4-138,22.7
		c-23.1-18.1-43.7-26.2-58.3-28.6l-3.7-4.1c0.1-0.8,0.2-1.6,0.2-2.3l3.8,4.3c0-0.6,0-1.1,0-1.7l-3.9-4.4c-0.1-1-0.2-2-0.3-2.9l4,4.5
		c-0.1-0.8-0.3-1.5-0.5-2.2l-4-4.5c-0.5-1.7-1.1-3.2-1.7-4.5l4.3,4.8c-1.1-2.6-2.4-4.3-2.8-4.9l-3.3-3.7c-0.2,0-0.4-0.1-0.5-0.1
		c-0.1-0.2-0.2-0.3-0.2-0.3c57,15.1,88.1,47.5,117,48.8l3.5,3.9c0.5,0,1,0,1.5,0.1l-3.5-3.9c0.7,0,1.5,0,2.2-0.1l3.5,3.9
		c0.5,0,1,0,1.4-0.1l-3.5-4c0.7-0.1,1.4-0.1,2-0.2l3.5,4c0.4-0.1,0.9-0.1,1.3-0.2l-3.5-4c0.6-0.1,1.3-0.3,1.9-0.4l3.5,4
		c0.4-0.1,0.8-0.2,1.2-0.3l-3.5-4c0.6-0.2,1.2-0.3,1.8-0.5l3.6,4c0.4-0.1,0.8-0.3,1.2-0.4l-3.6-4c0.6-0.2,1.1-0.4,1.7-0.7l3.6,4
		c0.4-0.1,0.7-0.3,1.1-0.5l-3.6-4c0.5-0.2,1.1-0.5,1.6-0.8l3.6,4.1c0.3-0.2,0.7-0.3,1-0.5l-3.6-4.1c0.5-0.3,1-0.5,1.5-0.8
		c0,0,0,0,0,0l3.6,4.1c0.1,0,0.2-0.1,0.2-0.1c0.3-0.1,0.5-0.3,0.7-0.4l-3.6-4.1c0.5-0.3,1-0.6,1.5-0.9l3.6,4.1
		c0.3-0.2,0.7-0.4,1-0.6l-3.6-4.1c0.5-0.3,1-0.6,1.4-0.9l3.6,4.1c0.3-0.2,0.6-0.4,1-0.6l-3.6-4.1c0.5-0.3,1-0.6,1.4-0.9l3.6,4.1
		c0.3-0.2,0.6-0.4,0.9-0.6l-3.6-4.1c0.5-0.3,0.9-0.7,1.4-1l3.6,4.1c0.3-0.2,0.6-0.4,0.9-0.7l-3.6-4.1c0.5-0.4,0.9-0.7,1.4-1l3.6,4.1
		c0.3-0.2,0.6-0.5,0.9-0.7l-3.6-4.1c0.5-0.4,0.9-0.7,1.3-1l3.6,4.1c0.3-0.3,0.6-0.5,0.9-0.7l-3.6-4.1c0.5-0.4,0.8-0.7,0.8-0.7
		c-0.4-0.3-0.8-0.6-1.2-0.9c0.1-0.1,0.2-0.1,0.2-0.1c-0.4-0.3-0.7-0.5-1-0.7c-0.6-0.7-1-1.6-1.2-2.8l4,4.5c-0.2-0.6-0.3-1.3-0.3-2.1
		l-3.9-4.4c-0.1-0.8-0.1-1.7-0.1-2.7l3.9,4.4c0-0.5,0-1.1,0-1.7l-3.9-4.4c0-0.8,0-1.6,0-2.6l3.9,4.4c0-0.5,0-1.1,0-1.7l-3.9-4.4
		c0-0.9-0.1-1.8-0.1-2.7l3.9,4.4c0-0.6-0.1-1.3-0.2-1.9l-3.9-4.4c-0.1-1.1-0.3-2.2-0.6-3.2l4,4.5c-0.2-0.8-0.4-1.6-0.6-2.4l-4-4.6
		c-0.5-1.6-1.1-3.1-1.8-4.6l4.3,4.8c-0.7-1.5-1.4-2.9-2.3-4.3l-5-5.6c-1.8-2.5-3.8-4.8-6.1-7c-12.2-12.3-31.7-20.3-46.6-31.6
		c-0.2-0.1-0.4-0.3-0.5-0.4c-1.2-1.4-1.7-2.9-1.7-4.3l3.9,4.4c0-0.5,0-1,0.1-1.5l-3.8-4.3c0.2-0.6,0.5-1.1,0.8-1.6l3.7,4.2
		c0.2-0.3,0.4-0.6,0.7-0.9l-3.6-4.1c0.4-0.4,0.9-0.7,1.4-1l3.6,4.1c0.3-0.2,0.7-0.4,1.1-0.5l-3.6-4c0.6-0.2,1.3-0.3,2-0.3l3.5,3.9
		c0.5,0,1,0,1.5,0l-3.2-3.7c-0.5-0.2-1.1-0.3-1.6-0.3c1.4,0,3,0.3,4.7,1.1c1.4,0.7,2.7,1.5,3.7,2.5c4.5,4.9,4.6,11.4,4.6,11.4
		s0.4,0.2,1,0.4c0,0.4,0,0.6,0,0.6s4.2,1.7,6.1,2.4c0,0.1-0.1,0.1-0.1,0.1l3,3.4c1,0.4,1.7,0.6,1.8,0.6c0.1,0,0.1,0,0.2-0.1
		l-3.7-4.2c0.2-0.3,0.3-0.8,0.3-0.8c-0.2-0.7-0.5-1.4-0.6-2.1l4,4.6c-0.2-0.8-0.4-1.5-0.6-2.3l-4-4.5c-0.2-1-0.3-2-0.4-3l3.9,4.4
		c-0.1-0.6-0.1-1.2-0.1-1.8l-3.9-4.4c0-0.8,0-1.7,0.1-2.5l3.8,4.3c0-0.5,0.1-1,0.1-1.6l-3.8-4.3c0.1-0.7,0.2-1.4,0.3-2.2l3.8,4.3
		c0.1-0.5,0.2-0.9,0.3-1.4l-3.8-4.3c0.2-0.6,0.4-1.3,0.6-1.9l3.7,4.2c0.1-0.4,0.3-0.8,0.5-1.2l-3.7-4.2c0.3-0.6,0.5-1.1,0.8-1.6
		l3.7,4.2c0.2-0.3,0.4-0.7,0.6-1l-3.7-4.2c0.3-0.5,0.7-0.9,1.1-1.3l3.7,4.1c0.3-0.3,0.5-0.5,0.8-0.8l-3.6-4.1
		c0.5-0.3,0.9-0.6,1.5-0.9l3.6,4c0.3-0.2,0.7-0.3,1.1-0.5l-3.6-4c0.6-0.2,1.3-0.3,1.9-0.3l3.5,4c0.4,0,0.8-0.1,1.3,0
		c0.1,0,0.1,0,0.2,0l-3.4-3.8c-0.3,0-0.6-0.1-0.9-0.1c0.1,0,0.1,0,0.2,0c2.7,0.1,4.6,0.8,5.8,1.8c2,2.6,1.1,6.1,1.1,6.1
		c-8.3-1.2-9.9,11.5-4.9,15.4c0.9,1.1,2.1,1.9,3.7,2.1c0.3,0,0.7,0.1,1,0.1l3.4,3.9c0.5,0,1.1,0.1,1.6,0.1l-3.5-3.9
		c0.7,0,1.5-0.1,2.1-0.2l3.5,4c0.5-0.1,0.9-0.1,1.3-0.2l-3.5-4c0.6-0.2,1.2-0.4,1.7-0.6l3.6,4c0.4-0.2,0.7-0.3,1.1-0.5l-3.6-4.1
		c0.5-0.3,0.9-0.6,1.4-1l3.6,4.1c0.3-0.2,0.6-0.5,0.8-0.8l-3.7-4.1c0.4-0.4,0.7-0.9,1-1.4l3.7,4.2c0.2-0.3,0.4-0.7,0.5-1.1l-3.7-4.2
		c0.2-0.6,0.4-1.2,0.6-1.9l3.8,4.3c0.1-0.5,0.2-0.9,0.3-1.4l-3.8-4.3c0.1-0.8,0.1-1.6,0.1-2.5l3.9,4.4c0-0.6-0.1-1.2-0.1-1.8
		l-3.9-4.4c-0.2-1.1-0.4-2.2-0.7-3.3l4,4.5c-0.2-0.9-0.5-1.7-0.8-2.6l-4.1-4.7c-0.9-2.3-2.2-4.6-3.6-6.6l5,5.7
		c-1.6-2.6-3.6-4.9-5.8-6.7c-0.8-1-1.7-2-2.6-2.8c-3.2-3.4-7.1-5.6-11.3-5.7c-13.1-0.3-16.4,17.8-16.4,17.8
		c-13.4-12.8-27.2-11.7-33.5-1.9c-1.2,1.9-2,3.7-2.5,5.4l-3.4-3.8c0.3-0.7,0.2-1.7,0-2.5l3.9,4.5c-0.1-1-0.5-2-0.6-2.4l-0.3-0.4
		l-3.1-2c-0.2-1-0.5-1.7-0.5-1.7l-0.8-0.6c-0.1-0.3-0.2-0.4-0.2-0.4l-15.5-10.3c0,0-3.4-1-4.5,9.6s-5.3,48.8-5.3,48.8s0.4,0.2,1,0.5
		c0,0.3,0,0.5,0,0.5s21,11.1,27.5,10.9l3.5,3.9c0.4,0,0.8,0,1.1-0.1c0.1,0,0.2-0.1,0.3-0.1l-3.5-4c0.6-0.2,1.1-0.4,1.6-0.7l3.6,4.1
		c0.3-0.2,0.6-0.4,0.9-0.7l-3.6-4.1c3.1-2.8,4.2-7.9,4.2-8c-0.2-1.9-0.5-2.1-1.1-1.5c-0.7-5-2.9,6.3-9.2,3.8
		c-1.5-0.6-3.1-1.7-4.6-3.2c-1.9-2-3.7-4.5-5-7l4.4,5c-0.7-1.2-1.2-2.4-1.7-3.6l-4.1-4.6c-0.4-1.2-0.6-2.3-0.7-3.3l3.9,4.4
		c-0.1-0.6-0.1-1.2-0.1-1.8l-3.8-4.3c0-0.4,0.1-0.8,0.2-1.2c0.1-0.3,0.2-0.5,0.3-0.8l3.8,4.2c0.1-0.4,0.3-0.8,0.4-1.2l-3.7-4.2
		c0.2-0.6,0.5-1.1,0.7-1.7l3.7,4.2c0.2-0.4,0.4-0.7,0.5-1.1l-3.7-4.2c0.3-0.5,0.6-1.1,0.9-1.6l3.7,4.2c0.2-0.3,0.4-0.7,0.6-1
		l-3.7-4.2c0.3-0.5,0.7-1,1-1.5l3.7,4.2c0.2-0.3,0.4-0.7,0.7-0.9l-3.7-4.2c0.4-0.6,0.8-1,1-1.4l3.7,4.2c0.3-0.4,0.6-0.7,0.7-0.9
		l-0.4-0.4c-0.4-0.3-0.9-0.8-1.3-1.5l-4.3-4.9c-0.3-0.8-0.4-1.7-0.2-2.8l3.8,4.3c0-0.4,0.2-0.9,0.3-1.3l-3.8-4.2
		c0.2-0.6,0.5-1.1,0.8-1.6l3.7,4.2c0.2-0.3,0.4-0.7,0.6-1l-3.7-4.2c0.3-0.5,0.7-0.9,1.1-1.3l3.7,4.1c0.3-0.3,0.5-0.6,0.8-0.8
		l-3.7-4.1c0.4-0.4,0.8-0.8,1.2-1.1l3.6,4.1c0.3-0.3,0.6-0.5,0.9-0.7l-3.6-4.1c0.5-0.4,0.9-0.8,1.2-1.1l3.6,4.1c0,0,0,0,0.1-0.1
		c-1.1,5.7,1.5,10.5,6,14.8c8.6,9,25.7,15.8,34.3,24c2.5,2.6,4,5.3,4.2,8.3c0.5,9.1-11.3,6.5-11.3,6.5s12.6,24.4-8.7,18.5
		c-5.7-1.6-88.5-45.6-155.4-38.5c-101.5,10.8-113.4,78-113.4,78s1.5-5.8,6.5-14.1c-4.4,8.9-5.5,15.1-5.5,15.1s8-30.4,46.3-51.4
		c0,0-0.1,0-0.1,0.1l3.6,4.1c0.3-0.2,0.7-0.4,1-0.6l-3.6-4.1c0.5-0.3,1-0.5,1.5-0.8l3.6,4.1c0.3-0.2,0.7-0.4,1-0.5l-3.6-4.1
		c0.5-0.3,1-0.5,1.6-0.8l3.6,4.1c0.3-0.2,0.7-0.3,1-0.5l-3.6-4.1c0.5-0.3,1-0.5,1.6-0.8l3.6,4c0.4-0.2,0.7-0.3,1.1-0.5l-3.6-4
		c0.5-0.2,1.1-0.5,1.6-0.7l3.6,4c0.4-0.2,0.7-0.3,1.1-0.5l-3.6-4c0.5-0.2,1.1-0.5,1.6-0.7l3.6,4c0.4-0.2,0.7-0.3,1.1-0.4l-3.6-4
		c0.6-0.2,1.1-0.4,1.7-0.7l3.6,4c0.4-0.1,0.7-0.3,1.1-0.4l-3.6-4c0.6-0.2,1.1-0.4,1.7-0.6l3.6,4c0.4-0.1,0.8-0.3,1.1-0.4l-3.6-4
		c0.6-0.2,1.1-0.4,1.7-0.6l3.6,4c0.4-0.1,0.8-0.3,1.2-0.4l-3.6-4c0.6-0.2,1.2-0.4,1.7-0.6l3.6,4c0.4-0.1,0.8-0.2,1.2-0.4l-3.6-4
		c0.6-0.2,1.2-0.4,1.8-0.5l3.6,4c0.4-0.1,0.8-0.2,1.2-0.4l-3.5-4c0.6-0.2,1.2-0.4,1.8-0.5l3.5,4c0.4-0.1,0.8-0.2,1.2-0.3l-3.5-4
		c0.6-0.2,1.2-0.3,1.8-0.5l3.5,4c0.4-0.1,0.8-0.2,1.2-0.3l-3.5-4c0.6-0.1,1.1-0.3,1.7-0.4c0.1,0,0.1,0,0.2,0l3.5,4
		c0.1,0,0.1,0,0.2,0c0.4-0.1,0.7-0.2,1.1-0.3l-3.5-4c0.6-0.1,1.3-0.3,1.9-0.4l3.5,4c0.4-0.1,0.8-0.2,1.3-0.3l-3.5-4
		c0.6-0.1,1.3-0.3,1.9-0.4l3.5,4c0.4-0.1,0.9-0.2,1.3-0.2l-3.5-4c0.7-0.1,1.3-0.2,1.9-0.4l3.5,4c0.4-0.1,0.9-0.1,1.3-0.2l-3.5-4
		c0.7-0.1,1.3-0.2,2-0.3l3.5,4c0.4-0.1,0.9-0.1,1.3-0.2l-3.5-4c0.7-0.1,1.3-0.2,2-0.3l3.5,4c0.4-0.1,0.9-0.1,1.3-0.2l-3.5-4
		c0.7-0.1,1.4-0.2,2-0.2l3.5,4c0.5,0,0.9-0.1,1.4-0.1l-3.5-3.9c0.7-0.1,1.4-0.1,2.1-0.2l3.5,3.9c0.5,0,0.9-0.1,1.4-0.1l-3.5-3.9
		c0.7,0,1.4-0.1,2.2-0.1l3.5,3.9c0.5,0,1,0,1.4-0.1l-3.5-3.9c0.7,0,1.5,0,2.2,0l3.5,3.9c0.5,0,1,0,1.5,0l-3.5-3.9c0.8,0,1.5,0,2.3,0
		l3.5,3.9c0.5,0,1,0,1.5,0l-3.4-3.9c0.8,0,1.6,0.1,2.4,0.1l3.4,3.9c0.5,0,1.1,0.1,1.6,0.1l-3.4-3.9c-0.5-0.1-1.1-0.1-1.6-0.1
		c17.1,1.1,29.4,6.5,36.3,13.1c6.9,7.3,7.1,15.9-0.2,21.7l-1.9-2.2c-0.5-0.1-1.1-0.1-1.6-0.2l2.7,3c-8.1,5.7-24.1,8.3-49,3.5
		c0.2-0.1,0.5-0.2,0.8-0.3l-3.6-4c0.5-0.2,1.1-0.4,1.7-0.6l3.5,4c0.4-0.1,0.8-0.2,1.2-0.3l-3.5-4c0.6-0.1,1.2-0.3,1.9-0.4l3.5,4
		c0.4-0.1,0.8-0.2,1.3-0.3l-3.5-4c0.6-0.1,1.3-0.2,2-0.3l3.5,4c0.4-0.1,0.9-0.1,1.3-0.2l-3.5-4c0.6-0.1,1.3-0.2,2-0.3l3.5,4
		c0.4-0.1,0.9-0.1,1.4-0.2l-3.5-4c0.7-0.1,1.4-0.1,2.1-0.2l3.5,4c0.5,0,0.9-0.1,1.4-0.1l-3.5-4c0.7-0.1,1.4-0.1,2.1-0.1l3.5,3.9
		c0.5,0,0.9-0.1,1.4-0.1l-3.5-3.9c0.7,0,1.4-0.1,2.2-0.1l3.5,3.9c0.5,0,1,0,1.5,0l-3.5-3.9c0.7,0,1.5,0,2.2,0l3.5,3.9
		c0.5,0,1,0,1.5,0l-3.5-3.9c0.7,0,1.5,0,2.3,0l3.5,3.9c0.5,0,1,0,1.5,0l-3.5-3.9c0.8,0,1.5,0,2.3,0l3.5,3.9c0.5,0,1,0,1.5,0
		l-3.5-3.9c0.8,0,1.5,0.1,2.3,0.1l3.5,3.9c0.5,0,1,0,1.6,0.1l-3.5-3.9c0.8,0,1.6,0.1,2.4,0.1l3.4,3.9c0.5,0,1.1,0.1,1.6,0.1
		l-3.4-3.9c-0.2,0-0.3,0-0.5,0c3.7,0.2,7.7,0.6,11.8,1c2.5-2.5,3.6-4.6,3.2-7.8c-0.3,0-0.6-0.1-0.9-0.1c0-0.3,0-0.6-0.1-0.9
		c-12.3-1.4-76.2-2.8-76.2,12.3c0.1,0.9,0.7,1.8,1.8,2.7c3.5,4.3,18.1,9.5,34.7,10.9c-0.2,0-0.4,0-0.6,0l3.4,3.9
		c0.5,0.1,1.1,0.1,1.6,0.1l-3.4-3.9c0.8,0.1,1.6,0.1,2.4,0.2l3.4,3.9c0.5,0,1,0.1,1.6,0.1l-3.5-3.9c0.8,0,1.5,0,2.3,0.1l3.5,3.9
		c0.5,0,1,0,1.5,0l-3.5-3.9c0.7,0,1.5,0,2.2,0l3.5,3.9c0.5,0,1,0,1.5,0l-3.5-3.9c0.7,0,1.4-0.1,2.1-0.1l3.5,3.9
		c0.5,0,0.9-0.1,1.4-0.1l-3.5-4c0.7-0.1,1.4-0.1,2.1-0.2l3.5,4c0.5,0,0.9-0.1,1.4-0.2l-3.5-4c0.7-0.1,1.3-0.2,2-0.3l3.5,4
		c0.4-0.1,0.9-0.1,1.3-0.2l-3.5-4c0.6-0.1,1.3-0.2,1.9-0.4l3.5,4c0.4-0.1,0.8-0.2,1.3-0.3l-3.5-4c0.6-0.1,1.2-0.3,1.8-0.5l3.5,4
		c0.4-0.1,0.8-0.2,1.2-0.3l-3.5-4c0.6-0.2,1.2-0.4,1.8-0.5l3.6,4c0.4-0.1,0.8-0.2,1.2-0.4l-3.6-4c0.6-0.2,1.1-0.4,1.7-0.6l3.6,4
		c0.4-0.1,0.7-0.3,1.1-0.4l-3.6-4c0.5-0.2,1.1-0.5,1.6-0.7l3.6,4.1c0.4-0.2,0.7-0.3,1.1-0.5l-3.6-4.1c0.5-0.3,1-0.5,1.5-0.8l3.6,4.1
		c0.3-0.2,0.7-0.4,1-0.6l-3.6-4.1c0.5-0.3,1-0.6,1.5-0.9l3.6,4.1c0.3-0.2,0.6-0.4,1-0.6l-3.6-4.1c0.5-0.3,0.9-0.7,1.4-1l3.6,4.1
		c0.3-0.2,0.6-0.5,0.9-0.7l-3.6-4.1c0.4-0.4,0.9-0.7,1.3-1.1l3.6,4.1c0.3-0.2,0.6-0.5,0.8-0.8l-3.6-4.1c0.4-0.4,0.8-0.8,1.2-1.2
		l3.7,4.1c0.3-0.3,0.5-0.5,0.8-0.8l-3.7-4.1c0.4-0.4,0.7-0.9,1.1-1.3l3.7,4.2c0.2-0.3,0.5-0.6,0.7-0.9l-3.7-4.2
		c0.3-0.4,0.5-0.7,0.8-1.1c2.1-3.1,3.3-6.1,3.9-8.9l2.2,2.4c-0.7-0.1-1.3-0.2-2-0.2c-0.8,2.3-1.9,4.6-3.4,6.8
		c-0.1,0.1-0.1,0.2-0.2,0.2c0.5,0.1,1,0.2,1.5,0.3c-0.1,0.2-0.2,0.3-0.3,0.5c-0.1,0.1-0.1,0.2-0.2,0.2
		c41.6,6.9,75.3,46.2,113.2,53.9c4,0.8,8.1,1.4,12.1,1.8c-0.3,0-0.6,0-0.9-0.1l3.4,3.9c0.5,0.1,1.1,0.1,1.6,0.1l-3.4-3.9
		c0.8,0.1,1.6,0.1,2.4,0.1l3.5,3.9c0.5,0,1,0.1,1.6,0.1l-3.5-3.9c0.8,0,1.5,0,2.3,0l3.5,3.9c0.5,0,1,0,1.5,0l-3.5-3.9
		c0.7,0,1.5,0,2.2-0.1l3.5,3.9c0.5,0,1,0,1.4-0.1l-3.5-3.9c0.7,0,1.4-0.1,2.1-0.2l3.5,4c0.5,0,0.9-0.1,1.4-0.1l-3.5-4
		c0.7-0.1,1.4-0.2,2-0.2l3.5,4c0.4-0.1,0.9-0.1,1.3-0.2l-3.5-4c0.7-0.1,1.3-0.2,2-0.3l3.5,4c0.4-0.1,0.9-0.2,1.3-0.2l-3.5-4
		c0.6-0.1,1.3-0.3,1.9-0.4l3.5,4c0.4-0.1,0.8-0.2,1.2-0.3l-3.5-4c0.6-0.2,1.2-0.3,1.8-0.5l3.5,4c0.4-0.1,0.8-0.2,1.2-0.4l-3.6-4
		c0.6-0.2,1.2-0.4,1.7-0.6l3.6,4c0.4-0.1,0.8-0.3,1.1-0.4l-3.6-4c0.6-0.2,1.1-0.4,1.7-0.6l3.6,4c0.4-0.1,0.7-0.3,1.1-0.4l-3.6-4
		C668.8,209.6,684.4,194.1,695.9,165.4z M420,168.6l1,1.1c-0.3-0.1-0.5-0.2-0.8-0.3c-0.1,0-0.2-0.1-0.3-0.1
		C419.8,169.1,419.8,168.9,420,168.6z M425.6,170.8c-0.9-0.2-1.8-0.4-2.7-0.5l-2.1-2.4c0.4-0.3,0.9-0.6,1.5-0.9L425.6,170.8z"/>
	<path class="st0" d="M318.2,221.1c-0.4-0.3-0.8-0.6-1.2-0.8c0.1-0.1,0.2-0.2,0.2-0.2c-3.6-3.1-9-1.8-12.4-0.4
		c-0.1-0.3-0.2-0.6-0.3-0.9l-4.1-4.6c-0.5-1.5-1-2.9-1.5-4.2l4.2,4.7c-0.4-1.1-0.8-2.1-1.2-3.1l-4.2-4.8c-0.9-2.1-1.8-4-2.8-5.7
		l4.4,5c-1-1.9-2-3.7-3.1-5.2l-5.7-6.5c-1.2-1.5-2.4-2.9-3.7-4.1c-14.5-15-31.6-8.2-31.6-8.2c0.4,0.3,0.7,0.7,1,1c0,0,0,0,0,0
		c0.3,0.3,0.6,0.5,0.8,0.8c23.8,24.5,11.7,70.4-6.1,59.7c-0.4-0.2-0.8-0.5-1.2-0.8c-0.9-1.2-1.7-2.5-2.4-3.9l-4.4-5
		c-0.8-1.5-1.4-3.2-2.1-4.9l4.1,4.7c-0.3-0.9-0.7-1.8-1-2.8l-4.1-4.6c-0.4-1.2-0.7-2.4-1-3.7l4,4.5c-0.2-0.8-0.4-1.5-0.6-2.3l-4-4.5
		c-0.2-1.1-0.4-2.2-0.6-3.3l4,4.5c-0.1-0.7-0.3-1.4-0.4-2.1l-4-4.5c-0.2-1-0.3-2-0.4-3l3.9,4.5c-0.1-0.7-0.2-1.3-0.3-2l-3.9-4.4
		c-0.1-1-0.2-1.9-0.3-2.9l3.9,4.4c-0.1-0.6-0.1-1.3-0.2-1.9l-3.9-4.4c-0.1-0.9-0.1-1.8-0.2-2.8l3.9,4.4c0-0.6-0.1-1.2-0.1-1.8
		l-3.9-4.4c0-0.9-0.1-1.8-0.1-2.7l3.9,4.4c0-0.6,0-1.2-0.1-1.8l-3.9-4.4c0-0.9,0-1.7,0-2.6l3.9,4.4c0-0.6,0-1.1,0-1.7l-3.9-4.4
		c0-0.8,0-1.7,0-2.5l3.9,4.4c0-0.6,0-1.1,0-1.7l-3.9-4.4c0-0.8,0-1.6,0.1-2.5l3.8,4.3c0-0.5,0-1.1,0.1-1.6l-3.8-4.3
		c0-0.8,0.1-1.6,0.1-2.4l3.8,4.3c0-0.5,0.1-1.1,0.1-1.6l-3.8-4.3c0.1-0.8,0.1-1.6,0.2-2.4l3.8,4.3c0-0.5,0.1-1,0.1-1.6l-3.8-4.3
		c0.1-0.8,0.1-1.5,0.2-2.3l3.8,4.3c0-0.5,0.1-1,0.2-1.5l-3.8-4.3c0.1-0.8,0.2-1.5,0.3-2.3l3.8,4.3c0.1-0.5,0.1-1,0.2-1.5l-3.8-4.3
		c0.1-0.7,0.2-1.5,0.3-2.2l3.8,4.3c0.1-0.5,0.1-1,0.2-1.5l-3.8-4.3c0.1-0.7,0.2-1.5,0.3-2.2l3.8,4.3c0.1-0.5,0.2-1,0.2-1.4l-3.8-4.3
		c0.1-0.7,0.2-1.4,0.4-2.1l3.8,4.3c0.1-0.5,0.2-0.9,0.3-1.4l-3.8-4.3c0.1-0.7,0.3-1.4,0.4-2l3.8,4.3c0.1-0.5,0.2-0.9,0.3-1.3
		l-3.8-4.3c0.2-0.7,0.3-1.3,0.5-2l3.8,4.3c0.1-0.4,0.2-0.9,0.3-1.3l-3.8-4.3c0.2-0.6,0.4-1.3,0.5-1.9l3.8,4.3
		c0.1-0.4,0.3-0.8,0.4-1.3l-3.8-4.3c0.2-0.6,0.4-1.3,0.6-1.9l3.8,4.2c0.1-0.4,0.3-0.8,0.4-1.2l-3.8-4.2c0.2-0.6,0.4-1.2,0.6-1.8
		l3.7,4.2c0.1-0.4,0.3-0.8,0.4-1.2l-3.7-4.2c0.2-0.6,0.5-1.2,0.7-1.8l3.7,4.2c0.2-0.4,0.3-0.8,0.5-1.2l-3.7-4.2
		c0.2-0.6,0.5-1.2,0.7-1.7l3.7,4.2c0.2-0.4,0.3-0.8,0.5-1.1l-3.7-4.2c0.3-0.6,0.5-1.1,0.8-1.7l3.7,4.2c0.2-0.4,0.3-0.7,0.5-1.1
		l-3.7-4.2c0.3-0.6,0.5-1.1,0.8-1.6l3.7,4.2c0.2-0.4,0.4-0.7,0.5-1.1l-3.7-4.2c0.3-0.6,0.6-1.1,0.8-1.6l3.7,4.2
		c0.2-0.4,0.4-0.7,0.6-1.1l-3.7-4.2c0.3-0.5,0.6-1.1,0.9-1.6l3.7,4.2c0.2-0.4,0.4-0.7,0.6-1l-3.7-4.2c0.3-0.5,0.6-1,0.9-1.5l3.7,4.2
		c0.2-0.3,0.4-0.7,0.6-1l-3.7-4.2c0.3-0.5,0.7-1,0.9-1.5l3.7,4.2c0.2-0.3,0.4-0.7,0.6-1l-3.7-4.2c0.4-0.6,0.7-1,1-1.4l3.7,4.2
		c0.3-0.4,0.5-0.7,0.7-0.9l-3.7-4.2c0.1-0.1,0.1-0.1,0.1-0.1s-3-3.5-3.2-5.5c0-0.2,0-0.3-0.1-0.5l3.9,4.4c0,0,0,0,0,0
		c-0.1-0.5-0.1-1.1-0.2-1.9l-3.9-4.4c0-0.7,0-1.6,0-2.5l3.8,4.3c0-0.5,0-1,0.1-1.6l-3.8-4.3c0.1-0.7,0.1-1.5,0.2-2.3l3.8,4.3
		c0.1-0.5,0.1-1,0.2-1.5l-3.8-4.3c0.1-0.7,0.2-1.4,0.4-2.1l3.8,4.3c0.1-0.5,0.2-0.9,0.3-1.4l-3.8-4.3c0.1-0.7,0.3-1.4,0.4-2.1
		l3.8,4.3c0.1-0.4,0.2-0.9,0.3-1.4l-3.8-4.3c0.1-0.7,0.3-1.3,0.5-2L259,97c0.1-0.4,0.2-0.9,0.3-1.3l-3.8-4.3c0.2-0.6,0.3-1.3,0.5-2
		l3.8,4.3c0.1-0.4,0.2-0.9,0.3-1.3l-3.8-4.3c0.2-0.6,0.3-1.3,0.5-1.9l3.8,4.3c0.1-0.4,0.2-0.8,0.4-1.3l-3.8-4.3
		c0.2-0.6,0.4-1.3,0.6-1.9l3.8,4.3c0.1-0.4,0.2-0.8,0.4-1.3l-3.8-4.3c0.2-0.6,0.4-1.2,0.6-1.9l3.8,4.2c0.1-0.4,0.3-0.8,0.4-1.2
		l-3.8-4.2c0.2-0.6,0.4-1.2,0.6-1.8l3.8,4.2c0.1-0.4,0.3-0.8,0.4-1.2l-3.7-4.2c0.2-0.6,0.4-1.2,0.7-1.8l3.7,4.2
		c0.1-0.4,0.3-0.8,0.4-1.2l-3.7-4.2c0.2-0.6,0.4-1.2,0.7-1.8l3.7,4.2c0.2-0.4,0.3-0.8,0.5-1.2l-3.7-4.2c0.2-0.6,0.5-1.2,0.7-1.8
		l3.7,4.2c0.2-0.4,0.3-0.8,0.5-1.2l-3.7-4.2c0.2-0.6,0.5-1.2,0.7-1.7l3.7,4.2c0.2-0.4,0.3-0.8,0.5-1.2l-3.7-4.2
		c0.2-0.6,0.5-1.1,0.7-1.7l3.7,4.2c0.2-0.4,0.3-0.8,0.5-1.1l-3.7-4.2c0.2-0.6,0.5-1.1,0.7-1.7l3.7,4.2c0.2-0.4,0.3-0.8,0.5-1.1
		l-3.7-4.2c0.3-0.6,0.5-1.1,0.8-1.7l3.7,4.2c0.2-0.4,0.3-0.7,0.5-1.1l-3.7-4.2c0.3-0.6,0.5-1.1,0.8-1.7l3.7,4.2
		c0.2-0.4,0.3-0.7,0.5-1.1l-3.7-4.2c0.3-0.6,0.5-1.1,0.8-1.7l3.7,4.2c0.2-0.4,0.3-0.7,0.5-1.1l-3.7-4.2c0.3-0.6,0.5-1.1,0.8-1.6
		l3.7,4.2c0.2-0.4,0.4-0.7,0.5-1.1l-3.7-4.2c0.3-0.6,0.5-1.1,0.8-1.6l3.7,4.2c0.2-0.4,0.4-0.7,0.5-1.1l-3.7-4.2
		c0.3-0.6,0.5-1.1,0.8-1.6l3.7,4.2c0.2-0.4,0.4-0.7,0.5-1.1l-3.7-4.2c0.3-0.6,0.6-1.1,0.8-1.6l3.7,4.2c0.2-0.4,0.4-0.7,0.6-1.1
		l-3.7-4.2c0.3-0.6,0.6-1.1,0.8-1.6l3.7,4.2c0.2-0.4,0.4-0.7,0.6-1.1l-3.7-4.2c0.3-0.6,0.6-1.1,0.9-1.6l3.7,4.2
		c0.2-0.4,0.4-0.7,0.6-1l-3.7-4.2c0.3-0.5,0.5-0.8,0.7-1.1c0.1-0.1,0.2-0.3,0.3-0.4l3.7,4.2c0.2-0.3,0.4-0.7,0.5-1.1l-3.8-4.3
		c0.2-0.7,0.2-1.6,0.1-2.5l3.9,4.4c-0.2-1.8-1.3-3.8-4-4.9c-0.3-1-0.9-2.1-1.9-2.9c-2.1-2.7-7.4-4.3-19.4-0.8
		c-12.6,3.8-28.6,11.8-34,15.3c-11.2,7.4-23.5,23-28.4,29.1c-0.8-1.1-1.9-2.2-3.3-3.1c-0.6-1-1.3-1.9-2.3-2.7
		c-1.6-1.8-3.9-3.3-7.3-4.1c-10.5-2.3-37.5,19-37.5,19S123.6,67.8,86.8,79s-57.7,62.8-57.7,62.8c-12.2,11.7-22.3,5.2-26.7,1.1
		c-0.9-0.9-1.3-1.6-1.3-1.6c0,0.1,0,0.1,0,0.2c-0.6-0.7-1-1.2-1-1.2c-1,12.6,2.3,19.7,6.7,23.7c4.2,4.5,9.6,5.7,13,6l2,2.3
		c0-0.5,0.1-1.1,0.1-1.6l-0.5-0.6c0.2,0,0.5,0,0.7,0c-2,31.9,6.7,54,19.4,66.2c7.4,7.6,16.3,11.6,25.2,12.1l3.4,3.9
		c0.5,0,1,0.1,1.6,0.1l-3.5-3.9c0.7,0,1.5,0,2.2,0l3.5,3.9c0.5,0,0.9-0.1,1.4-0.1l-3.5-3.9c0.7-0.1,1.4-0.1,2-0.2l3.5,4
		c0.4-0.1,0.9-0.1,1.3-0.2l-3.5-4c0.6-0.1,1.3-0.3,1.9-0.4l3.5,4c0.4-0.1,0.8-0.2,1.2-0.3l-3.5-4c0.6-0.2,1.2-0.4,1.8-0.6l3.6,4
		c0.4-0.1,0.8-0.3,1.1-0.4l-3.6-4c0.6-0.2,1.1-0.4,1.6-0.7l3.6,4c0.4-0.2,0.7-0.3,1.1-0.5l-3.6-4c0.5-0.3,1-0.5,1.5-0.8l3.6,4.1
		c0.3-0.2,0.7-0.4,1-0.5l-3.6-4.1c0.5-0.3,1-0.6,1.5-0.9l3.6,4.1c0.3-0.2,0.6-0.4,1-0.6l-3.6-4.1c0.5-0.3,0.9-0.6,1.4-1l3.6,4.1
		c0.3-0.2,0.6-0.5,0.9-0.7l-3.6-4.1c0.4-0.3,0.9-0.7,1.3-1.1l3.6,4.1c0.3-0.2,0.6-0.5,0.8-0.7l-3.6-4.1c0.4-0.4,0.8-0.8,1.2-1.2
		l3.6,4.1c0.3-0.3,0.5-0.5,0.8-0.8l-3.7-4.1c0.4-0.4,0.8-0.8,1.2-1.2l3.7,4.1c0.3-0.3,0.5-0.5,0.8-0.8l-3.7-4.2
		c0.4-0.4,0.7-0.9,1.1-1.3l3.7,4.1c0.2-0.3,0.5-0.6,0.7-0.9l-3.7-4.2c0.3-0.5,0.7-0.9,1-1.4l3.7,4.2c0.2-0.3,0.4-0.6,0.7-0.9
		l-3.7-4.2c0.3-0.5,0.6-1,1-1.5l3.7,4.2c0.2-0.3,0.4-0.7,0.6-1l-3.7-4.2c0.2-0.4,0.5-0.7,0.7-1.1c0.1-0.1,0.1-0.3,0.2-0.4l3.7,4.2
		c0.2-0.3,0.4-0.7,0.6-1.1l-3.7-4.2c0.3-0.5,0.5-1.1,0.8-1.6l3.7,4.2c0.2-0.4,0.3-0.7,0.5-1.1l-3.7-4.2c0.2-0.6,0.5-1.2,0.7-1.7
		l3.7,4.2c0.2-0.4,0.3-0.8,0.4-1.2l-3.7-4.2c0.2-0.6,0.4-1.2,0.6-1.9l3.8,4.2c0.1-0.4,0.3-0.8,0.4-1.3l-3.8-4.3
		c0.2-0.7,0.3-1.3,0.5-2l3.8,4.3c0.1-0.4,0.2-0.9,0.3-1.3l-3.8-4.3c0.1-0.7,0.3-1.4,0.4-2.1l3.8,4.3c0.1-0.5,0.2-1,0.2-1.4l-3.8-4.3
		c0.1-0.7,0.2-1.5,0.3-2.2l3.8,4.3c0.1-0.5,0.1-1,0.2-1.5l-3.8-4.3c0.1-0.8,0.1-1.6,0.2-2.3l3.8,4.3c0-0.5,0.1-1.1,0.1-1.6l-3.8-4.3
		c0-0.8,0.1-1.7,0.1-2.5l3.9,4.4c0-0.6,0-1.1,0-1.7l-3.9-4.4c0-0.9,0-1.8-0.1-2.6l3.9,4.4c0-0.6,0-1.2-0.1-1.8l-3.9-4.4
		c-0.1-1-0.1-1.9-0.2-2.8l3.9,4.4c-0.1-0.6-0.1-1.3-0.2-1.9l-3.9-4.4c-0.6-5.7-1.5-9.4-1.5-9.4c-0.2,0.4-0.4,0.7-0.6,1.1
		c-0.2-1.3-0.4-2.1-0.4-2.1c-18.9,36.8-34.8,44.7-45.2,37.5c-0.4-0.6-0.9-1.3-1.3-1.9l-4.6-5.2c-0.9-1.6-1.6-3.3-2.4-5.2l4.2,4.7
		c-0.4-0.9-0.7-1.9-1-2.9l-4.1-4.6c-0.4-1.2-0.7-2.4-1-3.7l4,4.6c-0.2-0.8-0.4-1.5-0.5-2.3l-4-4.5c-0.2-1.1-0.4-2.1-0.6-3.2l4,4.5
		c-0.1-0.7-0.2-1.4-0.3-2.1l-3.9-4.5c-0.1-1-0.3-2-0.4-3l3.9,4.4c-0.1-0.6-0.1-1.3-0.2-1.9l-3.9-4.4c-0.1-0.9-0.1-1.8-0.2-2.8
		l3.9,4.4c0-0.6-0.1-1.2-0.1-1.8l-3.9-4.4c0-0.9-0.1-1.7-0.1-2.6l3.9,4.4c0-0.6,0-1.1,0-1.7l-3.9-4.4c0-0.8,0-1.7,0-2.5l3.9,4.4
		c0-0.5,0-1.1,0.1-1.6l-3.9-4.4c0-0.8,0.1-1.6,0.1-2.4l3.8,4.3c0-0.5,0.1-1,0.1-1.6l-3.8-4.3c0.1-0.8,0.1-1.5,0.2-2.3l3.8,4.3
		c0-0.5,0.1-1,0.2-1.5l-3.8-4.3c0.1-0.7,0.2-1.5,0.3-2.2l3.8,4.3c0.1-0.5,0.1-1,0.2-1.5l-3.8-4.3c0.1-0.7,0.2-1.4,0.3-2.2l3.8,4.3
		c0.1-0.5,0.2-0.9,0.2-1.4l-3.8-4.3c0.1-0.7,0.3-1.4,0.4-2.1l3.8,4.3c0.1-0.5,0.2-0.9,0.3-1.4l-3.8-4.3c0.1-0.7,0.3-1.4,0.5-2
		l3.8,4.3c0.1-0.4,0.2-0.9,0.3-1.3l-3.8-4.3c0.2-0.7,0.3-1.3,0.5-2l3.8,4.3c0.1-0.4,0.2-0.9,0.4-1.3l-3.8-4.3
		c0.2-0.6,0.4-1.3,0.6-1.9l3.8,4.3c0.1-0.4,0.3-0.8,0.4-1.3l-3.8-4.2c0.2-0.6,0.4-1.2,0.6-1.9l3.8,4.2c0.1-0.4,0.3-0.8,0.4-1.2
		l-3.7-4.2c0.2-0.6,0.4-1.2,0.7-1.8l3.7,4.2c0.1-0.4,0.3-0.8,0.5-1.2l-3.7-4.2c0.2-0.6,0.5-1.2,0.7-1.7l3.7,4.2
		c0.2-0.4,0.3-0.8,0.5-1.1l-3.7-4.2c0.2-0.6,0.5-1.1,0.8-1.7l3.7,4.2c0.2-0.4,0.3-0.7,0.5-1.1l-3.7-4.2c0.3-0.5,0.5-1.1,0.8-1.6
		l3.7,4.2c0.2-0.4,0.4-0.7,0.6-1.1l-3.7-4.2c0.3-0.5,0.6-1.1,0.8-1.6l3.7,4.2c0.2-0.3,0.4-0.7,0.6-1l-3.7-4.2c0.3-0.5,0.6-1,0.9-1.5
		l3.7,4.2c0.2-0.3,0.4-0.7,0.6-1l-3.7-4.2c0.3-0.5,0.6-1,0.9-1.5l3.7,4.2c0.2-0.3,0.4-0.6,0.6-1l-3.7-4.2c0.3-0.5,0.7-1,1-1.4
		l3.7,4.2c0.2-0.3,0.4-0.6,0.7-0.9l-3.7-4.2c0.3-0.5,0.7-0.9,1-1.4l3.7,4.2c0.2-0.3,0.5-0.6,0.7-0.9l-3.7-4.2
		c0.4-0.4,0.7-0.9,1.1-1.3l3.7,4.2c0.2-0.3,0.5-0.6,0.7-0.9l-3.7-4.2c0.4-0.4,0.8-0.8,1.1-1.3l3.7,4.1c0.3-0.3,0.5-0.6,0.8-0.8
		l-3.7-4.1c0.4-0.4,0.8-0.8,1.2-1.2l3.7,4.1c0.3-0.3,0.5-0.5,0.8-0.8l-3.7-4.1c0.4-0.4,0.8-0.8,1.2-1.1l3.7,4.1
		c0.3-0.3,0.6-0.5,0.8-0.7l-3.7-4.1c0.4-0.4,0.9-0.7,1.3-1.1l3.6,4.1c0.3-0.2,0.6-0.5,0.9-0.7l-3.6-4.1c0.4-0.3,0.9-0.7,1.3-1
		l3.6,4.1c0.3-0.2,0.6-0.4,0.9-0.7l-3.6-4.1c0.5-0.3,0.9-0.6,1.4-1l3.6,4.1c0.3-0.2,0.6-0.4,0.9-0.6l-3.6-4.1c0.5-0.3,1-0.6,1.5-0.9
		l3.6,4.1c0.3-0.2,0.7-0.4,1-0.6l-3.6-4.1c0.5-0.3,1-0.6,1.5-0.8l3.6,4.1c0.3-0.2,0.7-0.4,1-0.5l-3.6-4.1c0.5-0.3,1-0.5,1.6-0.8
		l3.6,4.1c0.4-0.2,0.7-0.3,1.1-0.5L89.8,99c0.5-0.2,1.1-0.5,1.6-0.7l3.6,4c0.4-0.1,0.7-0.3,1.1-0.4l-3.6-4c0.6-0.2,1.1-0.4,1.7-0.6
		l3.6,4c0.4-0.1,0.8-0.3,1.2-0.4l-3.6-4c0.6-0.2,1.2-0.4,1.8-0.5l3.6,4c0.4-0.1,0.8-0.2,1.2-0.3l-3.6-4c0.6-0.2,1.2-0.3,1.9-0.4
		l3.5,4c0.4-0.1,0.8-0.2,1.3-0.3l-3.5-4c0.6-0.1,1.3-0.2,1.9-0.4l3.5,4c0.4-0.1,0.9-0.2,1.3-0.2l-3.5-4c0.7-0.1,1.3-0.2,2-0.3l3.5,4
		c0.5-0.1,0.9-0.1,1.4-0.2l-3.5-4c0.7-0.1,1.4-0.1,2.1-0.2l3.5,4c0.5,0,0.9-0.1,1.4-0.1l-3.5-3.9c0.7,0,1.5,0,2.2-0.1l3.5,3.9
		c0.5,0,1,0,1.5,0l-3.5-3.9c0.8,0,1.5,0,2.3,0.1l3.5,3.9c0.5,0,1,0,1.6,0.1l-3.4-3.9c-0.4,0-0.8-0.1-1.2-0.1
		c5.2,0.3,10.7,1.1,16.6,2.5c0.7,0.2,1.4,0.5,2,1c5.5,6.8,4.4,28.1,3.7,43.1c-0.9,17.3-14.9,27.8-14.9,27.8
		c1.8,1.6,6.7,9.9,4.9,18.8c-6.6,31.9-25.9,69.3-45.1,77.6c-6.2,2.7-10.5,2-13.3,0.4l-0.3-0.4c0,0-0.1,0.1-0.1,0.1
		c-0.6-0.4-1.1-0.8-1.6-1.2c-1.4-1.6-2-3.1-2-3.1c-0.1,0.1-0.2,0.2-0.3,0.4c-0.5-0.8-0.7-1.4-0.7-1.4c-11.4,13.7-2.6,25.7,3.4,31.5
		c1.6,1.7,3.1,2.9,4.1,3.7c-2.4,1.2-7.2,6.9-9.5,15.4c-2.4,8.8,3.4,17.3,3.4,17.3c0-0.2,0.1-0.4,0.1-0.6c0.5,1,0.9,1.6,0.9,1.6
		c0.2-1.5,0.6-2.8,1.2-4l3.7,4.2c0.2-0.4,0.4-0.7,0.6-1l-3.7-4.2c0.3-0.5,0.7-0.9,1.1-1.3l3.7,4.1c0.3-0.3,0.5-0.5,0.8-0.8l-3.6-4.1
		c0.4-0.4,0.9-0.7,1.4-1l3.6,4.1c0.3-0.2,0.6-0.4,1-0.6l-3.6-4.1c0.5-0.3,1-0.6,1.5-0.8l3.6,4.1c0.3-0.2,0.7-0.3,1.1-0.5l-3.6-4
		c0.5-0.2,1.1-0.4,1.7-0.7l3.6,4c0.4-0.1,0.7-0.3,1.1-0.4l-3.6-4c0.6-0.2,1.2-0.4,1.8-0.6l3.6,4c0.4-0.1,0.8-0.2,1.2-0.4l-3.5-4
		c0.6-0.2,1.2-0.3,1.8-0.5l3.5,4c0.4-0.1,0.8-0.2,1.2-0.3l-3.5-4c0.6-0.2,1.2-0.3,1.8-0.5l3.5,4c0.4-0.1,0.8-0.2,1.2-0.3l-3.5-4
		c0.6-0.1,1.2-0.3,1.9-0.4l3.5,4c0.4-0.1,0.8-0.2,1.2-0.3l-3.5-4c0.6-0.1,1.2-0.3,1.9-0.4l3.5,4c0.4-0.1,0.8-0.2,1.2-0.3l-3.5-4
		c0.6-0.1,1.2-0.3,1.8-0.5l3.5,4c0.4-0.1,0.8-0.2,1.2-0.3l-3.5-4c0.6-0.2,1.2-0.3,1.8-0.5l3.5,4c0.4-0.1,0.8-0.2,1.2-0.3l-3.5-4
		c0.6-0.2,1.2-0.3,1.8-0.5l3.5,4c0.4-0.1,0.8-0.2,1.2-0.3l-3.6-4c0.6-0.2,1.2-0.3,1.8-0.5l3.6,4c0.4-0.1,0.8-0.2,1.2-0.4l-3.6-4
		c0.2-0.1,0.5-0.1,0.7-0.2c0.3-0.1,0.7-0.3,1-0.4l3.6,4c0.4-0.1,0.8-0.3,1.1-0.4l-3.6-4c0.5-0.2,1.1-0.5,1.6-0.7l3.6,4
		c0.4-0.2,0.7-0.3,1.1-0.5l-3.6-4.1c0.5-0.3,1-0.6,1.5-0.9l3.6,4.1c0.3-0.2,0.7-0.4,1-0.6l-3.6-4.1c0.5-0.3,0.9-0.6,1.4-1l3.6,4.1
		c0.3-0.2,0.6-0.4,0.9-0.7l-3.6-4.1c0.4-0.3,0.9-0.7,1.3-1l3.6,4.1c0.3-0.2,0.6-0.5,0.9-0.7l-3.6-4.1c0.4-0.4,0.8-0.7,1.3-1.1
		l3.6,4.1c0.3-0.3,0.5-0.5,0.8-0.8l-3.7-4.1c0.4-0.4,0.8-0.8,1.2-1.2l3.7,4.1c0.3-0.3,0.5-0.6,0.8-0.8l-3.7-4.1
		c0.4-0.4,0.8-0.8,1.1-1.3l3.7,4.1c0.2-0.3,0.5-0.6,0.7-0.9l-3.7-4.2c0.4-0.4,0.7-0.9,1.1-1.3l3.7,4.2c0.2-0.3,0.5-0.6,0.7-0.9
		l-3.7-4.2c0.3-0.5,0.7-0.9,1-1.4l3.7,4.2c0.2-0.3,0.4-0.6,0.7-1l-3.7-4.2c0.3-0.5,0.6-1,1-1.4l3.7,4.2c0.2-0.3,0.4-0.6,0.6-1
		l-3.7-4.2c0.3-0.5,0.6-1,0.9-1.5l3.7,4.2c0.2-0.3,0.4-0.7,0.6-1l-3.7-4.2c0.3-0.5,0.6-1,0.9-1.6l3.7,4.2c0.2-0.3,0.4-0.7,0.6-1
		l-3.7-4.2c0.3-0.5,0.6-1.1,0.8-1.6l3.7,4.2c0.2-0.4,0.4-0.7,0.6-1.1l-3.7-4.2c0.3-0.5,0.5-1.1,0.8-1.6l3.7,4.2
		c0.2-0.4,0.4-0.7,0.5-1.1l-3.7-4.2c0.3-0.6,0.5-1.1,0.8-1.7l3.7,4.2c0.2-0.4,0.3-0.7,0.5-1.1l-3.7-4.2c0.3-0.6,0.5-1.1,0.7-1.7
		l3.7,4.2c0.2-0.4,0.3-0.8,0.5-1.1l-3.7-4.2c0.2-0.6,0.5-1.2,0.7-1.7l3.7,4.2c0.2-0.4,0.3-0.8,0.5-1.2l-3.7-4.2
		c0.2-0.6,0.5-1.2,0.7-1.8l3.7,4.2c0.2-0.4,0.3-0.8,0.4-1.2l-3.7-4.2c0.2-0.6,0.4-1.2,0.7-1.8l3.7,4.2c0.1-0.4,0.3-0.8,0.4-1.2
		l-3.7-4.2c0.2-0.6,0.4-1.2,0.6-1.8l3.7,4.2c0.1-0.4,0.3-0.8,0.4-1.2l-3.8-4.2c0.2-0.6,0.4-1.2,0.6-1.9l3.8,4.2
		c0.1-0.4,0.3-0.8,0.4-1.2l-3.8-4.2c0.2-0.6,0.4-1.3,0.6-1.9l3.8,4.2c0.1-0.4,0.3-0.8,0.4-1.3l-3.8-4.2c0.2-0.6,0.4-1.3,0.6-1.9
		l3.8,4.3c0.1-0.4,0.2-0.8,0.4-1.3l-3.8-4.3c0.2-0.6,0.4-1.3,0.5-1.9l3.8,4.3c0.1-0.4,0.2-0.9,0.4-1.3l-3.8-4.3
		c0.2-0.6,0.4-1.3,0.5-1.9l3.8,4.3c0.1-0.4,0.2-0.9,0.3-1.3l-3.8-4.3c0.2-0.7,0.3-1.3,0.5-2l3.8,4.3c0.1-0.4,0.2-0.9,0.3-1.3
		l-3.8-4.3c0.2-0.7,0.3-1.3,0.5-2l3.8,4.3c0.1-0.4,0.2-0.9,0.3-1.3l-3.8-4.3c0.2-0.7,0.3-1.3,0.5-2l3.8,4.3c0.1-0.4,0.2-0.9,0.3-1.3
		l-3.8-4.3c0.2-0.7,0.3-1.4,0.5-2l3.8,4.3c0.1-0.5,0.2-0.9,0.3-1.4l-3.8-4.3c0.1-0.7,0.3-1.4,0.4-2l3.8,4.3c0.1-0.5,0.2-0.9,0.3-1.4
		l-3.8-4.3c0.1-0.7,0.3-1.4,0.4-2.1l3.8,4.3c0.1-0.5,0.2-0.9,0.3-1.4l-3.8-4.3c0.1-0.7,0.3-1.4,0.4-2.1l3.8,4.3
		c0.1-0.5,0.2-0.9,0.3-1.4l-3.8-4.3c0.1-0.7,0.3-1.4,0.4-2.1l3.8,4.3c0.1-0.5,0.2-0.9,0.3-1.4l-3.8-4.3c0.1-0.7,0.3-1.4,0.4-2.1
		l3.8,4.3c0.1-0.5,0.2-0.9,0.3-1.4l-3.8-4.3c0.1-0.7,0.2-1.4,0.4-2.1l3.8,4.3c0.1-0.5,0.2-0.9,0.2-1.4l-3.8-4.3
		c0.1-0.7,0.2-1.4,0.3-2.1l3.8,4.3c0.1-0.5,0.2-1,0.2-1.4l-3.8-4.3c0.1-0.7,0.2-1.4,0.3-2.2l3.8,4.3c0.1-0.5,0.2-1,0.2-1.4l-3.8-4.3
		c0.1-0.7,0.2-1.5,0.3-2.2l3.8,4.3c0.1-0.5,0.1-1,0.2-1.5l-3.8-4.3c0.1-0.7,0.2-1.5,0.3-2.2l3.8,4.3c0.1-0.5,0.1-1,0.2-1.5l-3.8-4.3
		c0.1-0.7,0.2-1.5,0.3-2.2l3.8,4.3c0.1-0.5,0.1-1,0.2-1.5l-3.8-4.3c0.1-0.7,0.2-1.5,0.3-2.2l3.8,4.3c0.1-0.5,0.1-1,0.2-1.5l-3.8-4.3
		c0.1-0.7,0.2-1.5,0.3-2.2l3.8,4.3c0.1-0.5,0.1-1,0.2-1.5l-3.8-4.3c0.1-0.8,0.2-1.5,0.3-2.2l3.8,4.3c0.1-0.5,0.1-1,0.2-1.5l-3.8-4.3
		c0.1-0.8,0.2-1.5,0.3-2.3l3.8,4.3c0.1-0.5,0.1-1,0.2-1.5l-3.8-4.3c0.1-0.8,0.2-1.5,0.2-2.3l3.8,4.3c0.1-0.5,0.1-1,0.2-1.5l-3.8-4.3
		c0.1-0.8,0.2-1.5,0.2-2.3l3.8,4.3c0.1-0.5,0.1-1,0.2-1.5l-3.8-4.3c0.1-0.8,0.2-1.5,0.2-2.3l3.8,4.3c0-0.5,0.1-1,0.1-1.5l-3.8-4.3
		c0.1-0.8,0.1-1.5,0.2-2.3l3.8,4.3c0-0.5,0.1-1,0.1-1.5l-3.8-4.3c0.1-0.8,0.1-1.5,0.2-2.3l3.8,4.3c0-0.5,0.1-1,0.1-1.5l-3.8-4.3
		c0.1-0.8,0.1-1.6,0.2-2.3l3.8,4.3c0-0.5,0.1-1,0.1-1.6l-3.8-4.3c0.1-0.8,0.1-1.6,0.2-2.3l3.8,4.3c0-0.5,0.1-1,0.1-1.6l-3.8-4.3
		c0.1-0.8,0.1-1.6,0.2-2.3l3.8,4.3c0-0.5,0.1-1.1,0.1-1.6l-3.8-4.3c0.1-0.8,0.1-1.6,0.2-2.4l3.8,4.3c0-0.5,0.1-1.1,0.1-1.6l-3.8-4.3
		c0.1-0.8,0.1-1.6,0.2-2.4l3.8,4.3c0-0.5,0.1-1.1,0.1-1.6l-3.8-4.3c0.1-0.8,0.1-1.6,0.2-2.4l3.8,4.3c0-0.5,0.1-1.1,0.1-1.6l-3.8-4.3
		c0.1-0.8,0.1-1.6,0.2-2.4l3.8,4.3c0-0.5,0.1-1.1,0.1-1.6l-3.8-4.3c0.1-0.8,0.1-1.6,0.2-2.4l3.8,4.3c0-0.6,0.1-1.1,0.1-1.6l-3.8-4.3
		c0.1-0.9,0.1-1.7,0.2-2.3l3.8,4.3c0-0.6,0.1-1.1,0.1-1.5l-3.8-4.3c0.1-0.7,0.2-1.5,0.3-2.2l3.8,4.3c0.1-0.5,0.1-1,0.2-1.5l-3.8-4.3
		c0.1-0.7,0.2-1.5,0.3-2.2l3.8,4.3c0.1-0.5,0.1-1,0.2-1.5l-3.8-4.3c0.1-0.7,0.2-1.5,0.3-2.2l3.8,4.3c0.1-0.5,0.1-1,0.2-1.5l-3.8-4.3
		c0.1-0.7,0.2-1.5,0.3-2.2l3.8,4.3c0.1-0.5,0.1-1,0.2-1.5l-3.8-4.3c0.1-0.8,0.2-1.5,0.3-2.2l3.8,4.3c0.1-0.5,0.1-1,0.2-1.5l-3.8-4.3
		c0.1-0.8,0.2-1.5,0.3-2.2l3.8,4.3c0.1-0.5,0.1-1,0.2-1.5l-3.8-4.3c0.1-0.8,0.2-1.5,0.3-2.2l3.8,4.3c0.1-0.5,0.1-1,0.2-1.5l-3.8-4.3
		c0.1-0.8,0.2-1.5,0.3-2.2l3.8,4.3c0.1-0.5,0.1-1,0.2-1.5l-3.8-4.3c0.1-0.8,0.2-1.6,0.3-2.2l3.8,4.3c0.1-0.6,0.2-1,0.2-1.5l-3.8-4.3
		c0.1-0.6,0.2-1,0.2-1.1c0-0.1,0.2-0.3,0.5-0.6l3.7,4.1c0.2-0.2,0.4-0.5,0.8-0.8l-3.7-4.1c0.3-0.4,0.7-0.8,1.2-1.2l3.7,4.1
		c0.3-0.3,0.5-0.5,0.8-0.8l-3.6-4.1c0.4-0.4,0.8-0.7,1.3-1.1l3.6,4.1c0.3-0.2,0.6-0.5,0.9-0.7l-3.6-4.1c0.4-0.3,0.9-0.7,1.4-1
		l3.6,4.1c0.3-0.2,0.6-0.4,0.9-0.6l-3.6-4.1c0.5-0.3,1-0.6,1.5-0.8l3.6,4.1c0.4-0.2,0.7-0.3,1.1-0.5l-3.6-4c1.5-0.5,3-0.5,4.1,0.3
		c1.6,2.2,2.2,6.7,1.2,15.1c-0.4,3.5-1.7,26.5-2.2,30.7c-0.5,4.2-6,15-6,15c7.5,7.9,6.4,12.2,6.5,14.5c0.1,1.7-17.6,51.8-9.9,55.9
		c0.6,1.1,1.6,1.5,3,1.2c0.1,0.5,0.1,1,0.2,1.4l2.3,2.7c0.4,0.1,0.9,0,1.4-0.1l-3.6-4c0.5-0.2,1.1-0.4,1.6-0.7l3.6,4.1
		c0.3-0.2,0.7-0.4,1-0.6l-3.6-4.1c0.5-0.3,0.9-0.6,1.4-1l3.6,4.1c0.3-0.2,0.6-0.5,0.9-0.7l-3.6-4.1c0.4-0.4,0.8-0.7,1.3-1.1l3.6,4.1
		c0.3-0.3,0.5-0.5,0.8-0.8l-3.7-4.1c0.4-0.4,0.8-0.8,1.2-1.2l3.7,4.1c0.3-0.3,0.5-0.5,0.8-0.8l-3.7-4.1c0.4-0.4,0.7-0.8,1.1-1.3
		l3.7,4.1c0.2-0.3,0.5-0.6,0.7-0.9l-3.7-4.2c0.4-0.4,0.7-0.9,1.1-1.3l3.7,4.2c0.2-0.3,0.5-0.6,0.7-0.9l-3.7-4.2
		c0.3-0.5,0.7-0.9,1-1.4l3.7,4.2c0.2-0.3,0.5-0.6,0.7-0.9l-3.7-4.2c0.3-0.5,0.7-0.9,1-1.4l3.7,4.2c0.2-0.3,0.4-0.6,0.7-1l-3.7-4.2
		c0.3-0.5,0.7-1,1-1.5l3.7,4.2c0.2-0.3,0.4-0.7,0.6-1l-3.7-4.2c0.3-0.5,0.6-1,0.9-1.5l3.7,4.2c0.2-0.3,0.4-0.7,0.6-1l-3.7-4.2
		c0.3-0.5,0.6-1.1,0.9-1.5l3.7,4.2c0.2-0.4,0.4-0.7,0.6-1l-3.7-4.2c0.3-0.6,0.6-1.2,0.8-1.6l3.7,4.2c0.2-0.5,0.4-0.9,0.5-1.2
		l-3.8-4.3c0-0.4,0.1-1.3,0.1-2.4l3.8,4.3c0-0.5,0-1,0-1.6l-3.8-4.4c0-0.8,0-1.6,0.1-2.5l3.9,4.4c0-0.5,0-1.1,0-1.7l-3.9-4.4
		c0-0.8,0-1.6,0-2.5l3.9,4.4c0-0.5,0-1.1,0-1.7l-3.9-4.4c0-0.8,0-1.7,0-2.5l3.9,4.4c0-0.6,0-1.1,0-1.7l-3.9-4.4c0-0.8,0-1.7,0-2.5
		l3.9,4.4c0-0.6,0-1.1,0-1.7l-3.9-4.4c0-0.9,0-1.7,0-2.5l3.9,4.4c0-0.6,0-1.1,0-1.7l-3.9-4.4c0-0.9,0-1.8,0-2.6l3.9,4.4
		c0-0.6,0-1.2,0-1.7l-3.9-4.4c0-0.4,0-0.8,0-1.2c0-0.4,0-0.9,0-1.4l3.8,4.3c0-0.5,0.1-1,0.1-1.6l-3.8-4.3c0.1-0.7,0.2-1.4,0.4-2.1
		l3.8,4.3c0.1-0.4,0.2-0.9,0.3-1.4l-3.8-4.3c0.2-0.6,0.3-1.3,0.5-1.9l3.8,4.3c0.1-0.4,0.3-0.8,0.4-1.3l-3.8-4.2
		c0.2-0.6,0.4-1.2,0.6-1.8l3.7,4.2c0.1-0.4,0.3-0.8,0.4-1.2l-3.7-4.2c0.2-0.6,0.5-1.2,0.7-1.8l3.7,4.2c0.2-0.4,0.3-0.8,0.5-1.2
		l-3.7-4.2c0.2-0.6,0.5-1.2,0.7-1.7l3.7,4.2c0.2-0.4,0.3-0.8,0.5-1.1l-3.7-4.2c0.3-0.6,0.5-1.2,0.8-1.7l3.7,4.2
		c0.2-0.4,0.4-0.8,0.5-1.1l-3.7-4.2c0.4-0.8,0.7-1.3,0.8-1.6l3.7,4.2c0.2-0.3,0.3-0.5,0.3-0.5c-0.8-0.9-1.5-1.9-2-3.1l-4.2-4.8
		c-0.4-1.1-0.8-2.4-1-3.7l4,4.5c-0.1-0.7-0.3-1.4-0.4-2.1l-3.9-4.4c-0.1-0.9-0.2-1.9-0.3-2.8l3.9,4.4c0-0.6-0.1-1.2-0.1-1.8
		l-3.9-4.4c0-0.9,0-1.7,0-2.5l3.9,4.4c0-0.6,0-1.1,0-1.6l-3.8-4.3c0-0.8,0.1-1.6,0.1-2.4l3.8,4.3c0-0.5,0.1-1.1,0.1-1.6l-3.8-4.3
		c0.1-0.9,0.1-1.6,0.2-2.3l3.8,4.3c0-0.4,0.1-0.8,0.1-1.1c0-0.1,0-0.3,0.1-0.4l-3.8-4.3c0.1-0.6,0.2-1.3,0.4-2.1l3.8,4.3
		c0.1-0.4,0.2-0.9,0.3-1.4l-3.8-4.3c0.1-0.6,0.3-1.3,0.5-2l3.8,4.3c0.1-0.4,0.2-0.9,0.3-1.3l-3.8-4.3c0.2-0.6,0.3-1.3,0.5-1.9
		l3.8,4.3c0.1-0.4,0.2-0.9,0.4-1.3l-3.8-4.3c0.2-0.6,0.4-1.3,0.6-1.9l3.8,4.3c0.1-0.4,0.3-0.8,0.4-1.3l-3.8-4.2
		c0.2-0.6,0.4-1.2,0.6-1.9l3.8,4.2c0.1-0.4,0.3-0.8,0.4-1.2l-3.8-4.2c0.2-0.6,0.4-1.2,0.6-1.8l3.8,4.2c0.1-0.4,0.3-0.8,0.4-1.2
		l-3.7-4.2c0.2-0.6,0.4-1.2,0.7-1.8l3.7,4.2c0.1-0.4,0.3-0.8,0.4-1.2l-3.7-4.2c0.2-0.6,0.5-1.2,0.7-1.8l3.7,4.2
		c0.2-0.4,0.3-0.8,0.5-1.2l-3.7-4.2c0.2-0.6,0.5-1.2,0.7-1.7l3.7,4.2c0.2-0.4,0.3-0.8,0.5-1.1l-3.7-4.2c0.3-0.6,0.5-1.1,0.8-1.6
		l3.7,4.2c0.2-0.4,0.4-0.7,0.6-1.1l-3.7-4.2c0.3-0.5,0.6-1,0.9-1.5l3.7,4.2c0.2-0.3,0.4-0.7,0.7-1l-3.7-4.2c0.3-0.4,0.7-0.9,1.1-1.3
		l3.7,4.1c0.2-0.3,0.5-0.6,0.8-0.8l-3.6-4.1c0.4-0.4,0.8-0.8,1.2-1.2l3.6,4.1c0.3-0.3,0.5-0.5,0.8-0.8l-3.6-4.1
		c0.4-0.4,0.9-0.7,1.3-1.1l3.6,4.1c0.3-0.2,0.6-0.5,0.9-0.7l-3.6-4.1c0.5-0.3,0.9-0.7,1.4-1l3.6,4.1c0.3-0.2,0.6-0.4,0.9-0.6
		l-3.6-4.1c0.5-0.3,1-0.6,1.5-0.9l3.6,4.1c0.3-0.2,0.7-0.4,1-0.6l-3.6-4.1c0.5-0.3,1-0.5,1.6-0.8l3.6,4.1c0.4-0.2,0.7-0.3,1.1-0.5
		l-3.6-4c0.6-0.2,1.2-0.5,1.7-0.6l3.6,4c0.4-0.1,0.8-0.3,1.2-0.4l-3.5-4c1.2-0.2,2.1-0.2,2.8,0.1c5.7,9.3-10.4,66.5-10.4,66.5
		s-21.3,85.5-0.3,136.8c3.9,9.4,8.5,16.4,13.7,21.4c6.6,6.8,13.9,10.2,21.2,10.8l3.4,3.9c0.5,0.1,1.1,0.1,1.6,0.1l-3.5-3.9
		c0.7,0,1.5,0,2.2,0l3.5,3.9c0.5,0,1,0,1.4-0.1l-3.5-3.9c0.7-0.1,1.3-0.2,2-0.3l3.5,4c0.4-0.1,0.9-0.1,1.3-0.2l-3.5-4
		c0.6-0.1,1.2-0.3,1.9-0.4l3.5,4c0.4-0.1,0.8-0.2,1.2-0.3l-3.6-4c0.6-0.2,1.2-0.4,1.7-0.6l3.6,4c0.4-0.1,0.8-0.3,1.1-0.4l-3.6-4
		c0.5-0.2,1.1-0.5,1.6-0.7l3.6,4c0.4-0.2,0.7-0.3,1.1-0.5l-3.6-4.1c0.5-0.3,1-0.5,1.5-0.8l3.6,4.1c0.3-0.2,0.7-0.4,1-0.6l-3.6-4.1
		c0.5-0.3,1-0.6,1.4-0.9l3.6,4.1c0.3-0.2,0.6-0.4,0.9-0.6l-3.6-4.1c0.5-0.3,0.9-0.7,1.4-1l3.6,4.1c0.3-0.2,0.6-0.5,0.9-0.7l-3.6-4.1
		c0.4-0.4,0.9-0.7,1.3-1.1l3.6,4.1c0.3-0.2,0.6-0.5,0.8-0.8l-3.6-4.1c0.4-0.4,0.8-0.8,1.2-1.2l3.7,4.1c0.3-0.3,0.5-0.5,0.8-0.8
		l-3.7-4.1c0.4-0.4,0.8-0.8,1.1-1.3l3.7,4.1c0.3-0.3,0.5-0.6,0.7-0.9l-3.7-4.1c0.4-0.4,0.7-0.9,1.1-1.3l3.7,4.2
		c0.2-0.3,0.5-0.6,0.7-0.9l-3.7-4.2c0.3-0.5,0.7-0.9,1-1.4l3.7,4.2c0.2-0.3,0.4-0.6,0.6-1l-3.7-4.2c0.3-0.5,0.6-1,0.9-1.5l3.7,4.2
		c0.2-0.3,0.4-0.7,0.6-1l-3.7-4.2c0.3-0.5,0.6-1.1,0.8-1.6l3.7,4.2c0.2-0.4,0.4-0.7,0.5-1.1l-3.7-4.2c0.3-0.6,0.5-1.1,0.8-1.7
		l3.7,4.2c0.2-0.4,0.3-0.8,0.5-1.1l-3.7-4.2c0.2-0.6,0.5-1.2,0.7-1.8l3.7,4.2c0.1-0.4,0.3-0.8,0.4-1.2l-3.8-4.2
		c0.2-0.6,0.4-1.3,0.6-1.9l3.8,4.3c0.1-0.4,0.2-0.9,0.4-1.3l-3.8-4.3c0.1-0.5,0.2-1,0.3-1.5c0-0.2,0.1-0.4,0.1-0.5l3.8,4.3
		c0.1-0.5,0.2-0.9,0.3-1.3l-3.8-4.3c0.2-0.7,0.3-1.4,0.5-2l3.8,4.3c0.1-0.5,0.2-0.9,0.3-1.3l-3.8-4.3c0.2-0.7,0.3-1.3,0.5-2l3.8,4.3
		c0.1-0.4,0.2-0.9,0.3-1.3l-3.8-4.3c0.2-0.7,0.4-1.3,0.5-1.9l3.8,4.3c0.1-0.4,0.2-0.9,0.4-1.3l-3.8-4.3c0.2-0.6,0.4-1.3,0.6-1.9
		l3.8,4.2c0.1-0.4,0.3-0.8,0.4-1.3l-3.8-4.2c0.2-0.6,0.4-1.2,0.6-1.9l3.8,4.2c0.1-0.4,0.3-0.8,0.4-1.2l-3.7-4.2
		c0.2-0.6,0.4-1.2,0.6-1.8l3.7,4.2c0.1-0.4,0.3-0.8,0.4-1.2l-3.7-4.2c0.2-0.6,0.5-1.2,0.7-1.8l3.7,4.2c0.2-0.4,0.3-0.8,0.5-1.2
		l-3.7-4.2c0.2-0.6,0.5-1.2,0.7-1.7l3.7,4.2c0.2-0.4,0.3-0.8,0.5-1.1l-3.7-4.2c0.3-0.6,0.5-1.1,0.8-1.7l3.7,4.2
		c0.2-0.4,0.4-0.7,0.5-1.1l-3.7-4.2c0.3-0.6,0.6-1.1,0.8-1.6l3.7,4.2c0.2-0.4,0.4-0.7,0.6-1.1l-3.7-4.2c0.3-0.5,0.6-1.1,0.9-1.6
		l3.7,4.2c0.2-0.4,0.4-0.7,0.6-1l-3.7-4.2c0.3-0.5,0.6-1,0.9-1.5l3.7,4.2c0.2-0.3,0.4-0.7,0.6-1l-3.7-4.2c0.3-0.5,0.7-1,1-1.4
		l3.7,4.2c0.2-0.3,0.5-0.6,0.7-0.9l-3.7-4.2c0.4-0.5,0.7-0.9,1.1-1.3l3.7,4.1c0.3-0.3,0.5-0.6,0.7-0.9l-3.7-4.1
		C317.3,221.7,318.2,221.1,318.2,221.1z M304.1,220c-0.7,0.3-1.2,0.5-1.6,0.7l-0.2-0.2c-0.3-1.3-0.7-2.5-1-3.7L304.1,220z
		 M248.1,241.5c0,0-0.1-0.1-0.1-0.1c-0.5-0.6-1.1-1.2-1.6-1.8L248.1,241.5z M196.9,69.1c-0.4,0.5-0.8,1-1.1,1.3l-0.2-0.3
		c-0.3-1.3-0.8-2.9-1.8-4.5L196.9,69.1z"/>
	<path class="st0" d="M543.2,62.5c2.1,2.6,5.6,2.8,6.7,3c0,0,0,0,0.1,0l3.4,3.9c0.1,0,0.3,0,0.4,0.1c0.3,0,0.7,0.1,1.2,0.1l-3.5-3.9
		c0.6,0,1.3-0.1,2-0.3l3.5,4c0.4-0.1,0.8-0.2,1.2-0.4l-3.6-4c0.5-0.2,1-0.5,1.4-0.9l3.6,4.1c0.3-0.2,0.6-0.5,0.8-0.8l-3.7-4.2
		c0.3-0.4,0.6-1,0.9-1.6l3.7,4.2c0.2-0.4,0.3-0.8,0.4-1.2l-3.8-4.3c0.1-0.7,0.2-1.4,0.2-2.2c0,0,0,0,0-0.1l3.8,4.3
		c0-0.1,0-0.2,0-0.4c0-0.5,0-1-0.1-1.4l-4-4.5c-0.4-2.2-1.5-3.6-2.7-4.7c-2.3-2.7-5.8-3.1-5.8-3.1s-8.9,0.9-9,8
		C540.6,59.4,541.7,61.3,543.2,62.5z"/>
	<path class="st0" d="M572.4,63.2c-0.6,0.2-0.3,1,0.7,1.4c0,0.8,2,2.2,5.2,0.1c0.5-0.3,1-0.7,1.5-1c-0.1,0.3-0.3,0.7-0.4,1.1
		l3.2,3.6c0.3-0.2,0.6-0.4,0.9-0.7l-3.6-4.1c0.4-0.3,0.9-0.7,1.3-1.1l3.6,4.1c0.3-0.2,0.6-0.5,0.9-0.7l-3.6-4.1
		c0.4-0.4,0.8-0.8,1.2-1.2l3.6,4.1c0.3-0.3,0.6-0.5,0.8-0.8l-3.7-4.1c0.5-0.5,0.8-0.9,1.2-1.2l3.7,4.1c0.3-0.3,0.6-0.6,0.8-0.8
		l-3.7-4.1c0.1-0.1,0.2-0.2,0.2-0.2s0.3-0.6,0.9-1.1l3.7,4.1c0.2-0.3,0.5-0.5,0.8-0.8l-3.6-4.1c0.2-0.1,0.4-0.2,0.6-0.3
		c0.3-0.1,0.7-0.2,1-0.3l3.6,4c0.4-0.1,0.8-0.3,1.1-0.4l-3.6-4c0.7-0.3,1.2-0.6,1.2-0.6s-1.9-2.4-2.1-2.9c0,0,0-0.1,0-0.1L595,57
		c-0.5-0.7-1.2-1.6-1.3-1.9c-0.1-0.1,0-0.6,0-1.3l-3.9-4.4c0-0.9-0.1-1.9-0.4-3l4,4.6c-0.4-1.8-1.5-3.7-4.1-4.8c-0.4-1-1-2-2-2.9
		c-1.1-1.3-2.8-2.4-5.7-2.8c0,0-6.8,0.5-8.9,6.1s2.6,9.4,2.9,9.8S573.6,62.9,572.4,63.2z"/>
	<path class="st0" d="M344,65.7c0.5,8.9,1.8,11.7-1.7,17.7c0,0,0.5,0.3,1.1,0.9c0,0,0,0.1-0.1,0.1c0,0,0.3,0.2,0.7,0.5
		c0.7,0.8,1.4,2,1.9,3.5c1,3-0.7,42,6.1,46.5c0.7,1,1.6,1.5,2.6,1.4c0.2,0.6,0.5,1.2,0.8,1.7l1.7,1.9c0.5,0.3,1.1,0.4,1.7,0.2
		l-3.6-4c0.5-0.2,1-0.4,1.5-0.9l3.6,4.1c0.2-0.1,0.3-0.2,0.5-0.4c0.1-0.1,0.3-0.2,0.4-0.3l-3.6-4.1c0.5-0.4,0.9-0.8,1.3-1.1l3.6,4.1
		c0.3-0.3,0.6-0.5,0.8-0.7l-3.6-4.1c0.5-0.4,0.9-0.8,1.3-1.1l3.6,4.1c0.3-0.3,0.6-0.5,0.8-0.8l-3.6-4.1c0.5-0.4,0.9-0.8,1.3-1.1
		l3.6,4.1c0.3-0.3,0.6-0.5,0.9-0.7l-3.6-4.1c0.6-0.5,1-0.8,1.5-0.9l3.6,4c0.4-0.2,0.7-0.2,1.1-0.2c0.1,0,0.1,0,0.2,0l-3.4-3.9
		c-0.2,0-0.4-0.1-0.6-0.1c1.2,0,2.3,0.3,3,0.3l3.5,3.9c0.5,0,0.9,0,1.1-0.3c0,0,0-0.1,0-0.1l-3.8-4.3c0.1-1-0.4-2.9-0.6-3.2
		c0,0,0-0.1-0.1-0.2l4.2,4.7c-0.1-0.3-0.2-0.5-0.3-0.6c-0.1-0.1-0.3-0.8-0.5-1.9l-4-4.5c-0.2-0.9-0.4-2-0.6-3.2l3.9,4.5
		c-0.1-0.6-0.2-1.3-0.3-2l-3.9-4.4c-0.1-0.9-0.2-1.8-0.3-2.8l3.9,4.4c0-0.6-0.1-1.2-0.1-1.8l-3.9-4.4c0-0.8,0-1.7,0-2.5l3.8,4.4
		c0-0.5,0-1.1,0.1-1.6l-3.8-4.3c0.1-0.8,0.1-1.5,0.3-2.3l3.8,4.3c0.1-0.5,0.1-1,0.2-1.4l-3.8-4.3c0.1-0.6,0.3-1.3,0.4-2l3.8,4.3
		c0.1-0.4,0.2-0.9,0.3-1.3l-3.8-4.3c0.2-0.6,0.3-1.3,0.5-2l3.8,4.3c0.1-0.4,0.2-0.9,0.3-1.3l-3.8-4.3c0.2-0.6,0.4-1.3,0.5-1.9
		l3.8,4.3c0.1-0.4,0.2-0.9,0.4-1.3l-3.8-4.3c0.2-0.6,0.4-1.3,0.6-1.9l3.8,4.3c0.1-0.4,0.3-0.8,0.4-1.3l-3.8-4.2
		c0.2-0.6,0.4-1.3,0.6-1.9l3.8,4.2c0.1-0.4,0.3-0.8,0.4-1.3l-3.8-4.2c0.2-0.6,0.4-1.3,0.6-1.9l3.8,4.2c0.1-0.4,0.3-0.8,0.4-1.2
		l-3.8-4.2c0.2-0.7,0.4-1.3,0.6-1.8l3.8,4.2c0.1-0.4,0.3-0.8,0.4-1.2l-3.8-4.2c0.3-0.7,0.5-1.3,0.6-1.8l2,2.3
		c-0.8-1.1-1.4-2-1.9-2.6c0.1-0.3,0.2-0.6,0.3-0.7c3.1,4,13,18.5,10.1,38.2c-0.1,0.9-0.8,2.5,0.6,3.5c0.1,0.1,0.2,0.1,0.3,0.2
		c0.1,0.3,0.3,0.6,0.7,0.8c0.5,0.4,1.9,0.6,3.5,0.8c-0.1,0-0.2,0-0.4,0c0,0.1,0,0.1,0,0.2l3.2,3.6c0.5,0.1,1.1,0.1,1.7,0.2l-3.4-3.9
		c0.8,0,1.6,0.1,2.3,0.1l3.5,3.9c0.5,0,1,0,1.5,0l-3.5-3.9c0.9-0.1,1.5-0.2,1.7-0.4c0,0,0-0.1,0.1-0.2l3.7,4.2c0,0,0.1,0,0.1-0.1
		c0,0,0.2-0.4,0.4-1.1l-3.8-4.2c0.2-0.5,0.4-1.1,0.6-1.9l3.8,4.2c0.1-0.4,0.3-0.8,0.4-1.2l-3.8-4.2c0.2-0.6,0.4-1.2,0.6-1.9l3.8,4.2
		c0.1-0.4,0.3-0.8,0.4-1.2l-3.8-4.2c0.2-0.6,0.4-1.2,0.6-1.9l3.8,4.2c0.1-0.4,0.3-0.8,0.4-1.2l-3.8-4.2c0.2-0.6,0.4-1.2,0.6-1.8
		l3.8,4.2c0.1-0.4,0.3-0.8,0.4-1.2l-3.8-4.2c0.2-0.6,0.4-1.2,0.6-1.8l3.8,4.2c0.1-0.4,0.3-0.8,0.4-1.2l-3.8-4.2
		c0.2-0.6,0.4-1.2,0.6-1.8l3.7,4.2c0.1-0.4,0.3-0.8,0.4-1.2l-3.7-4.2c0.2-0.6,0.4-1.2,0.6-1.8l3.7,4.2c0.1-0.4,0.3-0.8,0.4-1.2
		l-3.7-4.2c0.2-0.6,0.4-1.2,0.7-1.8l3.7,4.2c0.1-0.4,0.3-0.8,0.4-1.2l-3.7-4.2c0.2-0.6,0.4-1.2,0.7-1.8l3.7,4.2
		c0.1-0.4,0.3-0.8,0.4-1.2l-3.7-4.2c0.2-0.6,0.4-1.2,0.7-1.8l3.7,4.2c0.1-0.4,0.3-0.8,0.4-1.2l-3.7-4.2c0.2-0.6,0.5-1.2,0.7-1.8
		l3.7,4.2c0.2-0.4,0.3-0.8,0.5-1.2l-3.7-4.2c0.2-0.6,0.5-1.2,0.7-1.8l3.7,4.2c0.2-0.4,0.3-0.8,0.5-1.2l-3.7-4.2
		c0.2-0.6,0.5-1.2,0.7-1.8l3.7,4.2c0.2-0.4,0.3-0.8,0.5-1.2l-3.7-4.2c0.2-0.6,0.5-1.2,0.7-1.7l3.7,4.2c0.2-0.4,0.3-0.8,0.5-1.2
		l-3.7-4.2c0.2-0.6,0.5-1.1,0.7-1.7l3.7,4.2c0.2-0.4,0.3-0.8,0.5-1.1l-3.7-4.2c0.2-0.6,0.5-1.1,0.7-1.7l3.7,4.2
		c0.2-0.4,0.3-0.8,0.5-1.1l-3.7-4.2c0.2-0.6,0.5-1.1,0.8-1.7l3.7,4.2c0.2-0.4,0.3-0.7,0.5-1.1l-3.7-4.2c0.3-0.6,0.5-1.1,0.8-1.7
		l3.7,4.2c0.2-0.4,0.3-0.7,0.5-1.1l-3.7-4.2c0.3-0.6,0.5-1.1,0.8-1.7l3.7,4.2c0.2-0.4,0.4-0.7,0.5-1.1l-3.7-4.2
		c0.3-0.5,0.5-1.1,0.8-1.6l3.7,4.2c0.2-0.4,0.4-0.7,0.5-1.1l-3.7-4.2c0.3-0.5,0.5-1.1,0.8-1.6l3.7,4.2c0.2-0.4,0.4-0.7,0.6-1.1
		l-3.7-4.2c0.3-0.5,0.6-1.1,0.8-1.6l3.7,4.2c0.2-0.4,0.4-0.7,0.6-1.1l-3.7-4.2c0.3-0.5,0.6-1,0.9-1.6l3.7,4.2c0.2-0.3,0.4-0.7,0.6-1
		l-3.7-4.2c0.3-0.5,0.6-1,0.9-1.5l3.7,4.2c0.2-0.3,0.4-0.7,0.6-1l-3.7-4.2c0.3-0.5,0.6-1,0.9-1.5l3.7,4.2c0.2-0.3,0.4-0.7,0.6-1
		l-3.7-4.2c0.3-0.5,0.6-1,1-1.5l3.7,4.2c0.2-0.3,0.4-0.6,0.7-1l-3.7-4.2c0.3-0.5,0.7-0.9,1-1.4l3.7,4.2c0.2-0.3,0.5-0.6,0.7-0.9
		l-3.7-4.2c0.4-0.5,0.7-0.9,1.1-1.3l3.7,4.1c0.2-0.3,0.5-0.6,0.7-0.9l-3.7-4.1c0.4-0.4,0.8-0.9,1.1-1.3l3.7,4.1
		c0.3-0.3,0.5-0.6,0.8-0.8l-3.7-4.1c0.4-0.4,0.8-0.8,1.2-1.2l3.6,4.1c0.3-0.3,0.6-0.5,0.8-0.8l-3.6-4.1c0.4-0.4,0.9-0.7,1.3-1
		l3.6,4.1c0.3-0.2,0.6-0.5,0.9-0.7l-3.6-4.1c0.5-0.3,1-0.6,1.5-0.9l3.6,4.1c0.4-0.2,0.7-0.4,1.1-0.5l-3.6-4c0.6-0.2,1.1-0.4,1.7-0.6
		l3.5,4c0.4-0.1,0.8-0.2,1.2-0.3l-3.5-4c0.6-0.1,1.3-0.2,2-0.3l2.9,3.2c0.1,0,0.7-0.8,0.8-0.8l-2.3-2.6c6.5-0.3,13.9,1.9,19.1,6.8
		c5,5.3,7.5,13.2,4.3,23.9c0,0,0.7-0.4,1.6-1.3c-0.2,0.8-0.4,1.5-0.6,2.3c0,0,2.7-1.8,5.3-5.7c0,0.2,0,0.5,0,0.7l3.4,3.8
		c0.2-0.3,0.4-0.6,0.6-1l-3.7-4.2c0.3-0.5,0.6-1,0.9-1.5l3.7,4.2c0.2-0.3,0.4-0.7,0.6-1.1l-3.7-4.2c0.3-0.5,0.5-1.1,0.7-1.7l3.7,4.2
		c0.2-0.4,0.3-0.8,0.4-1.2l-3.7-4.2c0.2-0.6,0.4-1.2,0.6-1.9l3.8,4.3c0.1-0.4,0.2-0.9,0.3-1.3l-3.8-4.3c0.1-0.4,0.2-0.7,0.2-1.1
		c0.1-0.3,0.1-0.7,0.2-1l3.8,4.3c0.1-0.5,0.2-1,0.2-1.4l-3.8-4.3c0.1-0.8,0.2-1.6,0.2-2.3l3.8,4.3c0-0.6,0.1-1.1,0.1-1.6l-3.9-4.4
		c0-1-0.1-1.9-0.2-2.7l3.9,4.4c-0.1-0.8-0.2-1.4-0.3-2l-4-4.5c-0.7-2.6-1.7-3.7-1.7-3.7s0.1-0.1,0.3-0.4l3.7,4.2
		c0.1-0.2,0.4-0.5,0.7-0.9l-3.7-4.2c0.3-0.4,0.6-0.9,0.9-1.5l3.7,4.2c0.2-0.3,0.4-0.7,0.6-1l-3.7-4.2c0.3-0.5,0.5-1,0.8-1.6l3.7,4.2
		c0.2-0.3,0.4-0.7,0.5-1.1l-3.7-4.2c0.2-0.5,0.5-1.1,0.7-1.7l3.7,4.2c0.2-0.4,0.3-0.8,0.5-1.2l-3.7-4.2c0.2-0.6,0.4-1.2,0.6-1.8
		l3.8,4.2c0.1-0.4,0.3-0.8,0.4-1.2l-3.8-4.2c0.2-0.6,0.4-1.3,0.5-1.9l3.8,4.3c0.1-0.2,0.1-0.4,0.2-0.6c0.1-0.2,0.1-0.5,0.2-0.7
		l-3.8-4.3c0.2-0.7,0.3-1.4,0.4-2.1l3.8,4.3c0.1-0.5,0.1-1,0.2-1.5l-3.8-4.3c0.7-7.3-1.2-12.6-1.2-12.6s-0.1,0.6-0.3,1.6
		c-0.3-1.6-0.7-2.6-0.7-2.6s-1.3,9.8-9.8,15.8l-4.5,2.9c0,0-44.9-38.5-66.5,46.7c0,0-1.7,6.4-7.2,7.4c0,0,2.1,5.1,1,10.6
		c-0.2,1.2-0.6,2.4-0.9,3.5c-0.1-0.5-0.1-1.1-0.2-1.6l-3.9-4.4c-0.1-1-0.3-2.1-0.4-3l3.9,4.4c-0.1-0.7-0.2-1.4-0.3-2l-3.9-4.5
		c-0.2-1.1-0.3-2-0.4-2.8c0-0.1,0-0.2,0-0.3l3.9,4.5c0-0.1,0-0.1,0-0.2c-0.1-0.6-0.2-1.2-0.3-1.8l-3.9-4.4c-0.1-0.9-0.2-1.9-0.2-2.8
		l3.9,4.4c0-0.6,0-1.2,0-1.7l-3.9-4.4c0-0.8,0-1.6,0.1-2.4l3.8,4.3c0-0.5,0.1-1,0.1-1.6l-3.8-4.3c0.1-0.7,0.2-1.5,0.3-2.2l3.8,4.3
		c0.1-0.5,0.1-1,0.2-1.4l-3.8-4.3c0.1-0.7,0.3-1.4,0.4-2.1l3.8,4.3c0.1-0.4,0.2-0.9,0.3-1.4l-3.8-4.3c0.1-0.7,0.3-1.3,0.5-2l3.8,4.3
		c0.1-0.4,0.2-0.9,0.3-1.3l-3.8-4.3c0.2-0.6,0.3-1.3,0.5-2l3.8,4.3c0.1-0.4,0.2-0.9,0.3-1.3l-3.8-4.3c0.1-0.2,0.1-0.4,0.2-0.6
		c0.1-0.4-1.1-2.1-2.5-3.4c-1.2-1.3-2.9-2.7-4.1-2.3c-2.3,0.6-3.3,1.1-4.8,0.2c-0.4-0.2-0.7-0.5-1.1-0.9c-0.3-0.3-0.6-0.6-0.9-0.9
		c-0.8-0.8-1.5-1.6-1.9-1.5c-0.6,0.3-3.7,3-4.3,3.3c-1.2,0.5-8,3.1-9,4.4c-2.7,3.7-2.2,20.5-2.2,21.8c0,1.2,0.9,10.9-4.2,16.7
		l-2.6-2.9c-0.2-0.9-0.3-1.9-0.4-3l3.9,4.4c-0.1-0.6-0.2-1.3-0.2-1.9l-3.9-4.4c-0.1-0.9-0.2-1.8-0.2-2.8l3.9,4.4
		c0-0.6-0.1-1.2-0.1-1.9l-3.9-4.4c-0.1-0.9-0.1-1.8-0.2-2.7l3.9,4.4c0-0.6-0.1-1.2-0.1-1.8l-3.9-4.4c0-0.9-0.1-1.8-0.1-2.7l3.9,4.4
		c0-0.6,0-1.2-0.1-1.8l-3.9-4.4c0-0.9-0.1-1.8-0.1-2.6l3.9,4.4c0-0.6,0-1.2,0-1.8l-3.9-4.4c0-0.9,0-1.7-0.1-2.6l3.9,4.4
		c0-0.6,0-1.2,0-1.7l-3.9-4.4c0-0.9,0-1.7,0-2.6l3.9,4.4c0-0.6,0-1.1,0-1.7l-3.9-4.4c0-0.9,0-1.7,0-2.6l3.9,4.4c0-0.6,0-1.1,0-1.7
		l-3.9-4.4c0-0.9,0-1.7,0-2.6l3.9,4.4c0-0.6,0-1.1,0-1.7l-3.9-4.4c0-0.9,0-1.7,0-2.5l3.9,4.4c0-0.6,0-1.1,0-1.7l-3.9-4.4
		c0-0.9,0-1.7,0-2.5l3.9,4.4c0-0.6,0-1.1,0-1.7l-3.9-4.4c0-0.9,0-1.7,0-2.5l3.9,4.4c0-0.6,0-1.1,0-1.7l-3.9-4.4c0-0.9,0-1.7,0-2.5
		l3.9,4.4c0-0.6,0-1.1,0-1.7l-3.9-4.4c0-0.9,0-1.8,0-2.5l3.9,4.4c0-0.6,0-1.2,0-1.7l-3.9-4.4c0-0.8,0-1.4,0-1.8c0-0.3,0-0.5,0-0.8
		l3.9,4.4c0-0.6,0-1.2-0.1-1.8l-3.9-4.4c-0.1-1-0.2-2-0.3-2.9l3.9,4.5c-0.1-0.7-0.2-1.4-0.3-2.1l-4-4.5c-0.3-1.4-0.7-2.7-1.1-3.8
		l4.2,4.7c-1.1-3.1-2.7-5.1-4.8-6c-0.7-1.3-1.5-2.3-2.4-3c-0.9-1.1-2-1.8-3.3-2.2C315.6-5.4,319.4,7,319.4,7S342.9,44.3,344,65.7z
		 M395.3,94.1l0.2,0.3c-0.1,0.1-0.1,0.2-0.2,0.4C395.3,94.6,395.3,94.4,395.3,94.1z M396,93.3l-1-1.1c-0.1-0.9-0.2-1.9-0.4-3
		l2.1,2.3C396.5,92.1,396.2,92.7,396,93.3z M397.8,88.5c-0.2,0.6-0.4,1.2-0.6,1.8l-2.8-3.1c-0.1-1-0.3-2-0.4-3L397.8,88.5z
		 M359.4,87.5c-0.3,0.2-0.5,0.3-0.7,0.3c-0.2-0.5-0.4-1.1-0.6-1.8L359.4,87.5z"/>
	<path class="st0" d="M489.7,72.1c-1.5,1.1,5.1,18.8-0.9,29.3s-7.6,12.8-5.5,13.1c0,0,0.1,0,0.1,0c0,0.6,0.3,0.9,0.9,1
		c0.9,0.2,2.5,0,4.9,0l3.5,3.9c0.5,0,1,0,1.5,0l-3.5-3.9c2.9,0.1,6.9,0.5,12.2,2c9.7,2.7,17.2,4.9,20,6.3c0,0,0,0.1,0,0.1l3,3.4
		c0.9,0.4,1.6,0.7,1.9,1c0,0,0-0.1,0.1-0.4l-3.8-4.3c0.1-0.5,0.3-1.2,0.5-2l3.8,4.3c0.1-0.4,0.2-0.9,0.3-1.4l-3.8-4.3
		c0.1-0.6,0.3-1.4,0.4-2.1l3.8,4.3c0.1-0.5,0.2-0.9,0.2-1.4l-3.8-4.3c0.1-0.7,0.2-1.4,0.3-2.2l3.8,4.3c0.1-0.5,0.1-1,0.2-1.5
		l-3.8-4.3c0,0,0,0,0,0c0.1-0.6,0.1-1.4,0.2-2.2l3.8,4.3c0.1-0.5,0.1-1,0.2-1.5l-3.8-4.3c0.1-0.7,0.2-1.4,0.3-2.2l3.8,4.3
		c0.1-0.5,0.1-1,0.2-1.5l-3.8-4.3c0.1-0.7,0.2-1.5,0.3-2.2l3.8,4.3c0.1-0.5,0.1-1,0.2-1.5l-3.8-4.3c0.1-0.7,0.2-1.5,0.3-2.2l3.8,4.3
		c0.1-0.5,0.1-1,0.2-1.5l-3.6-4.1c-0.1,0.2-0.2,0.4-0.3,0.5c1.1-7.3,2.2-14.4,2.2-14.4s-0.6,1.1-1.6,2.9c0.4-2.3,0.6-3.9,0.6-3.9
		s-10.9,19.9-14.3,22.1c-1.4,1-3.7,2.3-5.8,2.4c-0.1-0.6-0.2-1.3-0.3-2l-3.9-4.4c-0.1-0.8-0.1-1.7-0.1-2.7l3.9,4.4c0-0.3,0-0.7,0-1
		c0-0.2,0-0.4,0-0.7l-3.8-4.3c0-0.8,0.1-1.6,0.1-2.4l3.8,4.3c0-0.5,0.1-1,0.1-1.5l-3.8-4.3c0.1-0.8,0.2-1.5,0.3-2.2l3.8,4.3
		c0.1-0.5,0.2-0.9,0.3-1.4l-3.8-4.3c0.2-0.7,0.3-1.3,0.5-2l3.8,4.3c0.1-0.4,0.2-0.9,0.4-1.3l-3.7-4.2c0.2-0.6,0.4-1.2,0.7-1.8
		l3.7,4.2c0.2-0.4,0.3-0.8,0.5-1.1l-3.7-4.2c0.3-0.6,0.6-1.1,0.8-1.6l3.7,4.2c0.2-0.4,0.4-0.7,0.6-1l-3.7-4.2c0.3-0.5,0.7-1,1-1.4
		l3.7,4.2c0.3-0.3,0.5-0.6,0.7-0.9l-3.7-4.1c0.6-0.6,0.9-0.9,0.9-0.9s-0.1-0.3-0.3-0.9l4.1,4.6c-0.1-0.4-0.5-1.3-0.8-2.6l-4-4.5
		c-0.2-0.9-0.4-2-0.5-3.1l3.9,4.4c-0.1-0.6-0.1-1.2-0.1-1.8l-3.9-4.4c0-0.8,0.1-1.6,0.2-2.3l3.8,4.3c0.1-0.5,0.1-0.9,0.3-1.4
		l-3.8-4.3c0.1-0.5,0.4-1.2,0.6-1.9l3.8,4.2c0.1-0.4,0.3-0.8,0.4-1.2l-3.7-4.2c0.2-0.6,0.4-1.2,0.7-1.8l3.7,4.2
		c0.1-0.4,0.3-0.8,0.5-1.2l-3.7-4.2c0.2-0.6,0.5-1.2,0.7-1.8l3.7,4.2c0.2-0.4,0.3-0.8,0.5-1.2L514,57c0.2-0.6,0.5-1.2,0.7-1.7
		l3.7,4.2c0.2-0.4,0.3-0.8,0.5-1.2l-3.7-4.2c0.2-0.6,0.5-1.2,0.7-1.7l3.7,4.2c0.2-0.4,0.3-0.8,0.5-1.1l-3.7-4.2
		c0.3-0.6,0.5-1.2,0.7-1.7l3.7,4.2c0.2-0.4,0.3-0.8,0.5-1.1l-3.7-4.2c0.3-0.6,0.5-1.2,0.7-1.7l3.7,4.2c0.2-0.4,0.3-0.8,0.5-1.1
		l-3.7-4.2c0.4-0.8,0.6-1.4,0.7-1.7l3.7,4.2c0.1-0.3,0.2-0.5,0.2-0.5s0.1-0.2,0.3-0.6l-3.7-4.2c0.2-0.5,0.5-1,0.7-1.7l3.7,4.2
		c0.2-0.4,0.3-0.7,0.5-1.1l-3.7-4.2c0.2-0.6,0.5-1.2,0.7-1.7l3.7,4.2c0.2-0.4,0.3-0.8,0.5-1.2l-3.7-4.2c0.4-1,0.7-1.8,0.7-2
		c0-0.8-0.1-1.8-0.9-1.9c-0.1,0-0.1,0-0.2,0c-0.1-0.5-0.3-0.9-0.8-1c-0.8-0.1-3.7-0.2-5.5-0.6c-9.9-2.6-10.6-6.9-14.4-7.5
		c-2.4-0.4-5.3,0.8-6.4,2.4c0,0-1,1.1,0.9,7.6S499.1,65.1,489.7,72.1z M508.9,108c-0.9,0-1.7-0.2-2.5-0.7c-0.6-0.8-1.1-2.1-1.4-3.7
		L508.9,108z"/>
	<path class="st0" d="M269.2,103.8c-0.4,0.9-2.5,6.6-4.3,8.7c0,0,4.8,5.1,7,14.1c1.8,7.3,6.3,26.7,16.3,36.3
		c2.5,2.6,5.3,4.6,8.6,5.7c1.2,0.4,2.4,0.6,3.6,0.7l3.4,3.9c0.5,0.1,1,0.1,1.6,0.1l-3.5-3.9c0.7,0,1.4-0.1,2.1-0.2l3.5,4
		c0.4-0.1,0.8-0.2,1.3-0.3l-3.5-4c0.6-0.2,1.2-0.4,1.7-0.6l3.6,4c0.4-0.1,0.7-0.3,1.1-0.5l-3.6-4.1c0.5-0.3,1-0.5,1.5-0.8l3.6,4.1
		c0.3-0.2,0.6-0.4,1-0.6l-3.6-4.1c0.5-0.3,0.9-0.7,1.3-1l3.6,4.1c0.3-0.2,0.6-0.5,0.9-0.7l-3.6-4.1c0.4-0.4,0.8-0.8,1.2-1.2l3.7,4.1
		c0.3-0.3,0.5-0.5,0.8-0.8l-3.7-4.1c0.4-0.4,0.7-0.8,1.1-1.3l3.7,4.1c0.2-0.3,0.5-0.6,0.7-0.9l-3.7-4.2c0.3-0.5,0.7-0.9,1-1.4
		l3.7,4.2c0.2-0.3,0.4-0.6,0.7-1l-3.7-4.2c0.3-0.5,0.6-1,0.9-1.5l3.7,4.2c0.2-0.3,0.4-0.7,0.6-1l-3.7-4.2c0.3-0.5,0.6-1,0.9-1.6
		l3.7,4.2c0.2-0.4,0.4-0.7,0.6-1.1l-3.7-4.2c0.3-0.6,0.5-1.1,0.8-1.7l3.7,4.2c0.2-0.4,0.3-0.8,0.5-1.1l-3.7-4.2
		c0.3-0.6,0.5-1.2,0.7-1.7l3.7,4.2c0.2-0.4,0.3-0.8,0.4-1.2l-3.7-4.2c0.2-0.6,0.4-1.3,0.6-1.9l3.8,4.2c0.1-0.4,0.3-0.9,0.4-1.3
		l-3.8-4.3c0.1-0.3,0.1-0.5,0.2-0.8c0.1-0.4,0.2-0.8,0.3-1.2l3.8,4.3c0.1-0.4,0.2-0.9,0.3-1.4l-3.8-4.3c0.1-0.6,0.3-1.3,0.4-2
		l3.8,4.3c0.1-0.4,0.2-0.9,0.3-1.4L326,137c0.1-0.7,0.3-1.4,0.4-2.1l3.8,4.3c0.1-0.5,0.2-0.9,0.3-1.4l-3.8-4.3
		c0.1-0.7,0.3-1.4,0.4-2.1l3.8,4.3c0.1-0.5,0.2-0.9,0.3-1.4l-3.8-4.3c0.1-0.7,0.3-1.4,0.4-2.1l3.8,4.3c0.1-0.5,0.2-0.9,0.3-1.4
		l-3.8-4.3c0.1-0.7,0.3-1.4,0.4-2.1l3.8,4.3c0.1-0.5,0.2-0.9,0.3-1.4l-3.8-4.3c0.1-0.7,0.3-1.4,0.4-2.1l3.8,4.3
		c0.1-0.5,0.2-0.9,0.3-1.4l-3.8-4.3c0.1-0.7,0.3-1.4,0.4-2.1l3.8,4.3c0.1-0.5,0.2-0.9,0.3-1.4l-3.8-4.3c0.1-0.7,0.3-1.4,0.4-2.1
		l3.8,4.3c0.1-0.5,0.2-1,0.3-1.4l-3.8-4.3c0.2-0.8,0.3-1.5,0.4-2.1l3.8,4.3c0.1-0.6,0.2-1.1,0.3-1.4l-3.8-4.3
		c0.1-0.4,0.2-1.1,0.4-2.1l3.8,4.3c0.1-0.4,0.2-0.9,0.3-1.4l-3.8-4.3c0.1-0.6,0.3-1.3,0.5-2l3.8,4.3c0.1-0.4,0.2-0.9,0.3-1.3
		l-3.8-4.3c0.2-0.7,0.3-1.4,0.5-2l3.8,4.3c0.1-0.5,0.2-0.9,0.3-1.3l-3.8-4.3c0.2-0.8,0.4-1.4,0.6-1.9l3.8,4.2c0.1-0.4,0.3-0.8,0.4-1
		c0-0.1,0.1-0.1,0.1-0.2l-3.7-4.2c0.2-0.5,0.5-1.1,0.8-1.6l3.7,4.2c0.2-0.4,0.4-0.7,0.5-1.1l-3.7-4.2c0.3-0.5,0.6-1.1,0.9-1.6
		l3.7,4.2c0.2-0.4,0.4-0.7,0.6-1l-3.7-4.2c0.3-0.5,0.6-0.8,0.8-1c0.3-0.2-0.3-0.4-1.1-0.9c0,0,0.1-0.1,0.1-0.1
		c0.4-0.4-1-0.6-2.5-1.8c-0.7-0.9-1.4-2.1-1.8-3.8l4,4.5c-0.2-0.6-0.3-1.4-0.4-2.2l-3.9-4.4c-0.1-0.8-0.2-1.7-0.3-2.9l3.9,4.4
		c-0.1-0.6-0.1-1.2-0.2-1.9l-3.9-4.4c-0.1-0.9-0.2-1.9-0.4-3L336,78c-0.1-0.6-0.2-1.3-0.3-2l-3.9-4.5c-0.1-1-0.3-2-0.5-3.1l4,4.5
		c-0.1-0.7-0.2-1.4-0.4-2.1l-4-4.5c-0.2-1.1-0.4-2.2-0.7-3.3l4,4.5c-0.2-0.7-0.3-1.5-0.5-2.3l-4-4.5c-0.3-1.2-0.6-2.4-0.9-3.6l4,4.6
		c-0.2-0.8-0.5-1.7-0.7-2.5l-4.1-4.6c-0.4-1.4-0.9-2.8-1.4-4.2l4.1,4.7c-0.4-1-0.8-2-1.2-3l-4.3-4.8c-1.1-2.4-2.2-4.6-3.6-6.6
		l4.9,5.5c-1.8-3-3.9-5.5-6.3-7.5c-0.8-1-1.6-1.9-2.5-2.7c-0.9-0.9-1.8-1.8-2.8-2.5c-26.1-19.6-42.2,56.4-42.9,59.7
		C271.4,96.5,269.6,102.9,269.2,103.8z M314.5,92.6c-2.3,41.7-4.8,60.7-12.3,58.9c-0.5-0.1-1-0.3-1.5-0.6l-3.9-4.5
		c-0.7-1.4-1.4-3-2-4.8l4.1,4.6c-0.3-0.8-0.6-1.7-0.8-2.6l-4-4.6c-0.3-1.1-0.6-2.3-0.8-3.5l4,4.5c-0.2-0.7-0.3-1.4-0.4-2.2l-4-4.5
		c-0.2-1-0.3-2-0.5-3.1l3.9,4.5c-0.1-0.7-0.2-1.3-0.3-2l-3.9-4.4c-0.1-0.9-0.2-1.9-0.3-2.9l3.9,4.4c-0.1-0.6-0.1-1.3-0.2-1.9
		l-3.9-4.4c-0.1-0.9-0.1-1.8-0.2-2.8l3.9,4.4c0-0.6-0.1-1.2-0.1-1.8l-3.9-4.4c0-0.9-0.1-1.8-0.1-2.7l3.9,4.4c0-0.6,0-1.2,0-1.8
		l-3.9-4.4c0-0.9,0-1.7,0-2.6l3.9,4.4c0-0.6,0-1.1,0-1.7l-3.9-4.4c0-0.8,0-1.7,0-2.5l3.9,4.4c0-0.6,0-1.1,0-1.7l-3.9-4.4
		c0-0.8,0-1.6,0.1-2.5l3.8,4.3c0-0.5,0-1.1,0.1-1.6l-3.8-4.3c0-0.8,0.1-1.6,0.1-2.4l3.8,4.3c0-0.5,0.1-1.1,0.1-1.6l-3.8-4.3
		c0-0.8,0.1-1.6,0.2-2.4l3.8,4.3c0-0.5,0.1-1,0.1-1.6l-3.8-4.3c0.1-0.8,0.1-1.5,0.2-2.3l3.8,4.3c0-0.5,0.1-1,0.1-1.5l-3.8-4.3
		c0.1-0.8,0.2-1.5,0.2-2.3l3.8,4.3c0.1-0.5,0.1-1,0.2-1.5l-3.8-4.3c0.1-0.7,0.2-1.5,0.3-2.2l3.8,4.3c0.1-0.5,0.1-1,0.2-1.5l-3.8-4.3
		c0.1-0.7,0.2-1.5,0.3-2.2l3.8,4.3c0.1-0.5,0.1-1,0.2-1.5l-3.8-4.3c0.1-0.7,0.2-1.4,0.3-2.2l3.8,4.3c0.1-0.5,0.2-1,0.2-1.4l-3.8-4.3
		c0.1-0.7,0.2-1.4,0.4-2.1l3.8,4.3c0.1-0.5,0.2-0.9,0.3-1.4l-3.8-4.3c0.1-0.7,0.3-1.4,0.4-2.1l3.8,4.3c0.1-0.5,0.2-0.9,0.3-1.4
		l-3.8-4.3c0.1-0.7,0.3-1.4,0.5-2l3.8,4.3c0.1-0.5,0.2-0.9,0.3-1.3l-3.8-4.3c0.2-0.7,0.3-1.3,0.5-2l3.8,4.3c0.1-0.4,0.2-0.9,0.3-1.3
		l-3.8-4.3c0.2-0.7,0.4-1.3,0.5-1.9l3.8,4.3c0.1-0.4,0.2-0.9,0.4-1.3l-3.8-4.3c0.2-0.6,0.4-1.3,0.6-1.9l3.8,4.2
		c0.1-0.4,0.3-0.8,0.4-1.2l-3.8-4.2c0.2-0.6,0.4-1.2,0.7-1.8l3.7,4.2c0.2-0.4,0.3-0.8,0.5-1.2l-3.7-4.2c0.2-0.6,0.5-1.2,0.7-1.7
		l3.7,4.2c0.2-0.4,0.3-0.8,0.5-1.1l-3.7-4.2c0.3-0.6,0.5-1.1,0.8-1.6l3.7,4.2c0.2-0.4,0.4-0.7,0.6-1l-3.7-4.2c0.3-0.5,0.6-1,0.9-1.5
		l3.7,4.2c0.2-0.3,0.4-0.6,0.7-0.9l-3.7-4.2c0.4-0.5,0.7-0.9,1.1-1.3l2.5,2.8l-0.3-2l-1.4-1.6c0.6-0.5,1.2-0.9,1.9-1.1
		C310.5,45.3,316.5,58.3,314.5,92.6z"/>
	<path class="st0" d="M65.7,149.9c0.3,0.1,0.5,0.2,0.5,0.2C66,150.1,65.8,150,65.7,149.9z"/>
	<path class="st0" d="M135.8,132.5c-0.3-1.8-2.1-2-2.1-2s-2.6,0.3-2.6,2.3c0,2.2,1.9,2.3,2.4,2.4c0.3,0.1,1.4,0.1,2-0.7
		c-0.3,2.3-1.1,5.3-3.7,6.3c-5,2-13.1,3-13.1,3v-8.1l5.4-1.4v-0.7l-5.5,1.3l0-7.5l12-2.8l0.1-1.1l-20.1,4.6l2.6,0.4l0.1,17.7
		l-0.8,1.4l20-5.1C132.4,142.4,137.7,138.4,135.8,132.5z"/>
	<path class="st0" d="M77.9,137.4L78,155l-1.2,1.6l8.3-2.1l-1.4-0.8c0,0-0.3-17.9-0.2-18.3c0-0.2,2.9-0.8,4.4-1.3l1.9,0l-0.1,18.1
		l-1.1,1.5l7.8-2l-1.4-1.6l-0.1-8.7l7.2-2l0,9.3l-0.8,2.1l7.6-2l-1.3-0.9l-0.3-18.3l0.5-0.7l-7.3,1.8l1.6,0.6v7.4l-7.2,2l0-7.7
		l1.4-1.1l-10.9,2.2c0,0-8.6,2-9.7,2.3c-1,0.3-9,1.8-11.7,7.1c-2.1,4.2,0.2,6,1.5,6.6c0,0-0.1,0-0.1-0.1c0.5,0.3,1.1,0.3,1.3,0.4
		c0.5,0.1,2.4,0.1,2.4-2.2c0-2.3-2.2-2.5-2.2-2.5s-2.6,0.3-2.6,2.3c0,0.8,0.2,1.3,0.6,1.7c-1-0.8-1.4-2-1.4-2
		C62.6,138.2,77.9,137.4,77.9,137.4z M65,149.5C65,149.5,65,149.5,65,149.5C65,149.5,65,149.5,65,149.5z"/>
	<polygon class="st0" points="69.7,134.9 130.8,120.9 130.8,118.4 69.6,132.9 	"/>
	<polygon class="st0" points="69.7,161.9 130.8,147.8 130.8,145.4 69.6,159.8 	"/>
	<polygon class="st0" points="130.8,150 69.6,164.4 69.7,166.5 130.8,152.4 	"/>
	<polygon class="st0" points="69.7,130.9 130.8,116.9 130.8,114.4 69.6,128.9 	"/>
</g>
</svg>
