<?xml version="1.0" encoding="utf-8"?>
<!-- Generator: Adobe Illustrator 21.0.0, SVG Export Plug-In . SVG Version: 6.00 Build 0)  -->
<svg version="1.1" id="Layer_1" xmlns="http://www.w3.org/2000/svg" xmlns:xlink="http://www.w3.org/1999/xlink" x="0px" y="0px"
	 viewBox="0 0 699.7 332" style="enable-background:new 0 0 699.7 332;" xml:space="preserve">
<style type="text/css">
	.st0{fill:#FFFFFF;}
</style>
<g>
	<path d="M252.2,102c0.1-0.5,0.1-0.9,0.2-1.4l4.8,5.4c-0.1,0.5-0.1,1-0.2,1.5L252.2,102z M324.3,139.4c-0.1,0.5-0.2,0.9-0.3,1.4
		l4.7,5.3c0.1-0.4,0.2-0.9,0.3-1.4L324.3,139.4z M325,136c-0.1,0.5-0.2,0.9-0.3,1.4l4.7,5.3c0.1-0.4,0.2-0.9,0.3-1.4L325,136z
		 M320.3,151.8c-0.2,0.4-0.4,0.7-0.5,1.1l4.5,5c0.2-0.4,0.4-0.7,0.6-1.1L320.3,151.8z M322.6,146c-0.1,0.4-0.3,0.8-0.4,1.2l4.6,5.2
		c0.2-0.4,0.3-0.8,0.4-1.2L322.6,146z M325.8,132.6c-0.1,0.5-0.2,0.9-0.3,1.4l4.7,5.3c0.1-0.5,0.2-0.9,0.3-1.4L325.8,132.6z
		 M321.5,149c-0.2,0.4-0.3,0.8-0.5,1.2l4.5,5.1c0.2-0.4,0.3-0.8,0.5-1.1L321.5,149z M329.2,115.3c-0.1,0.4-0.2,0.9-0.3,1.4l4.7,5.3
		c0.1-0.5,0.2-0.9,0.3-1.4L329.2,115.3z M326.5,129.1c-0.1,0.5-0.2,0.9-0.3,1.4l4.7,5.3c0.1-0.5,0.2-0.9,0.3-1.4L326.5,129.1z
		 M329.9,111.8c-0.1,0.4-0.2,0.9-0.3,1.4l4.7,5.3c0.1-0.5,0.2-1,0.3-1.4L329.9,111.8z M328.6,118.8c-0.1,0.5-0.2,0.9-0.3,1.4
		l4.7,5.3c0.1-0.5,0.2-0.9,0.3-1.4L328.6,118.8z M327.2,125.7c-0.1,0.5-0.2,0.9-0.3,1.4l4.7,5.3c0.1-0.5,0.2-0.9,0.3-1.4
		L327.2,125.7z M327.9,122.2c-0.1,0.5-0.2,0.9-0.3,1.4l4.7,5.3c0.1-0.5,0.2-0.9,0.3-1.4L327.9,122.2z M256.7,111.3
		c0-0.5,0-1,0.1-1.6l-4.9-5.5c-0.1,0.5-0.1,1.1-0.1,1.5L256.7,111.3z M256,127.4c0.2-0.3,0.4-0.7,0.6-1l-4.4-5
		c-0.2,0.3-0.4,0.6-0.6,1L256,127.4z M305,168.4c-0.4,0.1-0.8,0.3-1.2,0.4l3.8,4.3c0.4-0.1,0.8-0.2,1.3-0.3L305,168.4z M257.5,125
		c0.2-0.3,0.4-0.7,0.6-1l-4.4-4.9c-0.2,0.3-0.4,0.6-0.7,1L257.5,125z M292.5,167c-0.1,0-0.2-0.1-0.2-0.1c0.3,0.3,0.6,0.7,1,1
		L292.5,167z M359.1,132.1c-0.3,0.2-0.5,0.5-0.8,0.7l4.2,4.7c0.3-0.3,0.6-0.5,0.8-0.7L359.1,132.1z M254.8,117.7l4.3,4.9
		c0.3-0.4,0.5-0.7,0.7-0.9l-7.4-8.4c0.9,1.9,2.7,4,2.7,4S255,117.4,254.8,117.7 M317.4,157.1c-0.2,0.3-0.4,0.7-0.6,1l4.4,4.9
		c0.2-0.3,0.4-0.6,0.7-1L317.4,157.1z M395.7,94.6c0.2-0.4,0.3-0.7,0.5-1.2l-2.5-2.8c0.1,0.7,0.2,1.4,0.3,2L395.7,94.6z
		 M318.9,154.5c-0.2,0.3-0.4,0.7-0.6,1l4.4,5c0.2-0.3,0.4-0.7,0.6-1L318.9,154.5z M310,165.6c-0.3,0.2-0.6,0.4-0.9,0.7l4.1,4.6
		c0.3-0.2,0.6-0.4,1-0.6L310,165.6z M312.1,163.8c-0.3,0.3-0.5,0.5-0.8,0.8l4.2,4.7c0.3-0.2,0.6-0.5,0.9-0.7L312.1,163.8z
		 M307.6,167.2c-0.3,0.2-0.7,0.4-1,0.5l3.9,4.5c0.4-0.1,0.7-0.3,1.1-0.5L307.6,167.2z M323.6,142.8c0,0.1,0,0.1,0,0.2
		c-0.1,0.4-0.2,0.8-0.3,1.1l4.6,5.2c0.1-0.4,0.3-0.9,0.4-1.3L323.6,142.8z M465.9,163.8c-0.5,0-1.1-0.1-1.6-0.1l3.5,3.9
		c0.5,0,1.1,0.1,1.6,0.1L465.9,163.8z M454.2,163.2c-0.5,0-1,0-1.5,0l3.5,4c0.5,0,1,0,1.5,0L454.2,163.2z M461.9,163.5
		c-0.5,0-1.1-0.1-1.6-0.1l3.5,3.9c0.5,0,1,0,1.6,0.1L461.9,163.5z M458,163.3c-0.5,0-1,0-1.5,0l3.5,4c0.5,0,1,0,1.5,0L458,163.3z
		 M450.4,163.2c-0.5,0-1,0-1.5,0l3.6,4c0.5,0,1,0,1.5,0L450.4,163.2z M446.7,163.2c-0.5,0-1,0-1.5,0l3.6,4.1c0.5,0,1,0,1.5,0
		L446.7,163.2z M458,135.3l3,3.4c0.7,0.2,1.4,0.4,2.1,0.6l-2.9-3.3C459.4,135.8,458.7,135.5,458,135.3 M469.9,164.1
		c-0.5,0-1.1-0.1-1.6-0.1l3.4,3.9c0.5,0,1.1,0.1,1.6,0.1L469.9,164.1z M466.2,138.7c-0.8-0.4-1.7-0.9-2.6-1.3l2.7,3
		c0.8,0.3,1.6,0.7,2.4,1L466.2,138.7z M474,164.5c-0.5-0.1-1.1-0.1-1.6-0.2l3.1,3.5c0.3-0.2,0.6-0.5,0.9-0.7L474,164.5z M443,163.3
		c-0.5,0-1,0-1.4,0.1l3.6,4.1c0.5,0,0.9-0.1,1.4-0.1L443,163.3z M429.2,164.7c-0.4,0.1-0.9,0.2-1.3,0.2l3.8,4.3
		c0.4-0.1,0.8-0.2,1.3-0.3L429.2,164.7z M385.1,140.2c-0.4,0.1-0.8,0.3-1.1,0.4l3.9,4.4c0.4-0.1,0.8-0.3,1.1-0.4L385.1,140.2z
		 M386.1,145.7l-3.9-4.4c-0.4,0.1-0.7,0.3-1.1,0.4l3.9,4.4C385.4,146,385.8,145.8,386.1,145.7 M388,139.3c-0.4,0.1-0.8,0.3-1.2,0.4
		l3.9,4.4c0.4-0.1,0.8-0.3,1.2-0.4L388,139.3z M373.8,131.9c0,0,0-0.1,0-0.1l-5-5.6c0.1,0.7,0.2,1.3,0,1.7l3.8,4.3
		C373.2,132.2,373.6,132.2,373.8,131.9 M363.4,128.4c-0.3,0.2-0.6,0.4-0.9,0.7l4.2,4.7c0.3-0.3,0.6-0.5,0.9-0.7L363.4,128.4z
		 M390.9,138.3c-0.4,0.1-0.8,0.2-1.2,0.4l3.9,4.4c0.4-0.1,0.8-0.2,1.2-0.4L390.9,138.3z M361.2,130.2c-0.3,0.2-0.5,0.5-0.8,0.8
		l4.2,4.7c0.3-0.3,0.6-0.5,0.8-0.8L361.2,130.2z M432.5,164.2c-0.5,0.1-0.9,0.1-1.3,0.2l3.7,4.2c0.4-0.1,0.9-0.1,1.3-0.2
		L432.5,164.2z M435.9,163.8c-0.5,0-0.9,0.1-1.4,0.1l3.7,4.2c0.4-0.1,0.9-0.1,1.4-0.2L435.9,163.8z M426,165.3
		c-0.4,0.1-0.8,0.2-1.2,0.3l3.8,4.3c0.4-0.1,0.8-0.2,1.2-0.3L426,165.3z M439.4,163.5c-0.5,0-1,0.1-1.4,0.1l3.6,4.1
		c0.5,0,0.9-0.1,1.4-0.1L439.4,163.5z M423,166.1c-0.4,0.1-0.8,0.3-1.1,0.4l3.9,4.5c0.3-0.2,0.7-0.3,1.1-0.5L423,166.1z M298.9,53.1
		l4.6,5.1c0.1-0.4,0.3-0.8,0.5-1.2l-4.5-5.1C299.3,52.3,299.1,52.7,298.9,53.1 M330.7,72.1l5.3,6c-0.1-0.6-0.2-1.3-0.3-2l-5.3-6
		C330.5,70.7,330.6,71.4,330.7,72.1 M336.6,82.9c-0.1-0.6-0.1-1.2-0.2-1.9l-5.2-5.9c0.1,0.7,0.2,1.3,0.2,2L336.6,82.9z M335.6,88.6
		l-2.7-3.1C333.7,87.1,334.8,88,335.6,88.6 M366.7,115.2c0.1,0.7,0.1,1.3,0.2,1.9l5.3,6c-0.1-0.6-0.2-1.3-0.3-2L366.7,115.2z
		 M367.8,122.4l5.8,6.5c-0.1-0.3-0.2-0.5-0.3-0.6c-0.1-0.1-0.3-0.8-0.5-1.9l-5.4-6.1C367.5,121,367.6,121.8,367.8,122.4 M342.5,93.8
		c0-0.1-0.1-0.2-0.3-0.3L342.5,93.8z M334.2,95.4c-0.2,0.4-0.4,0.8-0.5,1.1l4.6,5.2c0.1-0.4,0.3-0.8,0.4-1c0-0.1,0.1-0.1,0.1-0.2
		L334.2,95.4z M331.4,105c-0.1,0.5-0.2,0.9-0.3,1.4l4.7,5.3c0.1-0.4,0.2-0.9,0.3-1.4L331.4,105z M332.2,101.6
		c-0.1,0.4-0.2,0.9-0.3,1.3l4.7,5.3c0.1-0.4,0.2-0.9,0.3-1.3L332.2,101.6z M335.1,115.1c0.1-0.6,0.2-1.1,0.3-1.4l-4.7-5.3
		c-0.1,0.4-0.2,0.8-0.2,1c0,0.1,0,0.2-0.1,0.3L335.1,115.1z M339.4,98.8c0.2-0.4,0.4-0.7,0.5-1.1l-4.4-5c-0.2,0.3-0.4,0.7-0.6,1.1
		L339.4,98.8z M366.5,112.5l5.1,5.8c0-0.6-0.1-1.2-0.1-1.8l-5-5.7C366.5,111.3,366.5,111.9,366.5,112.5 M341.5,95.2l-4.4-4.9
		c-0.2,0.2-0.4,0.6-0.7,1l4.4,5C341.1,95.8,341.3,95.5,341.5,95.2 M375,96.7c0.1-0.4,0.3-0.8,0.4-1.3l-4.6-5.2
		c-0.1,0.4-0.3,0.8-0.4,1.3L375,96.7z M377,90.4c0.1-0.4,0.3-0.8,0.4-1.2l-4.6-5.2c-0.1,0.4-0.3,0.8-0.4,1.2L377,90.4z M378,87.3
		c0.1-0.4,0.3-0.8,0.4-1.2l-4.6-5.2c-0.1,0.4-0.3,0.8-0.4,1.2L378,87.3z M405.3,114c0.1-0.4,0.3-0.8,0.4-1.2l-4.6-5.2
		c-0.1,0.4-0.3,0.8-0.4,1.2L405.3,114z M377.3,82.3c-1.5-2.3-2.7-3.6-2.7-3.6c0,0-0.1,0.2-0.2,0.3L377.3,82.3z M371.5,113.8
		c0-0.5,0-1.1,0.1-1.6l-4.9-5.5c-0.1,0.5-0.1,1-0.1,1.5L371.5,113.8z M406.8,109.7l-4.6-5.2c-0.1,0.4-0.3,0.8-0.4,1.2l4.6,5.2
		C406.5,110.5,406.7,110.1,406.8,109.7 M394.9,96.3l-0.6-0.7c0.1,1,0.2,1.5,0.2,1.5S394.7,96.8,394.9,96.3 M356.6,84.3l3.2,3.6
		c0.3-0.3,0.5-0.6,0.7-0.8l-4.3-4.8C356.3,83,356.4,83.6,356.6,84.3 M372.4,106.4c0.1-0.4,0.2-0.9,0.3-1.3l-4.7-5.3
		c-0.1,0.4-0.2,0.9-0.3,1.3L372.4,106.4z M333,98.4c-0.1,0.4-0.2,0.8-0.4,1.3l4.7,5.3c0.1-0.5,0.2-0.9,0.3-1.3L333,98.4z
		 M374.1,99.9c0.1-0.4,0.2-0.9,0.4-1.3l-4.6-5.2c-0.1,0.4-0.2,0.9-0.4,1.3L374.1,99.9z M257.6,103.8c0.1-0.5,0.2-0.9,0.3-1.4
		l-4.7-5.4c-0.1,0.5-0.2,0.9-0.3,1.4L257.6,103.8z M376,93.5c0.1-0.4,0.3-0.8,0.4-1.3l-4.6-5.2c-0.1,0.4-0.3,0.8-0.4,1.2L376,93.5z
		 M295.1,116.5c0-0.6,0-1.1,0-1.7l-5-5.6c0,0.6,0,1.1,0,1.7L295.1,116.5z M295.2,120.9c0-0.6,0-1.2,0-1.8l-5-5.7c0,0.6,0,1.2,0,1.7
		L295.2,120.9z M295.4,125.4c0-0.6-0.1-1.2-0.1-1.8l-5.1-5.7c0,0.6,0,1.2,0.1,1.8L295.4,125.4z M295.2,108.2c0-0.5,0-1.1,0.1-1.6
		l-4.9-5.6c0,0.5-0.1,1.1-0.1,1.6L295.2,108.2z M295.1,112.3c0-0.6,0-1.1,0-1.7l-5-5.6c0,0.5,0,1.1,0,1.6L295.1,112.3z M295.8,130
		c-0.1-0.6-0.1-1.3-0.2-1.9l-5.1-5.8c0,0.6,0.1,1.2,0.1,1.9L295.8,130z M258.3,100.3c0.1-0.4,0.2-0.9,0.3-1.4l-4.7-5.3
		c-0.1,0.5-0.2,0.9-0.3,1.4L258.3,100.3z M254.3,91.7L259,97c0.1-0.4,0.2-0.9,0.3-1.3l-4.7-5.3C254.5,90.8,254.4,91.2,254.3,91.7
		 M295.4,104.2c0-0.5,0.1-1.1,0.1-1.6l-4.9-5.5c0,0.5-0.1,1.1-0.1,1.6L295.4,104.2z M292.6,137.4c0.2,0.8,0.4,1.6,0.6,2.4l5.8,6.6
		c-0.3-0.8-0.6-1.7-0.8-2.6L292.6,137.4z M296.6,147.9l2.8,3.2c0.8,0.6,1.6,1,2.5,1.3c-0.1-0.2-0.3-0.4-0.4-0.6l-6.9-7.8
		C295.2,145.4,295.8,146.7,296.6,147.9 M296.4,134.9c-0.1-0.7-0.2-1.3-0.3-2l-5.2-5.9c0.1,0.7,0.1,1.3,0.2,2L296.4,134.9z
		 M297.3,140.2c-0.2-0.7-0.3-1.4-0.4-2.2l-5.3-6c0.1,0.7,0.2,1.4,0.4,2.1L297.3,140.2z M471.1,141.6l1.7,1.9c0.9,0.5,1.7,1,2.4,1.5
		C474,143.8,472.6,142.7,471.1,141.6 M298.4,77.9c0.1-0.5,0.2-0.9,0.3-1.4l-4.7-5.4c-0.1,0.5-0.2,0.9-0.3,1.4L298.4,77.9z
		 M299.1,74.4c0.1-0.5,0.2-0.9,0.3-1.4l-4.7-5.3c-0.1,0.5-0.2,0.9-0.3,1.4L299.1,74.4z M300.6,67.7c0.1-0.4,0.2-0.9,0.3-1.3
		l-4.7-5.3c-0.1,0.4-0.2,0.9-0.4,1.3L300.6,67.7z M299.8,71c0.1-0.5,0.2-0.9,0.3-1.3l-4.7-5.3c-0.1,0.4-0.2,0.9-0.3,1.3L299.8,71z
		 M301.5,64.4c0.1-0.4,0.2-0.9,0.4-1.3l-4.6-5.2c-0.1,0.4-0.3,0.8-0.4,1.3L301.5,64.4z M302.4,61.3c0.1-0.4,0.3-0.8,0.4-1.2
		l-4.6-5.2c-0.1,0.4-0.3,0.8-0.4,1.2L302.4,61.3z M296.3,92.5c0.1-0.5,0.1-1,0.2-1.5l-4.8-5.5c-0.1,0.5-0.1,1-0.2,1.5L296.3,92.5z
		 M295.6,100.2c0-0.5,0.1-1,0.1-1.6l-4.9-5.5c0,0.5-0.1,1-0.1,1.5L295.6,100.2z M295.9,96.3c0-0.5,0.1-1,0.1-1.5l-4.9-5.5
		c-0.1,0.5-0.1,1-0.1,1.5L295.9,96.3z M296.7,88.7c0.1-0.5,0.1-1,0.2-1.5l-4.8-5.4c-0.1,0.5-0.1,1-0.2,1.5L296.7,88.7z M297.2,85.1
		c0.1-0.5,0.1-1,0.2-1.5l-4.8-5.4c-0.1,0.5-0.1,1-0.2,1.4L297.2,85.1z M297.8,81.4c0.1-0.5,0.2-1,0.2-1.4l-4.8-5.4
		c-0.1,0.5-0.2,0.9-0.2,1.4L297.8,81.4z M315.8,159.5c-0.2,0.3-0.5,0.6-0.7,0.9l4.3,4.9c0.2-0.3,0.5-0.6,0.7-0.9L315.8,159.5z
		 M559.7,68c0.3-0.2,0.6-0.5,0.8-0.8l-4.4-4.9c-0.2,0.4-0.4,0.7-0.7,0.9L559.7,68z M524.5,45.2c0.2-0.4,0.3-0.7,0.5-1.1l-4.5-5.1
		c-0.2,0.4-0.3,0.8-0.5,1.1L524.5,45.2z M557.1,69.2c0.4-0.1,0.8-0.2,1.2-0.4l-4-4.5c-0.3,0.2-0.7,0.4-1,0.5L557.1,69.2z
		 M561.4,65.7c0.2-0.4,0.3-0.8,0.4-1.2l-4.8-5.4c-0.1,0.5-0.1,1-0.2,1.4L561.4,65.7z M589,88.4c0.5,0,1,0,1.5,0l-3.2-3.7
		c-0.6-0.2-1.2-0.3-1.8-0.3L589,88.4z M562.1,62.3c0-0.1,0-0.2,0-0.4c0-0.5,0-1-0.1-1.4l-5.7-6.4c0.3,0.7,0.6,1.5,0.7,2.5
		L562.1,62.3z M489.9,27.3c0.1-0.4,0.3-0.8,0.4-1.2l-4.6-5.2c-0.1,0.4-0.2,0.9-0.4,1.3L489.9,27.3z M491.6,20.7
		c0.1-0.5,0.1-1,0.2-1.5l-4.1-4.7c-0.2,0.3-0.4,0.7-0.6,1L491.6,20.7z M490.9,24.1c0.1-0.2,0.1-0.4,0.2-0.6c0.1-0.2,0.1-0.5,0.2-0.7
		l-4.7-5.3c-0.1,0.5-0.2,0.9-0.3,1.4L490.9,24.1z M593.4,89.2c0.3,0.1,0.6,0.2,0.9,0.4c0.1,0,0.2,0.1,0.3,0.1c-0.9-1.1-2-2.1-3.4-3
		L593.4,89.2z M491,7.3c-0.2-0.6-0.3-1-0.3-1s0,0.2-0.1,0.5L491,7.3z M492,16.9c0-0.6,0-1.1,0-1.7l-3-3.4c-0.2,0.4-0.3,0.7-0.5,1.1
		L492,16.9z M491.9,12.5c-0.1-0.7-0.1-1.4-0.2-2l-1.6-1.8c-0.1,0.4-0.2,0.8-0.4,1.2L491.9,12.5z M488.8,30.3
		c0.2-0.4,0.3-0.8,0.5-1.2l-4.6-5.2c-0.1,0.4-0.3,0.8-0.4,1.2L488.8,30.3z M593.4,51c-0.4-1.8-1.6-3.8-4.4-4.9L593.4,51z
		 M633.7,94.8c-0.1,0.4-0.3,0.8-0.4,1.2l4.5,5c0.2-0.3,0.4-0.7,0.5-1.1L633.7,94.8z M620.5,77.4l2.4,2.7
		C622.5,79.1,621.8,78.1,620.5,77.4 M605.7,103l3,3.4c1,0.4,1.7,0.6,1.8,0.6c0.1,0,0.1,0,0.2-0.1l-4.6-5.1c0,0,0,0.1,0,0.1
		C606.2,101.9,606,102.8,605.7,103 M622,102.8c0.4,0.6,0.8,1,1.3,1.4L622,102.8z M627.8,100.9c-0.4,0.1-0.8,0.2-1.2,0.3l3.7,4.2
		c0.5-0.1,0.9-0.1,1.3-0.2L627.8,100.9z M619.1,80.1c0.4,0,0.8-0.1,1.3,0c0.1,0,0.1,0,0.2,0l-3.4-3.8c-0.5-0.1-1.1-0.2-1.7-0.2
		L619.1,80.1z M579.9,69.6c0.4-0.1,0.7-0.2,1.2-0.4l-2.5-2.8c-0.2,0.4-0.4,0.7-0.6,1L579.9,69.6z M588.7,49.9L595,57
		c-0.5-0.7-1.2-1.6-1.3-1.9c-0.1-0.1,0-0.6,0-1.3l-5.1-5.7C588.7,48.8,588.7,49.4,588.7,49.9 M582.6,68.4c0.3-0.2,0.6-0.4,0.9-0.7
		l-3.7-4.1c-0.1,0.4-0.3,0.8-0.5,1.2L582.6,68.4z M593.2,59.2c0.4-0.1,0.8-0.3,1.1-0.4l-4-4.5c-0.3,0.1-0.7,0.3-1.1,0.5L593.2,59.2z
		 M584.8,66.7c0.3-0.2,0.6-0.5,0.9-0.7l-4.2-4.7c-0.3,0.3-0.5,0.5-0.8,0.8L584.8,66.7z M424,67.3c0.2-0.4,0.4-0.7,0.5-1.1l-4.5-5
		c-0.2,0.4-0.4,0.7-0.5,1.1L424,67.3z M434.5,49.4c0.2-0.3,0.5-0.6,0.7-0.9l-4.3-4.9c-0.2,0.3-0.5,0.6-0.7,0.9L434.5,49.4z
		 M487.6,33.1c0.2-0.3,0.4-0.7,0.5-1.1l-4.5-5.1c-0.2,0.4-0.3,0.8-0.5,1.1L487.6,33.1z M431.2,54.2c0.2-0.3,0.4-0.7,0.6-1l-4.4-4.9
		c-0.2,0.3-0.4,0.6-0.6,1L431.2,54.2z M440.1,43c0.3-0.3,0.6-0.5,0.8-0.8l-4.2-4.7c-0.3,0.2-0.6,0.5-0.9,0.7L440.1,43z M429.7,56.7
		c0.2-0.3,0.4-0.7,0.6-1l-4.4-5c-0.2,0.3-0.4,0.7-0.6,1L429.7,56.7z M436.2,47.1c0.2-0.3,0.5-0.6,0.7-0.9l-4.3-4.8
		c-0.2,0.3-0.5,0.6-0.7,0.9L436.2,47.1z M432.8,51.8c0.2-0.3,0.4-0.6,0.7-1l-4.4-4.9c-0.2,0.3-0.4,0.6-0.7,0.9L432.8,51.8z
		 M422.7,70c0.2-0.4,0.4-0.7,0.5-1.1l-4.5-5.1c-0.2,0.4-0.4,0.7-0.5,1.1L422.7,70z M421.4,72.8c0.2-0.4,0.3-0.7,0.5-1.1l-4.5-5.1
		c-0.2,0.4-0.3,0.7-0.5,1.1L421.4,72.8z M428.2,59.3c0.2-0.3,0.4-0.7,0.6-1l-4.4-5c-0.2,0.3-0.4,0.7-0.6,1L428.2,59.3z M610.9,87.7
		c0.1-0.4,0.3-0.8,0.5-1.2l-4.5-5.1c-0.2,0.4-0.4,0.7-0.5,1.1L610.9,87.7z M426.8,61.9c0.2-0.4,0.4-0.7,0.6-1.1l-4.4-5
		c-0.2,0.3-0.4,0.7-0.6,1L426.8,61.9z M425.4,64.6c0.2-0.4,0.4-0.7,0.6-1.1l-4.5-5c-0.2,0.4-0.4,0.7-0.6,1.1L425.4,64.6z
		 M442.2,41.2c0.3-0.2,0.6-0.5,0.9-0.7l-4.1-4.6c-0.3,0.2-0.6,0.4-1,0.6L442.2,41.2z M486.6,48.9c0-0.6,0.1-1.1,0.1-1.6l-5-5.7
		c0,0.5,0,1.1,0,1.7L486.6,48.9z M486.5,44.6c-0.1-0.8-0.2-1.4-0.3-2l-5.8-6.5c0.3,0.7,0.6,1.5,0.8,2.6L486.5,44.6z M485.4,56.1
		c0.1-0.4,0.2-0.9,0.3-1.3l-4.7-5.3c-0.1,0.5-0.2,0.9-0.3,1.4L485.4,56.1z M486.1,52.7c0.1-0.5,0.2-1,0.2-1.4l-4.8-5.5
		c0,0.5-0.1,1-0.2,1.5L486.1,52.7z M486.1,35.7c0.2-0.3,0.4-0.7,0.6-1l-4.4-5c-0.2,0.4-0.4,0.7-0.6,1.1L486.1,35.7z M484.5,38.1
		c0.1-0.2,0.4-0.5,0.7-0.9l-4.4-4.9c-0.2,0.4-0.5,0.7-0.6,1L484.5,38.1z M484.3,59.1c0.2-0.4,0.3-0.8,0.4-1.2l-4.6-5.2
		c-0.1,0.4-0.3,0.8-0.4,1.2L484.3,59.1z M449.9,37.2c0.1,0,0.7-0.8,0.8-0.8l-2.3-2.7c-0.5,0-1,0-1.5,0.1L449.9,37.2z M447.4,38.5
		c0.4-0.1,0.8-0.2,1.2-0.3l-3.8-4.2c-0.4,0.1-0.9,0.1-1.3,0.2L447.4,38.5z M564.8,169.6c-1-0.5-1.9-1-2.9-1.6l2.2,2.4
		c1,0.5,1.9,1.1,2.9,1.6L564.8,169.6z M585,179.6c-0.8-0.3-1.6-0.7-2.4-1.1l2.5,2.9c0.8,0.4,1.7,0.8,2.5,1.2L585,179.6z
		 M578.7,176.8c-0.9-0.4-1.8-0.9-2.7-1.3l2.4,2.7c0.9,0.5,1.8,0.9,2.7,1.4L578.7,176.8z M590.7,181.8c-0.7-0.3-1.5-0.5-2.2-0.8
		l2.8,3.1c0.8,0.3,1.5,0.6,2.3,0.9L590.7,181.8z M595.8,183.4c-0.7-0.2-1.3-0.4-2-0.6l3,3.4c0.7,0.2,1.4,0.4,2.1,0.6L595.8,183.4z
		 M571.9,173.4c-0.9-0.5-1.9-1-2.8-1.5l2.2,2.5c1,0.5,1.9,1,2.9,1.5L571.9,173.4z M557.6,165.6c-1-0.5-1.9-1.1-2.9-1.6l2.2,2.5
		c1,0.5,1.9,1,2.9,1.6L557.6,165.6z M615.3,184.2c-0.4,0.1-0.9,0.2-1.3,0.2l3.7,4.2c0.4-0.1,0.9-0.1,1.3-0.2L615.3,184.2z
		 M618.4,183.5c-0.4,0.1-0.8,0.2-1.2,0.3l3.8,4.3c0.4-0.1,0.8-0.2,1.2-0.3L618.4,183.5z M612,184.8c-0.5,0.1-0.9,0.1-1.4,0.1
		l3.6,4.1c0.5,0,1,0,1.4-0.1L612,184.8z M600.5,184.4c-0.6-0.1-1.2-0.2-1.8-0.3l3.2,3.6c0.6,0.2,1.2,0.3,1.9,0.4L600.5,184.4z
		 M621.2,182.5c-0.4,0.1-0.8,0.3-1.1,0.4l3.9,4.4c0.4-0.1,0.8-0.3,1.2-0.4L621.2,182.5z M608.5,185c-0.5,0-1,0-1.5,0l3.5,3.9
		c0.5,0,1,0,1.5,0.1L608.5,185z M604.7,184.9c-0.5,0-1.1-0.1-1.6-0.2l3.3,3.8c0.6,0.1,1.1,0.2,1.7,0.2L604.7,184.9z M495.8,138.2
		c-0.7-0.2-1.3-0.4-2-0.6l3,3.4c0.7,0.2,1.3,0.4,2,0.6L495.8,138.2z M501,139.8c-0.7-0.2-1.4-0.5-2.1-0.7l3,3.4
		c0.7,0.2,1.4,0.4,2.1,0.6L501,139.8z M506.3,141.6c-0.7-0.3-1.4-0.5-2.2-0.8l2.9,3.3c0.7,0.2,1.4,0.5,2.1,0.7L506.3,141.6z
		 M490.8,136.8c-0.6-0.2-1.3-0.3-1.9-0.5c0,0,0.1,0.2,0.4,0.5l7.6,8.6c-1.1-2.6-2.4-4.3-2.8-4.9L490.8,136.8z M511.9,143.7
		c-0.7-0.3-1.5-0.6-2.2-0.8l2.8,3.2c0.7,0.3,1.5,0.5,2.2,0.8L511.9,143.7z M492.6,143c0.3,0.8,0.6,1.7,0.8,2.6l5.4,6.1
		c-0.1-0.8-0.3-1.5-0.5-2.2L492.6,143z M523.7,148.5c-0.8-0.4-1.6-0.7-2.4-1.1l2.7,3c0.8,0.3,1.6,0.7,2.4,1L523.7,148.5z M543.3,158
		c-0.9-0.5-1.8-0.9-2.8-1.4l2.4,2.7c0.9,0.5,1.8,0.9,2.7,1.4L543.3,158z M612.2,84.9c0.2-0.3,0.4-0.7,0.6-1l-4.3-4.9
		c-0.2,0.3-0.5,0.6-0.7,0.9L612.2,84.9z M536.5,154.5c-0.9-0.4-1.8-0.9-2.6-1.3l2.5,2.8c0.9,0.4,1.7,0.8,2.6,1.2L536.5,154.5z
		 M550.3,161.7c-0.9-0.5-1.9-1-2.8-1.5l2.3,2.6c0.9,0.5,1.9,1,2.8,1.5L550.3,161.7z M529.9,151.3c-0.8-0.4-1.7-0.8-2.5-1.2l2.6,2.9
		c0.8,0.4,1.7,0.7,2.5,1.1L529.9,151.3z M517.7,146c-0.8-0.3-1.5-0.6-2.3-0.9l2.8,3.1c0.8,0.3,1.5,0.6,2.3,0.9L517.7,146z
		 M605.3,105.1l-1.9-2.1c0.1,0.9,0.1,1.4,0.1,1.4S604.3,104.7,605.3,105.1 M637.1,141c0.3,0.9,0.6,1.8,0.9,2.7l5.6,6.3
		c-0.2-0.8-0.4-1.6-0.6-2.4L637.1,141z M624,181.3c-0.4,0.2-0.7,0.3-1.1,0.5l3.9,4.5c0.4-0.1,0.7-0.3,1.1-0.5L624,181.3z M629.3,128
		c-1.5-1.3-3-2.5-4.6-3.7c3.8,3.3,7.1,6.9,9.5,11l7.1,8.1c-0.7-1.5-1.4-2.9-2.3-4.3L629.3,128z M638.8,147.2c0.1,0.7,0.2,1.4,0.3,2
		l5.2,5.8c0-0.6-0.1-1.3-0.2-1.9L638.8,147.2z M639.4,156.4c0,0.6,0,1.2,0,1.7l5,5.7c0-0.5,0-1.1,0-1.7L639.4,156.4z M639.4,152.1
		c0,0.4,0,0.9,0.1,1.3c0,0.2,0,0.3,0,0.4l5,5.7c0-0.5,0-1.1,0-1.7L639.4,152.1z M613.9,82.6c0.3-0.3,0.5-0.5,0.8-0.8l-4.1-4.6
		c-0.3,0.2-0.6,0.4-0.9,0.7L613.9,82.6z M616.2,80.9c0.3-0.2,0.7-0.3,1.1-0.5l-3.8-4.3c-0.4,0.1-0.8,0.2-1.2,0.3L616.2,80.9z
		 M610.7,104.4c-0.2-0.8-0.4-1.5-0.6-2.3l-5.3-6c0.1,0.7,0.2,1.4,0.3,2.1L610.7,104.4z M604.9,87.7c-0.1,0.5-0.1,1-0.2,1.5l4.9,5.5
		c0-0.5,0.1-1,0.1-1.6L604.9,87.7z M605.7,84.4c-0.1,0.4-0.3,0.8-0.4,1.3l4.7,5.3c0.1-0.5,0.2-0.9,0.3-1.4L605.7,84.4z M604.6,91.6
		c0,0.6,0,1.1,0,1.7l5.1,5.8c-0.1-0.6-0.1-1.2-0.1-1.8L604.6,91.6z M633.8,175.5c-0.3,0.2-0.6,0.4-0.9,0.6l4.1,4.6
		c0.3-0.2,0.6-0.4,1-0.6L633.8,175.5z M636.1,173.9c-0.3,0.2-0.6,0.4-0.9,0.6l4.1,4.6c0.3-0.2,0.6-0.4,0.9-0.6L636.1,173.9z
		 M581.3,95.8c0.7,0.5,1.4,1,2.1,1.5l-5.1-5.7C578.6,93,579.6,94.5,581.3,95.8 M631.4,177c-0.3,0.2-0.6,0.4-1,0.6l4.1,4.6
		c0.3-0.2,0.7-0.4,1-0.6L631.4,177z M640.6,170.5c-0.3,0.2-0.6,0.4-0.9,0.7l4.1,4.7c0.3-0.2,0.6-0.5,0.9-0.7L640.6,170.5z
		 M420.1,75.6c0.2-0.4,0.3-0.7,0.5-1.1l-4.5-5.1c-0.2,0.4-0.3,0.7-0.5,1.1L420.1,75.6z M638.4,172.2c-0.3,0.2-0.6,0.4-0.9,0.7
		l4.1,4.6c0.3-0.2,0.6-0.4,0.9-0.7L638.4,172.2z M586.1,89.3c0.3-0.2,0.7-0.4,1.1-0.5l-3.8-4.3c-0.4,0.1-0.8,0.2-1.2,0.3L586.1,89.3
		z M583.1,94.4c0-0.5,0-1,0.1-1.5l-4.6-5.2c-0.2,0.4-0.3,0.8-0.4,1.2L583.1,94.4z M584,91.2c0.2-0.3,0.4-0.6,0.7-0.9l-4.2-4.7
		c-0.3,0.2-0.6,0.5-0.9,0.7L584,91.2z M642.8,168.7c-0.2,0.2-0.5,0.4-0.9,0.7l4.1,4.7c0.3-0.3,0.6-0.5,0.9-0.7L642.8,168.7z
		 M639.5,160.8c0,0.7,0.1,1.3,0.1,1.8l5.3,6c-0.2-0.6-0.3-1.3-0.3-2.1L639.5,160.8z M626.5,180c-0.3,0.2-0.7,0.4-1,0.6l4,4.5
		c0.3-0.2,0.7-0.3,1-0.5L626.5,180z M487.9,116.6c-0.2,0.5-0.4,0.8-0.5,1.2l1.5,1.7c0.4,0,0.9,0,1.5,0L487.9,116.6z M468.8,111.9
		c-0.3,0.2-0.6,0.5-0.9,0.7l4,4.6c0.3-0.2,0.7-0.4,1-0.6L468.8,111.9z M490.7,115.4c-0.6,0-1.1-0.1-1.6-0.1l3.5,4c0.5,0,1,0,1.5,0
		L490.7,115.4z M562.3,137c-0.4,0.2-0.7,0.3-1.1,0.4l3.7,4.1c0.4,0,0.8,0,1.1-0.1c0.1,0,0.2-0.1,0.3-0.1L562.3,137z M504.3,118.1
		c-0.7-0.2-1.3-0.4-2-0.6l3.1,3.5c0.5,0.1,0.9,0.2,1.4,0.4c0.2,0,0.4,0.1,0.5,0.1L504.3,118.1z M469.2,118.3
		c0.4-0.1,0.8-0.3,1.1-0.4l-4-4.5c-0.3,0.2-0.7,0.3-1.1,0.5L469.2,118.3z M523.2,122.6c-0.1,0.6-0.3,1-0.3,1.3l3,3.4
		c0.9,0.4,1.6,0.7,1.9,1c0,0,0-0.1,0.1-0.4L523.2,122.6z M530.9,107.5c0.1-0.5,0.1-1,0.2-1.5l-4.6-5.2c-0.1,0.2-0.2,0.3-0.3,0.5
		c0,0.2-0.1,0.5-0.1,0.7L530.9,107.5z M546.5,115c0.2,0.8,0.4,1.7,0.7,2.5l6.6,7.5c-0.7-1.2-1.2-2.4-1.7-3.6L546.5,115z M487.1,87.7
		c0.1-0.5,0.2-1,0.3-1.4l-3.5-4c-0.5,0-1,0-1.5,0c0,0,0,0,0,0L487.1,87.7z M472.8,107.9c-0.2,0.3-0.5,0.6-0.7,0.9l4.3,4.8
		c0.3-0.3,0.5-0.6,0.8-0.8L472.8,107.9z M463.7,95.1c0.5,0.2,1.1,0.4,1.5,0.4c0.1,0,0.2,0,0.4,0l-3.7-4.2c-0.4,0.1-0.9,0.2-1.3,0.2
		L463.7,95.1z M470.9,110.1c-0.3,0.3-0.5,0.5-0.8,0.8l4.2,4.7c0.3-0.2,0.6-0.5,0.9-0.7L470.9,110.1z M371.8,109.9
		c0.1-0.5,0.1-1,0.2-1.4l-4.7-5.3c-0.1,0.4-0.2,0.8-0.2,1.1c0,0.1,0,0.2,0,0.3L371.8,109.9z M453.7,90.7l-5-5.7c0,0.6,0,1.2,0,1.7
		l5.1,5.7C453.8,91.9,453.8,91.3,453.7,90.7 M462.1,118.8c0.2,0,0.4,0.1,0.7,0.1c0.3,0,0.7,0,1,0.1l-3.5-4c-0.5,0-1,0-1.5,0
		L462.1,118.8z M469.6,51c0.4-0.3,0.7-0.5,0.9-0.6l-4.2-4.7c-0.4-0.3-0.8-0.6-1.3-0.8c0.7,0.7,1,1.2,1,1.2s-0.2,0.1-0.5,0.3
		L469.6,51z M465.5,54.7c0.3-0.3,0.5-0.6,0.8-0.8l-4.2-4.8c-0.3,0.2-0.5,0.5-0.8,0.8L465.5,54.7z M554.1,127.8l-3-3.4
		C552,125.6,553.1,126.8,554.1,127.8 M336.9,85.7l-5.2-5.9c0.1,0.6,0.1,1.1,0.1,1.5c0,0.1,0,0.3,0.1,0.4l5.4,6.1
		C337.1,87.3,336.9,86.5,336.9,85.7 M553.4,69.3c0.1,0,0.3,0,0.4,0.1c0.3,0,0.7,0.1,1.2,0.1l-3.6-4.1c-0.5,0.1-1,0.1-1.4,0.1
		L553.4,69.3z M550.7,68.8l-3.2-3.6c-0.4-0.1-0.8-0.1-1.3-0.3c0.3,0.7,0.7,1.3,1.2,1.8l0.1,0.1C548.4,67.8,549.6,68.4,550.7,68.8
		 M598.6,124.6c1,0.7,2,1.3,3,2c-1.3-1.2-2.7-2.3-4.3-3.5L598.6,124.6z M514.1,71.6c0.1-0.5,0.1-0.9,0.3-1.4l-4.6-5.2
		c-0.1,0.4-0.3,0.8-0.4,1.2c0,0,0,0.1,0,0.1L514.1,71.6z M513.7,83.8c0.3-0.3,0.5-0.6,0.7-0.9l-4.2-4.8c-0.2,0.2-0.5,0.5-0.8,0.8
		L513.7,83.8z M514,74l-5-5.6c0,0.6-0.1,1.1,0,1.6l5.1,5.8C514.1,75.2,514,74.6,514,74 M483.6,100.7c0.1-0.4,0.3-0.8,0.4-1.2
		l-4.6-5.2c-0.1,0.4-0.3,0.8-0.4,1.2L483.6,100.7z M508.9,108.1c-0.1-0.6-0.3-1.3-0.3-2.1l-5.1-5.8c0,0.7,0.1,1.3,0.1,1.9
		L508.9,108.1z M487.8,84.3c0.4-0.8,0.2-1.9-0.4-1.9c-0.1,0-0.5,0-1.2,0L487.8,84.3z M477.7,68.6c0.2-0.2,0.5-0.5,0.8-0.8l-1.1-1.3
		c-0.1,0.4-0.2,0.9-0.3,1.3L477.7,68.6z M507.2,108.7l-2.9-3.3C505,107.4,506.1,108.4,507.2,108.7 M478.1,60.5l3.4,3.8
		c0.2-0.3,0.4-0.6,0.6-1l-4.1-4.6C478.1,59.4,478.1,59.9,478.1,60.5 M479.7,66.6c0.2-0.3,0.5-0.6,0.7-0.9l-2.5-2.8
		c0,0.5-0.1,1-0.2,1.5L479.7,66.6z M477.2,100.3c-0.2,0.4-0.3,0.7-0.5,1.1l4.5,5.1c0.2-0.4,0.4-0.7,0.5-1.1L477.2,100.3z
		 M486.4,91.1c0.1-0.5,0.2-0.9,0.3-1.4l-4.7-5.3c-0.1,0.4-0.2,0.9-0.3,1.4L486.4,91.1z M479.7,109c0.2-0.3,0.4-0.7,0.6-1l-4.4-5
		c-0.2,0.4-0.4,0.7-0.6,1L479.7,109z M256.9,115.8c-0.1-0.5-0.1-1.1-0.2-1.9l-5-5.7c0,0.6,0,1.2,0,1.7L256.9,115.8
		C256.9,115.8,256.9,115.8,256.9,115.8 M508.4,103.3c0-0.3,0-0.7,0-1c0-0.2,0-0.4,0-0.7l-4.9-5.6c0,0.5,0,1.1-0.1,1.6L508.4,103.3z
		 M484.7,97.7c0.1-0.4,0.3-0.8,0.4-1.3l-4.6-5.2c-0.1,0.4-0.2,0.9-0.4,1.3L484.7,97.7z M485.6,94.5c0.1-0.4,0.2-0.9,0.3-1.3
		l-4.7-5.3c-0.1,0.4-0.2,0.9-0.3,1.3L485.6,94.5z M533.1,93c0.1-0.5,0.2-1,0.2-1.4l-0.8-0.9c-0.2,0.3-0.4,0.7-0.6,1L533.1,93z
		 M551.3,116.1l-4.8-5.4c-0.1,0.5-0.2,0.9-0.2,1.5l5.1,5.7C551.3,117.3,551.2,116.7,551.3,116.1 M532.5,96.6c0.1-0.5,0.1-1,0.2-1.4
		l-1.7-1.9c-0.2,0.3-0.4,0.7-0.6,1L532.5,96.6z M533.6,89.4c0.1-0.6,0.2-1,0.2-1s-0.1,0.3-0.4,0.7L533.6,89.4z M532,100.3
		c0.1-0.5,0.1-1,0.2-1.5l-2.6-3c-0.2,0.3-0.4,0.7-0.6,1L532,100.3z M547.6,107.7c-0.2,0.4-0.3,0.8-0.5,1.2l4.6,5.2
		c0.1-0.4,0.3-0.8,0.4-1.2L547.6,107.7z M548.9,105c-0.2,0.3-0.4,0.7-0.6,1.1l4.5,5.1c0.2-0.4,0.4-0.7,0.5-1.1L548.9,105z
		 M503.9,92.2c-0.1,0.5-0.1,1-0.2,1.5l4.9,5.5c0-0.5,0.1-1,0.1-1.5L503.9,92.2z M531.5,103.9c0.1-0.5,0.1-1,0.2-1.5l-3.6-4.1
		c-0.2,0.3-0.4,0.7-0.6,1L531.5,103.9z M524.7,113.3l4.8,5.5c0.1-0.5,0.1-1,0.2-1.5l-4.9-5.5c0,0.4-0.1,0.7-0.1,1
		C524.8,112.9,524.8,113.1,524.7,113.3 M504.3,90.1l4.7,5.4c0.1-0.5,0.2-0.9,0.3-1.4l-4.7-5.3C504.5,89.2,504.4,89.7,504.3,90.1
		 M530.4,111.2c0.1-0.5,0.1-1,0.2-1.5l-4.8-5.4c-0.1,0.5-0.1,1-0.2,1.5L530.4,111.2z M530,114.9c0.1-0.5,0.1-1,0.2-1.5l-4.8-5.4
		c-0.1,0.5-0.1,1-0.2,1.5L530,114.9z M173.3,93.4c0.2-0.2,0.4-0.5,0.8-0.8l-4.2-4.8c-0.3,0.3-0.6,0.6-0.8,0.8L173.3,93.4z
		 M98.7,312.6c-0.4,0.1-0.8,0.2-1.2,0.3l3.8,4.3c0.4-0.1,0.8-0.2,1.2-0.3L98.7,312.6z M95.6,313.3c-0.4,0.1-0.8,0.2-1.2,0.3l3.8,4.3
		c0.4-0.1,0.8-0.2,1.2-0.3L95.6,313.3z M104.7,310.9c-0.4,0.1-0.8,0.2-1.2,0.4l3.8,4.3c0.4-0.1,0.8-0.2,1.2-0.3L104.7,310.9z
		 M74.2,117c0.3-0.3,0.5-0.6,0.8-0.8l-4.2-4.8c-0.3,0.3-0.5,0.5-0.8,0.8L74.2,117z M89.4,314.8c-0.4,0.1-0.8,0.2-1.2,0.3l3.8,4.3
		c0.4-0.1,0.8-0.2,1.2-0.3L89.4,314.8z M92.5,314.1c-0.4,0.1-0.8,0.2-1.2,0.3l3.8,4.3c0.4-0.1,0.8-0.2,1.2-0.3L92.5,314.1z
		 M47.9,242.4c-0.3-0.2-0.6-0.4-0.9-0.6c0.6,0.5,1.2,1,1.8,1.5L47.9,242.4z M21.9,172.4c0-0.5,0.1-1.1,0.1-1.6l-0.6-0.7
		c-0.4,0-0.9,0-1.5,0L21.9,172.4z M107.7,310c0,0-0.1,0-0.1,0c-0.4,0.1-0.7,0.2-1,0.3l3.9,4.4c0.4-0.1,0.8-0.2,1.2-0.4L107.7,310z
		 M15.1,171.4l-2.5-2.8c-0.7-0.3-1.5-0.6-2.2-1C11.8,169.3,13.4,170.5,15.1,171.4 M52.4,179.8l-5-5.6c0,0.6,0,1.1,0,1.7l5,5.7
		C52.5,180.9,52.4,180.3,52.4,179.8 M70.2,252.3c0.5,0,1,0.1,1.6,0.1l-3.5-4c-0.5,0-1,0-1.5,0L70.2,252.3z M86.4,315.6
		c-0.4,0.1-0.8,0.2-1.2,0.3l3.8,4.3c0.4-0.1,0.8-0.2,1.2-0.3L86.4,315.6z M101.7,311.8c-0.4,0.1-0.8,0.2-1.2,0.3l3.8,4.3
		c0.4-0.1,0.8-0.2,1.2-0.3L101.7,311.8z M83.3,316.4c-0.4,0.1-0.8,0.2-1.2,0.3l3.8,4.3c0.4-0.1,0.8-0.2,1.2-0.4L83.3,316.4z
		 M121.9,300.6c-0.3,0.3-0.5,0.5-0.8,0.8l4.2,4.8c0.3-0.3,0.5-0.5,0.8-0.8L121.9,300.6z M626.1,221.8c-0.5,0-1,0-1.5,0l3.5,4
		c0.5,0,1,0,1.5,0L626.1,221.8z M342.8,168.7c-0.3,0.3-0.5,0.6-0.8,0.8l2.2,2.5c0.3-0.3,0.5-0.5,0.8-0.8L342.8,168.7z M634.1,88.5
		l5.1,5.8c0-0.6-0.1-1.2-0.1-1.8l-5.3-6C633.9,87.1,634,87.8,634.1,88.5 M673.9,203.8c-0.3,0.2-0.6,0.5-0.9,0.7l2.6,2.9
		c0.3-0.3,0.5-0.5,0.8-0.8L673.9,203.8z M72.4,321c-0.3,0.2-0.6,0.5-0.9,0.7l4.2,4.8c0.3-0.3,0.5-0.5,0.8-0.8L72.4,321z M77.5,318.3
		c-0.4,0.1-0.7,0.3-1.1,0.5l4,4.5c0.3-0.2,0.7-0.3,1.1-0.5L77.5,318.3z M80.3,317.2c-0.4,0.1-0.8,0.3-1.2,0.4l3.9,4.4
		c0.4-0.1,0.7-0.3,1.1-0.4L80.3,317.2z M74.8,319.5c-0.3,0.2-0.7,0.4-1,0.6l4.1,4.6c0.3-0.2,0.6-0.4,1-0.6L74.8,319.5z M70.5,327.4
		c0.5,1.3,1,2.5,1.5,3.4l1.1,1.3c0.1-0.5,0.2-0.9,0.3-1.4L70.5,327.4z M70.3,322.9c-0.2,0.3-0.5,0.6-0.7,0.9l4.4,5
		c0.2-0.4,0.4-0.7,0.6-1L70.3,322.9z M494,153.1c0,0.5-0.1,1-0.2,1.5l4.1,4.6c0.3,0,0.5,0.1,0.8,0.1c0.1-0.3,0.1-0.5,0.1-0.8
		L494,153.1z M298,169c-0.6-0.1-1.2-0.2-1.9-0.4l2.8,3.2c0.6,0.3,1.2,0.5,1.8,0.7c0.1,0,0.3,0.1,0.4,0.1L298,169z M494.1,150.7
		l5,5.6c0-0.6,0-1.1,0-1.7l-5.1-5.8C494,149.4,494.1,150,494.1,150.7 M629,178.5c-0.3,0.2-0.7,0.4-1,0.6l4,4.6
		c0.1,0,0.2-0.1,0.2-0.1c0.3-0.1,0.5-0.3,0.7-0.4L629,178.5z M314,161.7c-0.2,0.3-0.5,0.6-0.8,0.8l4.2,4.8c0.3-0.3,0.5-0.5,0.8-0.8
		L314,161.7z M624.6,101.5c-0.5,0-1,0-1.5,0l3.5,3.9c0.5,0,1.1,0.1,1.6,0.1L624.6,101.5z M420.3,167.3c-0.4,0.2-0.7,0.4-0.9,0.6
		l2.7,3.1c0,0,0,0,0,0c0.6,0.1,1.2,0.2,1.8,0.4L420.3,167.3z M301.8,169.1c-0.5,0.1-0.9,0.1-1.4,0.1l3.5,3.9c0.5,0.1,1,0.1,1.6,0.1
		L301.8,169.1z M354.8,135.7c-0.1,0.1-0.3,0.2-0.4,0.2c0.3,0.8,0.6,1.5,0.9,2.1l1.7,1.9c0.5,0.3,1.1,0.4,1.7,0.2L354.8,135.7z
		 M366.8,128.1c-0.5-0.1-1-0.1-1.6-0.1l3.7,4.2c0.4-0.2,0.7-0.2,1.1-0.2c0.1,0,0.1,0,0.2,0L366.8,128.1z M168.4,130.2
		c0-0.6,0.1-1.1,0.1-1.5l-4.8-5.5c0,0.4-0.1,0.7-0.1,1.1c0,0.1,0,0.3,0,0.4L168.4,130.2z M357,134c-0.3,0.2-0.6,0.5-0.8,0.7l4.2,4.7
		c0.2-0.1,0.3-0.2,0.5-0.4c0.1-0.1,0.3-0.2,0.4-0.3L357,134z M632.3,97.5c-0.2,0.3-0.5,0.6-0.7,0.9l4.2,4.8c0.3-0.2,0.6-0.5,0.8-0.8
		L632.3,97.5z M219.4,77.7c0.2-0.3,0.5-0.6,0.8-0.8l-4.2-4.8c-0.3,0.3-0.5,0.5-0.8,0.8L219.4,77.7z M444.6,39.6
		c0.4-0.2,0.7-0.4,1.1-0.5l-3.9-4.4c-0.3,0.1-0.6,0.2-0.8,0.3c-0.1,0-0.2,0.1-0.3,0.1L444.6,39.6z M438.1,45
		c0.3-0.3,0.5-0.6,0.8-0.8l-4.2-4.8c-0.3,0.3-0.5,0.5-0.8,0.8L438.1,45z M217.7,80c0.2-0.3,0.4-0.7,0.7-1l-4.3-4.9
		c-0.2,0.2-0.4,0.4-0.5,0.6c-0.1,0.1-0.1,0.2-0.2,0.3L217.7,80z M478.4,97.4c-0.1,0.4-0.3,0.8-0.5,1.2l4.5,5.1
		c0.2-0.4,0.3-0.8,0.5-1.2L478.4,97.4z M261.6,87.2c0.1-0.4,0.2-0.8,0.4-1.3l-4.6-5.2c-0.1,0.4-0.2,0.7-0.3,1.1c0,0.1,0,0.1-0.1,0.2
		L261.6,87.2z M525.8,42.4c0.2-0.4,0.3-0.8,0.5-1.2l-4-4.5c-0.3,0-0.5-0.1-0.8-0.1c-0.1,0.2-0.2,0.4-0.3,0.7L525.8,42.4z
		 M590.7,60.6c0.2-0.3,0.5-0.5,0.8-0.8l-4-4.5c0,0-0.1,0-0.1,0c-0.3,0.1-0.6,0.3-0.9,0.5L590.7,60.6z M588.9,62.8
		c0.3-0.3,0.6-0.6,0.8-0.8l-4.3-4.9c-0.2,0.2-0.3,0.4-0.3,0.4s-0.2,0.2-0.4,0.5L588.9,62.8z M586.9,64.8c0.3-0.3,0.6-0.5,0.8-0.8
		l-4.2-4.8c-0.2,0.3-0.5,0.5-0.8,0.8L586.9,64.8z M526.9,39.4c0.1-0.2,0.1-0.4,0.1-0.5c0-0.4,0-0.9-0.2-1.3l-0.5-0.5
		c-0.1,0-0.1-0.1-0.2-0.1c-0.3,0-0.8-0.1-1.5-0.1L526.9,39.4z M559,137.5c-0.5-0.1-1.2-0.2-1.8-0.3l3.1,3.5c0.7,0.2,1.4,0.4,2,0.5
		L559,137.5z M368.6,97.9l4.7,5.3c0.1-0.4,0.2-0.9,0.3-1.3l-4.7-5.3C368.8,97,368.7,97.4,368.6,97.9 M396.5,142.1
		c0.4-0.1,0.8-0.2,1.2-0.4l-3.8-4.3c-0.4,0.1-0.8,0.2-1.2,0.3L396.5,142.1z M395.4,126.5l-3.5-3.9c-0.4,0-0.9,0-1.3-0.1
		c0,0.1,0,0.1,0,0.2l3.2,3.6C394.3,126.4,394.8,126.4,395.4,126.5 M455,76.8c0.1-0.5,0.2-0.9,0.3-1.4l-4.7-5.3
		c-0.1,0.4-0.2,0.9-0.3,1.3L455,76.8z M396.9,136.6c-0.4,0.1-0.8,0.2-1.2,0.3l3.8,4.3c0.4-0.1,0.8-0.2,1.2-0.3L396.9,136.6z
		 M403,135.1c-0.4,0.1-0.8,0.2-1.2,0.3l3.8,4.3c0.1,0,0.1,0,0.2,0c0.4-0.1,0.7-0.2,1.1-0.3L403,135.1z M399.9,135.8
		c-0.4,0.1-0.8,0.2-1.2,0.3l3.8,4.3c0.4-0.1,0.8-0.2,1.2-0.3L399.9,135.8z M397.7,126.6c0.5,0,1,0,1.5,0l-3.7-4.1
		c-0.4,0.1-0.8,0.1-1.4,0.1L397.7,126.6z M403.3,120.1c0.1-0.4,0.3-0.8,0.4-1.2l-4.6-5.2c-0.1,0.4-0.3,0.8-0.4,1.2L403.3,120.1z
		 M401.2,126.2c0,0,0.1,0,0.1-0.1c0,0,0.2-0.4,0.4-1.1l-4.6-5.2c-0.2,0.5-0.3,0.9-0.4,1.2L401.2,126.2z M406.2,134.4
		c-0.4,0.1-0.8,0.2-1.3,0.3l3.8,4.3c0.4-0.1,0.8-0.2,1.3-0.3L406.2,134.4z M402.3,123.2c0.1-0.4,0.3-0.8,0.4-1.2l-4.6-5.2
		c-0.1,0.4-0.3,0.8-0.4,1.2L402.3,123.2z M400.1,110.6c-0.1,0.4-0.3,0.8-0.4,1.2l4.6,5.2c0.1-0.4,0.3-0.8,0.4-1.2L400.1,110.6z
		 M416.4,84.1c0.2-0.4,0.3-0.8,0.5-1.2l-4.5-5.1c-0.2,0.4-0.3,0.8-0.5,1.1L416.4,84.1z M454.4,97.4c-0.1-0.7-0.2-1.4-0.3-2.1
		l-5.2-5.9c0.1,0.7,0.1,1.3,0.2,1.9L454.4,97.4z M409.3,133.8c-0.4,0.1-0.9,0.2-1.3,0.2l3.8,4.2c0.4-0.1,0.9-0.2,1.3-0.2
		L409.3,133.8z M453.7,88.1c0-0.4,0-0.9,0-1.4c0-0.1,0-0.2,0-0.3l-4.9-5.5c0,0.5-0.1,1-0.1,1.6L453.7,88.1z M456.5,103.9
		c-0.4-0.9-0.8-1.9-1.2-3l-5.6-6.4c0.2,0.9,0.4,1.7,0.7,2.4L456.5,103.9z M454.4,80.4c0.1-0.5,0.1-1,0.2-1.5l-4.8-5.4
		c-0.1,0.5-0.2,0.9-0.2,1.4L454.4,80.4z M454,84.1c0-0.5,0.1-1,0.2-1.5l-4.8-5.5c-0.1,0.5-0.1,1-0.2,1.5L454,84.1z M454.9,104.7
		l-2-2.2C453.6,103.4,454.2,104.1,454.9,104.7 M414.3,73.3l4.5,5.1c0.2-0.4,0.3-0.8,0.5-1.1l-4.5-5.1
		C414.7,72.5,414.5,72.9,414.3,73.3 M417.6,81.2c0.2-0.4,0.3-0.8,0.5-1.1l-4.5-5.1c-0.2,0.4-0.3,0.8-0.5,1.1L417.6,81.2z
		 M467.3,118.8l-3.8-4.3c-0.4,0.1-0.8,0.2-1.2,0.3l3.7,4.2C466.5,118.9,466.9,118.8,467.3,118.8 M457.3,117.6c0.7,0.2,1.3,0.4,2,0.6
		l-3.2-3.6c-0.6-0.1-1.3-0.3-1.9-0.4L457.3,117.6z M450.2,113.8c1.1,0.8,2.2,1.6,3.5,2.2l-2.5-2.8c-0.9-0.4-1.8-0.8-2.6-1.2
		L450.2,113.8z M433.7,131.6c-0.5,0-1,0-1.5,0l3.5,4c0.5,0,1,0,1.5,0L433.7,131.6z M454.9,134.4c-0.6-0.2-1.3-0.3-1.9-0.5l3.2,3.6
		c0.6,0.1,1.3,0.3,1.9,0.4L454.9,134.4z M409.5,84.8l4.5,5.1c0.2-0.4,0.3-0.8,0.5-1.2l-4.5-5.1C409.8,84,409.7,84.4,409.5,84.8
		 M411.2,80.7c-0.2,0.4-0.3,0.8-0.5,1.2l4.5,5.1c0.2-0.4,0.3-0.8,0.5-1.2L411.2,80.7z M392.2,56.8l4.7,5.3c0.1-0.4,0.2-0.9,0.3-1.4
		l-4.7-5.3C392.4,55.9,392.3,56.3,392.2,56.8 M445.7,132.5c-0.6-0.1-1.1-0.2-1.7-0.2l3.4,3.8c0.6,0.1,1.1,0.1,1.7,0.2L445.7,132.5z
		 M450.1,133.2c-0.6-0.1-1.2-0.2-1.8-0.3l3.3,3.7c0.6,0.1,1.2,0.2,1.8,0.3L450.1,133.2z M395.9,69.4c0-0.5,0.1-1,0.1-1.6l-4.8-5.5
		c-0.1,0.5-0.1,1-0.2,1.5L395.9,69.4z M469.2,88.6c0-0.5,0.1-1,0.1-1.6l-2-2.3c-0.5,0.1-1,0.2-1.3,0.3L469.2,88.6z M397.9,88.6
		C397.9,88.6,397.9,88.6,397.9,88.6c-0.1-0.7-0.2-1.3-0.3-2l-5.3-6c0.1,0.7,0.2,1.3,0.3,2L397.9,88.6z M396.5,78.5
		c0-0.1,0-0.1,0-0.2c-0.1-0.6-0.2-1.2-0.3-1.8l-5.2-5.9c0,0.6,0.1,1.3,0.2,1.9L396.5,78.5z M396.3,65.6c0.1-0.5,0.1-1,0.2-1.4
		l-4.8-5.4c-0.1,0.5-0.2,0.9-0.3,1.4L396.3,65.6z M395.9,73.6c0-0.6,0-1.2,0-1.7l-5-5.6c0,0.6,0,1.1,0,1.7L395.9,73.6z M441.5,132
		c-0.5-0.1-1.1-0.1-1.6-0.1l3.4,3.9c0.5,0,1.1,0.1,1.6,0.1L441.5,132z M410.7,98.8c0.1-0.4,0.3-0.8,0.4-1.2l-4.6-5.2
		c-0.2,0.4-0.3,0.8-0.4,1.2L410.7,98.8z M426.3,131.7c-0.5,0-0.9,0.1-1.4,0.1l3.6,4.1c0.5,0,0.9-0.1,1.4-0.1L426.3,131.7z
		 M437.5,131.7c-0.5,0-1,0-1.6-0.1l3.5,4c0.5,0,1,0,1.5,0L437.5,131.7z M411.8,95.8c0.1-0.4,0.3-0.8,0.4-1.2l-4.6-5.2
		c-0.2,0.4-0.3,0.8-0.5,1.2L411.8,95.8z M422.7,131.9c-0.5,0-0.9,0.1-1.4,0.1l3.7,4.1c0.5,0,0.9-0.1,1.4-0.1L422.7,131.9z
		 M419.3,132.3c-0.5,0.1-0.9,0.1-1.4,0.2l3.7,4.2c0.4-0.1,0.9-0.1,1.3-0.2L419.3,132.3z M415.9,132.7c-0.4,0.1-0.9,0.1-1.3,0.2
		l3.7,4.2c0.4-0.1,0.9-0.1,1.3-0.2L415.9,132.7z M429.9,131.6c-0.5,0-1,0-1.5,0l3.6,4.1c0.5,0,1,0,1.4-0.1L429.9,131.6z
		 M407.4,107.9c0.1-0.4,0.3-0.8,0.4-1.2l-4.6-5.2c-0.1,0.4-0.3,0.8-0.4,1.2L407.4,107.9z M408.5,104.8c0.1-0.4,0.3-0.8,0.4-1.2
		l-4.6-5.2c-0.1,0.4-0.3,0.8-0.4,1.2L408.5,104.8z M409.6,101.8c0.1-0.4,0.3-0.8,0.4-1.2l-4.6-5.2c-0.1,0.4-0.3,0.8-0.4,1.2
		L409.6,101.8z M408.8,86.6c-0.2,0.4-0.3,0.8-0.5,1.2l4.6,5.1c0.2-0.4,0.3-0.8,0.5-1.2L408.8,86.6z M412.6,133.2
		c-0.4,0.1-0.9,0.1-1.3,0.2l3.7,4.2c0.4-0.1,0.9-0.1,1.3-0.2L412.6,133.2z M397.2,83.6c-0.1-0.7-0.2-1.4-0.3-2l-5.3-6
		c0.1,0.6,0.2,1.3,0.3,2L397.2,83.6z M564.6,135.4C564.6,135.4,564.6,135.4,564.6,135.4c-0.3,0.3-0.5,0.5-0.8,0.8l4.1,4.6
		c0.3-0.2,0.6-0.4,0.9-0.7L564.6,135.4z M567.9,134.9c-0.3,0.2-0.7,0.3-1.1,0.5l3.1,3.5c0.2-0.3,0.5-0.6,0.7-0.9L567.9,134.9z
		 M570,133.1c-0.2,0.3-0.5,0.6-0.8,0.8l2.3,2.6c0.2-0.4,0.4-0.7,0.5-1.1L570,133.1z M571.8,130.8c-0.2,0.3-0.4,0.6-0.7,0.9l1.7,1.9
		c0.2-0.5,0.3-1,0.4-1.3L571.8,130.8z M396.9,91.7c0.1-0.4,0.3-0.8,0.4-1.2l-4.2-4.8c0.1,0.7,0.2,1.3,0.3,2L396.9,91.7z
		 M554.1,136.3c-0.7-0.2-1.4-0.5-2.2-0.8l2.8,3.1c0.8,0.3,1.5,0.6,2.3,0.9L554.1,136.3z M548.5,134.2c-0.8-0.3-1.6-0.7-2.4-1
		l2.6,2.9c0.8,0.4,1.6,0.7,2.5,1.1L548.5,134.2z M553.1,88.5c-0.2,0.3-0.5,0.6-0.7,0.9l4.4,5c0.2-0.3,0.4-0.7,0.6-1L553.1,88.5z
		 M550.5,102.5c-0.2,0.3-0.4,0.6-0.6,1l4.4,5c0.2-0.3,0.4-0.7,0.6-1L550.5,102.5z M575,109.1c-0.3-0.2-0.6-0.4-0.9-0.6
		c0.5,0.4,0.9,0.8,1.4,1.3L575,109.1z M551.5,91c-0.1,0.3-0.2,0.5-0.4,0.8c0,0.1-0.1,0.2-0.1,0.4l4.7,5.3c0-0.4,0.2-0.9,0.3-1.3
		L551.5,91z M557.8,102.3c-0.4-0.3-0.9-0.8-1.3-1.5l-5.8-6.5c0,1.1,0.4,2,0.9,2.7l1.1,1.2c0.4,0.3,0.6,0.5,0.6,0.5s0,0-0.1,0.1
		l4.3,4.9c0.3-0.4,0.6-0.7,0.7-0.9L557.8,102.3z M552.1,100.1c-0.2,0.3-0.4,0.6-0.7,0.9l4.4,4.9c0.2-0.3,0.4-0.7,0.7-0.9
		L552.1,100.1z M555.1,86.5c-0.3,0.2-0.5,0.5-0.8,0.8l4.2,4.8c0.3-0.3,0.5-0.6,0.8-0.8L555.1,86.5z M494.8,115.9
		c-0.6-0.1-1.2-0.2-1.7-0.2l3.4,3.8c0.5,0,1.1,0.1,1.6,0.2L494.8,115.9z M474.4,105.6c-0.2,0.3-0.4,0.7-0.6,1l4.3,4.9
		c0.2-0.3,0.5-0.6,0.7-0.9L474.4,105.6z M499.3,116.8c-0.6-0.2-1.3-0.3-1.9-0.4l3.3,3.7c0.6,0.1,1.2,0.2,1.8,0.3L499.3,116.8z
		 M509.3,119.5c-0.7-0.2-1.3-0.4-2-0.6l3,3.4c0.7,0.2,1.4,0.4,2,0.6L509.3,119.5z M467.4,95.1c0.3-0.1,0.6-0.3,0.9-0.4
		c0-0.1,0-0.1,0-0.2l-4-4.5c-0.3,0.2-0.6,0.4-1,0.6L467.4,95.1z M468.7,92.4c0.1-0.5,0.1-1,0.2-1.5l-3.1-3.5c0,0.5-0.1,1-0.3,1.4
		L468.7,92.4z M542.3,131.4c-0.9-0.4-1.8-0.8-2.6-1.2l2.4,2.7c0.8,0.4,1.7,0.8,2.6,1.3L542.3,131.4z M514.4,121
		c-0.7-0.2-1.3-0.4-2.1-0.6l3,3.4c0.7,0.2,1.4,0.4,2,0.6L514.4,121z M524.5,115.5c-0.1,0.5-0.1,1-0.2,1.5l4.8,5.4
		c0.1-0.5,0.2-0.9,0.2-1.4L524.5,115.5z M455.8,73.4c0.1-0.4,0.2-0.9,0.4-1.3l-4.6-5.2c-0.1,0.4-0.3,0.8-0.4,1.3L455.8,73.4z
		 M523.9,119.1c-0.1,0.5-0.2,1-0.3,1.4l4.7,5.3c0.1-0.4,0.2-0.9,0.3-1.4L523.9,119.1z M519.7,122.8c-0.6-0.2-1.4-0.5-2.2-0.8
		l2.9,3.3c0.8,0.2,1.5,0.5,2.1,0.7L519.7,122.8z M537.7,130.4c0,0.1,0,0.2,0,0.2s0.1,0.1,0.4,0.2L537.7,130.4z M509.8,92.1
		c0.1-0.4,0.2-0.9,0.4-1.3l-4.6-5.2c-0.1,0.4-0.3,0.8-0.4,1.2L509.8,92.1z M478.6,56.8l4.5,5c0.2-0.3,0.4-0.7,0.6-1.1l-4.5-5.1
		C478.9,56.1,478.8,56.5,478.6,56.8 M510.8,89c0.2-0.4,0.3-0.8,0.5-1.1l-4.5-5.1c-0.2,0.3-0.4,0.7-0.5,1.1L510.8,89z M515,68.3
		c0.1-0.4,0.3-0.8,0.4-1.2l-4.6-5.2c-0.2,0.4-0.3,0.8-0.4,1.2L515,68.3z M515.5,81.6c-0.1-0.4-0.5-1.3-0.8-2.6l-5.4-6.1
		c0.1,0.8,0.3,1.5,0.4,2.2L515.5,81.6z M467.4,52.7c0.3-0.3,0.6-0.5,0.8-0.7l-4.1-4.7c-0.3,0.2-0.6,0.4-0.9,0.7L467.4,52.7z
		 M512.1,86.3c0.2-0.4,0.4-0.7,0.6-1l-4.4-4.9c-0.2,0.3-0.4,0.6-0.6,1L512.1,86.3z M457.8,67.2c0.2-0.4,0.3-0.8,0.5-1.2l-4.5-5.1
		c-0.2,0.4-0.3,0.7-0.5,1.1L457.8,67.2z M463.6,56.9c0.2-0.3,0.5-0.6,0.7-0.9l-4.3-4.8c-0.2,0.3-0.5,0.6-0.7,0.9L463.6,56.9z
		 M456.7,70.3c0.1-0.4,0.3-0.8,0.4-1.2l-4.6-5.2c-0.1,0.4-0.3,0.8-0.4,1.2L456.7,70.3z M459,64.4c0.2-0.4,0.4-0.7,0.5-1.1l-4.5-5
		c-0.2,0.3-0.4,0.7-0.6,1.1L459,64.4z M461.9,59.2c0.2-0.3,0.4-0.6,0.7-1l-4.3-4.9c-0.2,0.3-0.5,0.6-0.7,0.9L461.9,59.2z
		 M460.4,61.7c0.2-0.3,0.4-0.7,0.6-1l-4.4-5c-0.2,0.3-0.4,0.7-0.6,1L460.4,61.7z M517.2,62.4c0.2-0.4,0.3-0.8,0.5-1.2l-4.5-5.1
		c-0.2,0.4-0.3,0.8-0.5,1.2L517.2,62.4z M562.6,88.2c0.1,0,0.1-0.1,0.2-0.2c0.1-0.3,0.2-0.7,0.3-1l-4.5-5c0,0.4-0.1,0.9-0.2,1.2
		c0,0-0.1,0.1-0.1,0.1L562.6,88.2z M518.8,42.9l4.5,5.1c0.1-0.3,0.2-0.5,0.2-0.5s0.1-0.2,0.3-0.6l-4.5-5.1
		C519.1,42.3,518.9,42.7,518.8,42.9 M560.5,90.1c0.3-0.3,0.6-0.5,0.9-0.7l-4.2-4.7c-0.3,0.2-0.5,0.5-0.9,0.7L560.5,90.1z
		 M640.7,166.3c0.3,0.5,0.7,1,1.2,1.4L640.7,166.3z M591.8,119.5c-1.1-0.7-2.2-1.4-3.3-2l1.9,2.1c1.1,0.6,2.1,1.3,3.2,1.9
		L591.8,119.5z M559.1,80l4.5,5.1c-0.1-1-0.5-2-0.6-2.4l-0.3-0.4L559.1,80z M518.4,59.5c0.2-0.4,0.3-0.8,0.5-1.2l-4.5-5.1
		c-0.2,0.4-0.3,0.8-0.5,1.1L518.4,59.5z M583.7,114.6c-1.1-0.7-2.2-1.3-3.3-2l1.6,1.9c1.1,0.7,2.3,1.5,3.4,2.2L583.7,114.6z
		 M522.1,50.9c0.2-0.4,0.3-0.8,0.5-1.1l-4.5-5.1c-0.1,0.3-0.3,0.7-0.5,1.1L522.1,50.9z M516.1,65.3c0.1-0.4,0.3-0.8,0.5-1.2L512,59
		c-0.2,0.4-0.3,0.8-0.5,1.2L516.1,65.3z M519.6,56.6c0.2-0.4,0.3-0.8,0.5-1.1l-4.5-5.1c-0.2,0.4-0.3,0.8-0.5,1.1L519.6,56.6z
		 M520.8,53.7c0.2-0.4,0.3-0.8,0.5-1.1l-4.5-5.1c-0.2,0.4-0.3,0.7-0.5,1.1L520.8,53.7z M630.4,99.5c-0.3,0.2-0.6,0.4-1,0.6l4,4.5
		c0.4-0.1,0.7-0.3,1.1-0.5L630.4,99.5z M277.2,293.9c-0.3,0.2-0.6,0.4-1,0.6l4,4.6c0.3-0.2,0.7-0.4,1-0.6L277.2,293.9z M279.6,292.3
		c-0.3,0.2-0.6,0.4-0.9,0.6l4.1,4.6c0.3-0.2,0.6-0.4,0.9-0.6L279.6,292.3z M266.3,298.5c-0.4,0.1-0.8,0.2-1.3,0.3l3.7,4.2
		c0.4-0.1,0.9-0.1,1.3-0.2L266.3,298.5z M269.3,297.7c-0.4,0.1-0.8,0.3-1.2,0.4l3.8,4.3c0.4-0.1,0.8-0.2,1.2-0.3L269.3,297.7z
		 M281.8,290.6c-0.3,0.2-0.6,0.5-0.9,0.7l4.1,4.7c0.3-0.2,0.6-0.5,0.9-0.7L281.8,290.6z M272.1,296.6c-0.4,0.2-0.7,0.3-1.1,0.5
		l3.9,4.4c0.4-0.1,0.8-0.3,1.1-0.4L272.1,296.6z M274.8,295.3c-0.3,0.2-0.7,0.4-1,0.5l4,4.5c0.4-0.2,0.7-0.3,1.1-0.5L274.8,295.3z
		 M291,279.8c-0.2,0.3-0.4,0.7-0.6,1l4.4,4.9c0.2-0.3,0.4-0.6,0.6-1L291,279.8z M283.8,288.7c-0.3,0.3-0.5,0.5-0.8,0.8l4.2,4.7
		c0.3-0.2,0.6-0.5,0.8-0.8L283.8,288.7z M289.4,282.2c-0.2,0.3-0.4,0.6-0.7,0.9l4.3,4.9c0.2-0.3,0.5-0.6,0.7-0.9L289.4,282.2z
		 M292.5,277.2c-0.2,0.4-0.4,0.7-0.6,1l4.4,5c0.2-0.3,0.4-0.7,0.6-1L292.5,277.2z M287.7,284.5c-0.2,0.3-0.5,0.6-0.7,0.9l4.3,4.8
		c0.3-0.3,0.5-0.6,0.7-0.9L287.7,284.5z M285.8,286.6c-0.3,0.3-0.5,0.6-0.8,0.8l4.2,4.8c0.3-0.3,0.5-0.5,0.8-0.8L285.8,286.6z
		 M293.8,274.5c-0.2,0.4-0.4,0.7-0.5,1.1l4.5,5.1c0.2-0.4,0.4-0.7,0.5-1.1L293.8,274.5z M155.4,207.1c-0.1,0.5-0.1,1-0.2,1.4
		l4.8,5.4c0.1-0.5,0.2-1,0.2-1.4L155.4,207.1z M153,221.3c-0.1,0.5-0.2,0.9-0.3,1.4l4.7,5.4c0.1-0.5,0.2-0.9,0.3-1.4L153,221.3z
		 M156.5,199.8c-0.1,0.5-0.1,1-0.2,1.5l4.8,5.4c0.1-0.5,0.1-1,0.2-1.5L156.5,199.8z M154.8,210.7c-0.1,0.5-0.2,1-0.2,1.4l4.8,5.4
		c0.1-0.5,0.2-0.9,0.2-1.4L154.8,210.7z M154.2,214.2c-0.1,0.5-0.2,0.9-0.2,1.4l4.8,5.4c0.1-0.5,0.2-0.9,0.3-1.4L154.2,214.2z
		 M153.6,217.8c-0.1,0.5-0.2,0.9-0.3,1.4l4.8,5.4c0.1-0.5,0.2-0.9,0.3-1.4L153.6,217.8z M157,196.2c-0.1,0.5-0.1,1-0.2,1.5l4.8,5.4
		c0.1-0.5,0.1-1,0.2-1.5L157,196.2z M255.6,299.1c-0.6-0.1-1.2-0.2-1.8-0.3l3.2,3.6c0.6,0.2,1.2,0.3,1.9,0.4L255.6,299.1z
		 M263.1,299.1c-0.5,0.1-0.9,0.1-1.4,0.1l3.6,4.1c0.5,0,1,0,1.4-0.1L263.1,299.1z M259.6,299.4c-0.5,0-1,0-1.5,0l3.5,3.9
		c0.5,0.1,1.1,0.1,1.6,0.1L259.6,299.4z M245,295.7c-0.9-0.5-1.8-1-2.8-1.6c1.5,1.4,3,2.6,4.6,3.7L245,295.7z M251,298.1
		c-0.7-0.2-1.4-0.5-2.1-0.7l2.7,3c0.8,0.4,1.6,0.7,2.4,1L251,298.1z M156,203.5c-0.1,0.5-0.1,1-0.2,1.4l4.8,5.4
		c0.1-0.5,0.1-1,0.2-1.4L156,203.5z M315.9,223.2c-0.4,0-0.8,0-1.2,0.1c0,0-0.1,0.1-0.1,0.1l4.3,4.8c0.3-0.3,0.5-0.6,0.7-0.9
		L315.9,223.2z M320.3,223.9c-0.7-0.3-1.3-0.5-2.1-0.6l2.5,2.8c0.3-0.3,0.6-0.6,0.8-0.8L320.3,223.9z M313.5,224.7
		c-0.2,0.3-0.5,0.6-0.7,0.9l4.3,4.9c0.2-0.3,0.5-0.6,0.7-0.9L313.5,224.7z M325.8,196.2c-0.2,0.4-0.3,0.8-0.4,1.2l0.5,0.5
		c0.2-0.4,0.3-0.7,0.5-1.1L325.8,196.2z M295,271.6c-0.2,0.4-0.3,0.8-0.5,1.2l4.5,5.1c0.2-0.4,0.3-0.8,0.5-1.1L295,271.6z
		 M245.1,134.6c-0.2,0.4-0.3,0.7-0.5,1.1l4.5,5.1c0.2-0.4,0.3-0.8,0.5-1.1L245.1,134.6z M310.1,229.4c-0.2,0.3-0.4,0.7-0.6,1l4.4,5
		c0.2-0.4,0.4-0.7,0.6-1L310.1,229.4z M250.6,124c-0.2,0.3-0.4,0.7-0.6,1l4.4,5c0.2-0.4,0.4-0.7,0.6-1L250.6,124z M323.7,202.3
		c-0.1,0.5-0.2,1-0.3,1.3l0.1,0.1c0.1-0.3,0.2-0.7,0.4-1.2L323.7,202.3z M324.7,199.2c-0.1,0.4-0.3,0.9-0.4,1.2l0.3,0.3
		c0.1-0.4,0.3-0.7,0.5-1.2L324.7,199.2z M246.4,131.9c-0.2,0.4-0.3,0.7-0.5,1.1l4.5,5.1c0.2-0.4,0.3-0.7,0.5-1.1L246.4,131.9z
		 M249.2,126.5c-0.2,0.3-0.4,0.7-0.6,1l4.5,5c0.2-0.4,0.4-0.7,0.6-1.1L249.2,126.5z M247.7,129.2c-0.2,0.3-0.4,0.7-0.5,1.1l4.5,5.1
		c0.2-0.4,0.4-0.7,0.5-1.1L247.7,129.2z M308.6,231.9c-0.2,0.3-0.4,0.7-0.6,1l4.5,5c0.2-0.4,0.4-0.7,0.6-1.1L308.6,231.9z
		 M300.3,252.2c-0.1,0.4-0.3,0.8-0.4,1.3l4.6,5.2c0.1-0.4,0.2-0.9,0.4-1.3L300.3,252.2z M298.5,258.6c-0.1,0.4-0.2,0.9-0.3,1.3
		l4.7,5.3c0.1-0.5,0.2-0.9,0.3-1.3L298.5,258.6z M299.4,255.3c-0.1,0.4-0.2,0.9-0.4,1.3l4.7,5.3c0.1-0.4,0.2-0.9,0.3-1.3
		L299.4,255.3z M297.7,261.9c-0.1,0.4-0.2,0.9-0.3,1.3l4.7,5.3c0.1-0.5,0.2-0.9,0.3-1.3L297.7,261.9z M296.9,265.3
		c-0.1,0.4-0.2,0.9-0.3,1.3l4.7,5.3c0.1-0.4,0.2-0.9,0.4-1.3L296.9,265.3z M296,268.5c-0.1,0.4-0.3,0.8-0.4,1.3l4.6,5.2
		c0.1-0.4,0.3-0.8,0.4-1.2L296,268.5z M301.3,249c-0.1,0.4-0.3,0.8-0.4,1.2l4.6,5.2c0.1-0.4,0.3-0.8,0.4-1.3L301.3,249z
		 M304.6,240.1c-0.2,0.4-0.3,0.8-0.5,1.2l4.5,5.1c0.2-0.4,0.3-0.8,0.5-1.2L304.6,240.1z M305.9,237.3c-0.2,0.4-0.3,0.7-0.5,1.1
		l4.5,5.1c0.2-0.4,0.3-0.8,0.5-1.1L305.9,237.3z M302.3,246c-0.1,0.4-0.3,0.8-0.4,1.2l4.6,5.2c0.1-0.4,0.3-0.8,0.4-1.2L302.3,246z
		 M307.2,234.5c-0.2,0.4-0.4,0.7-0.5,1.1l4.5,5.1c0.2-0.4,0.4-0.7,0.5-1.1L307.2,234.5z M303.5,243c-0.1,0.4-0.3,0.8-0.5,1.2
		l4.6,5.2c0.1-0.4,0.3-0.8,0.4-1.2L303.5,243z M311.8,226.9c-0.2,0.3-0.4,0.6-0.7,1l4.4,4.9c0.2-0.3,0.4-0.7,0.6-1L311.8,226.9z
		 M77.4,252.1c0.4-0.1,0.9-0.1,1.3-0.2l-3.8-4.3c-0.4,0.1-0.8,0.2-1.3,0.3L77.4,252.1z M80.6,251.5c0.4-0.1,0.8-0.2,1.2-0.3
		l-3.8-4.3c-0.4,0.1-0.8,0.2-1.2,0.3L80.6,251.5z M57,207.8c-0.4-0.9-0.7-1.9-1-2.8l-5.8-6.5c0.2,0.9,0.5,1.7,0.8,2.6L57,207.8z
		 M18.7,173c0.7,0.2,1.3,0.4,2,0.5l-3.3-3.7c-0.6-0.1-1.2-0.2-1.8-0.3L18.7,173z M84.8,250.2l-3.9-4.4c-0.4,0.2-0.7,0.3-1.1,0.4
		l3.9,4.4C84,250.5,84.4,250.3,84.8,250.2 M65.9,251.8c0.6,0.1,1.2,0.2,1.8,0.3l-3.4-3.8c-0.6-0.1-1.1-0.1-1.7-0.2L65.9,251.8z
		 M74,252.4c0.5,0,0.9-0.1,1.4-0.1l-3.7-4.1c-0.5,0.1-0.9,0.1-1.4,0.1L74,252.4z M113,307.6c-0.3,0.2-0.7,0.4-1,0.6l4,4.5
		c0.4-0.2,0.7-0.3,1.1-0.5L113,307.6z M115.5,306.1c-0.3,0.2-0.6,0.4-0.9,0.6l4,4.6c0.3-0.2,0.7-0.4,1-0.6L115.5,306.1z M60.9,250.4
		c0.7,0.2,1.4,0.5,2.1,0.7l-3.1-3.5c-0.6-0.1-1.3-0.3-1.9-0.5L60.9,250.4z M110.4,308.9c-0.4,0.2-0.7,0.3-1.1,0.5l3.9,4.4
		c0.4-0.1,0.8-0.3,1.1-0.4L110.4,308.9z M70.9,265.7c0.6,0.4,1.3,0.8,2,1.1c-0.3-0.4-0.5-0.8-0.7-1.1l-0.7-0.8
		C71.3,265.2,71.1,265.4,70.9,265.7 M54.6,247.5c0.9,0.5,1.8,1,2.8,1.5l-2.6-3c-0.8-0.3-1.6-0.7-2.4-1L54.6,247.5z M55.3,155
		c0.1-0.4,0.2-0.9,0.3-1.3l-4.7-5.3c-0.1,0.4-0.2,0.9-0.3,1.3L55.3,155z M54.6,158.4c0.1-0.5,0.2-0.9,0.3-1.4l-4.7-5.3
		c-0.1,0.5-0.2,0.9-0.3,1.4L54.6,158.4z M53.9,162c0.1-0.5,0.2-0.9,0.2-1.4l-4.7-5.4c-0.1,0.5-0.2,0.9-0.3,1.4L53.9,162z
		 M53.4,165.6c0.1-0.5,0.1-1,0.2-1.5l-4.8-5.4c-0.1,0.5-0.2,1-0.2,1.4L53.4,165.6z M53,169.3c0-0.5,0.1-1,0.2-1.5l-4.8-5.5
		c-0.1,0.5-0.1,1-0.2,1.5L53,169.3z M117.7,304.4c-0.3,0.2-0.6,0.5-0.9,0.7l4.1,4.6c0.3-0.2,0.6-0.4,0.9-0.7L117.7,304.4z
		 M56.2,151.7c0.1-0.4,0.2-0.9,0.4-1.3l-4.6-5.2c-0.1,0.4-0.3,0.9-0.4,1.3L56.2,151.7z M52.5,177.2c0-0.5,0-1.1,0.1-1.6l-4.9-5.6
		c0,0.5-0.1,1.1-0.1,1.6L52.5,177.2z M53,190.6c-0.1-0.6-0.1-1.3-0.2-1.9l-5.1-5.8c0,0.6,0.1,1.2,0.1,1.9L53,190.6z M53.7,195.6
		c-0.1-0.7-0.2-1.4-0.3-2.1l-5.3-5.9c0.1,0.7,0.2,1.3,0.3,2L53.7,195.6z M52.6,185.9c0-0.6-0.1-1.2-0.1-1.8l-5.1-5.7
		c0,0.6,0,1.2,0.1,1.8L52.6,185.9z M54.9,201.2c-0.2-0.8-0.4-1.5-0.6-2.3l-5.4-6.1c0.1,0.7,0.3,1.5,0.4,2.2L54.9,201.2z M52.7,173.2
		c0-0.5,0.1-1,0.1-1.6l-4.9-5.5c0,0.5-0.1,1-0.1,1.6L52.7,173.2z M150.9,231.7c-0.1,0.5-0.2,0.9-0.3,1.4l4.7,5.3
		c0.1-0.5,0.2-0.9,0.3-1.4L150.9,231.7z M145.1,254.7c-0.1,0.4-0.3,0.8-0.4,1.3l4.6,5.2c0.1-0.4,0.3-0.8,0.4-1.3L145.1,254.7z
		 M144.1,257.9c-0.1,0.4-0.3,0.8-0.4,1.3l4.6,5.2c0.1-0.4,0.3-0.8,0.4-1.2L144.1,257.9z M146,251.6c-0.1,0.4-0.2,0.8-0.4,1.3
		l4.6,5.2c0.1-0.4,0.2-0.8,0.4-1.3L146,251.6z M146.9,248.3c-0.1,0.4-0.2,0.9-0.4,1.3l4.7,5.3c0.1-0.4,0.2-0.9,0.4-1.3L146.9,248.3z
		 M143.1,261c-0.1,0.4-0.3,0.8-0.4,1.2l4.6,5.2c0.1-0.4,0.3-0.8,0.4-1.2L143.1,261z M142.1,264.1c-0.1,0.4-0.3,0.8-0.4,1.2l4.6,5.2
		c0.1-0.4,0.3-0.8,0.4-1.2L142.1,264.1z M57.1,148.5c0.1-0.4,0.3-0.8,0.4-1.3l-4.6-5.2c-0.1,0.4-0.3,0.8-0.4,1.2L57.1,148.5z
		 M150.1,235.1c-0.1,0.4-0.2,0.9-0.3,1.4l4.7,5.3c0.1-0.4,0.2-0.9,0.3-1.3L150.1,235.1z M141,267.1c-0.1,0.4-0.3,0.8-0.4,1.2
		l4.6,5.2c0.2-0.4,0.3-0.8,0.4-1.2L141,267.1z M151.6,228.2c-0.1,0.5-0.2,0.9-0.3,1.4l4.7,5.3c0.1-0.5,0.2-0.9,0.3-1.4L151.6,228.2z
		 M147.7,245.1c-0.1,0.4-0.2,0.9-0.3,1.3l4.7,5.3c0.1-0.4,0.2-0.9,0.3-1.3L147.7,245.1z M148.6,241.8c-0.1,0.4-0.2,0.9-0.3,1.3
		l4.7,5.3c0.1-0.4,0.2-0.9,0.3-1.3L148.6,241.8z M149.4,238.4c-0.1,0.4-0.2,0.9-0.3,1.3l4.7,5.3c0.1-0.4,0.2-0.9,0.3-1.3
		L149.4,238.4z M137.5,275.9c-0.2,0.4-0.3,0.7-0.5,1.1l4.5,5.1c0.2-0.4,0.3-0.7,0.5-1.1L137.5,275.9z M132.1,286.7
		c-0.2,0.3-0.4,0.7-0.6,1l4.4,5c0.2-0.3,0.4-0.7,0.6-1L132.1,286.7z M130.6,289.2c-0.2,0.3-0.4,0.7-0.6,1l4.4,5
		c0.2-0.3,0.4-0.7,0.6-1L130.6,289.2z M127.4,294.1c-0.2,0.3-0.5,0.6-0.7,0.9l4.3,4.9c0.2-0.3,0.5-0.6,0.7-0.9L127.4,294.1z
		 M129,291.7c-0.2,0.3-0.4,0.6-0.6,1l4.4,4.9c0.2-0.3,0.4-0.6,0.7-1L129,291.7z M125.6,296.4c-0.2,0.3-0.5,0.6-0.7,0.9l4.3,4.9
		c0.2-0.3,0.5-0.6,0.7-0.9L125.6,296.4z M123.8,298.6c-0.2,0.3-0.5,0.6-0.8,0.8l4.3,4.8c0.3-0.3,0.5-0.6,0.8-0.8L123.8,298.6z
		 M138.7,273c-0.2,0.4-0.3,0.8-0.5,1.1l4.5,5.1c0.2-0.4,0.3-0.8,0.5-1.1L138.7,273z M139.9,270.1c-0.2,0.4-0.3,0.8-0.5,1.2l4.5,5.1
		c0.2-0.4,0.3-0.8,0.5-1.2L139.9,270.1z M133.5,284.1c-0.2,0.4-0.4,0.7-0.6,1.1l4.4,5c0.2-0.3,0.4-0.7,0.6-1L133.5,284.1z
		 M119.9,302.6c-0.3,0.3-0.6,0.5-0.8,0.7l4.2,4.7c0.3-0.2,0.6-0.5,0.9-0.7L119.9,302.6z M134.9,281.4c-0.2,0.4-0.4,0.7-0.5,1.1
		l4.5,5c0.2-0.4,0.4-0.7,0.6-1.1L134.9,281.4z M136.2,278.7c-0.2,0.4-0.3,0.7-0.5,1.1l4.5,5.1c0.2-0.4,0.4-0.7,0.5-1.1L136.2,278.7z
		 M152.3,224.8c-0.1,0.5-0.2,0.9-0.3,1.4l4.7,5.3c0.1-0.5,0.2-0.9,0.3-1.4L152.3,224.8z M629.7,221.6c-0.5,0-1,0.1-1.4,0.1l3.6,4.1
		c0.5,0,1,0,1.4-0.1L629.7,221.6z M618.4,221.7c-0.5,0-1.1-0.1-1.6-0.1l3.4,3.9c0.5,0.1,1.1,0.1,1.6,0.1L618.4,221.7z M622.3,221.8
		c-0.5,0-1,0-1.5,0l3.5,3.9c0.5,0,1,0.1,1.6,0.1L622.3,221.8z M614.4,221.3c-0.6-0.1-1.1-0.1-1.7-0.2l3.4,3.8
		c0.6,0.1,1.1,0.2,1.7,0.2L614.4,221.3z M605.7,220c-0.4-0.1-0.8-0.2-1.2-0.2c-0.2,0-0.4-0.1-0.6-0.1l3.2,3.6
		c0.6,0.2,1.3,0.3,1.9,0.4L605.7,220z M610.1,220.8c-0.6-0.1-1.2-0.2-1.7-0.3l3.3,3.7c0.6,0.1,1.2,0.2,1.8,0.3L610.1,220.8z
		 M651.6,216.8c-0.4,0.1-0.8,0.3-1.1,0.4l3.6,4.1c0.4-0.1,0.7-0.3,1.1-0.4L651.6,216.8z M642.7,219.4c-0.4,0.1-0.8,0.2-1.2,0.3
		l3.8,4.3c0.4-0.1,0.8-0.2,1.2-0.3L642.7,219.4z M645.7,218.6c-0.4,0.1-0.8,0.2-1.2,0.3c0,0,0,0,0,0l3.8,4.3
		c0.4-0.1,0.8-0.2,1.2-0.4L645.7,218.6z M633.1,221.3c-0.5,0.1-0.9,0.1-1.4,0.2l3.7,4.1c0.5,0,0.9-0.1,1.4-0.1L633.1,221.3z
		 M648.7,217.8c-0.4,0.1-0.8,0.2-1.2,0.4l3.7,4.2c0.4-0.1,0.8-0.3,1.1-0.4L648.7,217.8z M636.4,220.8c-0.4,0.1-0.9,0.1-1.3,0.2
		l3.7,4.2c0.4-0.1,0.9-0.1,1.3-0.2L636.4,220.8z M639.6,220.2c-0.4,0.1-0.8,0.2-1.3,0.3l3.8,4.2c0.4-0.1,0.9-0.2,1.3-0.2
		L639.6,220.2z M510,171.2c-0.7-0.3-1.5-0.6-2.3-0.9l2.9,3.2c0.7,0.2,1.5,0.5,2.2,0.8L510,171.2z M537.3,185.1
		c-1.1-0.6-2.1-1.3-3.2-1.9l2,2.2c1,0.6,2.1,1.2,3.1,1.8L537.3,185.1z M545.6,190.2c-1.1-0.7-2.2-1.4-3.4-2.1l1.8,2
		c1.1,0.7,2.2,1.3,3.3,2L545.6,190.2z M529.6,180.6c-1-0.5-1.9-1.1-2.9-1.6l2.2,2.5c0.9,0.5,1.9,1,2.8,1.5L529.6,180.6z
		 M515.9,173.7c-0.8-0.4-1.6-0.7-2.4-1.1l2.7,3c0.8,0.3,1.6,0.6,2.4,1L515.9,173.7z M554.1,195.6c-1.1-0.7-2.3-1.4-3.4-2.2l1.7,1.9
		c1.1,0.7,2.3,1.4,3.4,2.2L554.1,195.6z M522.4,176.8c-0.9-0.4-1.8-0.9-2.7-1.3l2.5,2.8c0.9,0.4,1.7,0.8,2.6,1.2L522.4,176.8z
		 M562.5,200.9c-1.1-0.7-2.2-1.4-3.3-2.1l1.7,1.9c1.1,0.7,2.3,1.4,3.4,2.1L562.5,200.9z M596,217.5c-0.7-0.2-1.4-0.5-2.1-0.7
		l2.8,3.2c0.7,0.3,1.5,0.6,2.2,0.8L596,217.5z M584.5,213c-0.9-0.4-1.7-0.8-2.6-1.2l2.4,2.7c0.9,0.5,1.8,0.9,2.7,1.3L584.5,213z
		 M590.5,215.6c-0.8-0.3-1.6-0.6-2.3-0.9l2.6,3c0.8,0.4,1.6,0.7,2.4,1.1L590.5,215.6z M570.5,205.7c-1-0.6-2.1-1.2-3.1-1.8l1.9,2.1
		c1.1,0.7,2.1,1.3,3.2,1.9L570.5,205.7z M577.8,209.7c-0.9-0.5-1.9-1-2.8-1.5l2.1,2.4c1,0.6,2,1.1,3,1.6L577.8,209.7z M601.1,219
		c-0.7-0.2-1.3-0.4-2-0.5l3,3.4c0.7,0.2,1.3,0.4,2,0.6L601.1,219z M695.6,177.4c-0.2,0.3-0.4,0.7-0.6,1l0.5,0.6
		c0.2-0.4,0.4-0.7,0.5-1.1L695.6,177.4z M692.5,182.4c-0.2,0.3-0.4,0.6-0.6,1l0.9,1c0.2-0.3,0.4-0.7,0.6-1.1L692.5,182.4z
		 M694.1,180c-0.2,0.3-0.4,0.7-0.6,1l0.7,0.8c0.2-0.4,0.4-0.7,0.6-1.1L694.1,180z M690.9,184.8c-0.2,0.3-0.4,0.6-0.7,0.9l1.1,1.2
		c0.2-0.3,0.4-0.7,0.6-1L690.9,184.8z M689.2,187.2c-0.2,0.3-0.5,0.6-0.7,0.9l1.3,1.4c0.2-0.3,0.4-0.7,0.6-1L689.2,187.2z
		 M687.5,189.5c-0.2,0.3-0.5,0.6-0.7,0.9l1.4,1.6c0.2-0.3,0.4-0.6,0.6-1L687.5,189.5z M698.4,172.2c-0.2,0.3-0.4,0.7-0.5,1.1
		l0.2,0.2c0.2-0.4,0.3-0.8,0.5-1.1L698.4,172.2z M654.4,215.7c-0.4,0.2-0.7,0.3-1.1,0.4l3.5,4c0.4-0.2,0.7-0.3,1.1-0.5L654.4,215.7z
		 M631.3,79.4c0.5,1.1,1,2.2,1.4,3.3l5.8,6.5c-0.2-0.9-0.5-1.7-0.8-2.6L631.3,79.4z M628.7,73.9l6.2,7
		C633.3,78.2,631.1,75.8,628.7,73.9 M685.7,191.7c-0.2,0.3-0.5,0.6-0.7,0.9l1.6,1.8c0.2-0.3,0.4-0.6,0.7-1L685.7,191.7z
		 M699.7,169.4c-0.1,0.2-0.3,0.6-0.5,1.1l0,0C699.4,170.2,699.6,169.8,699.7,169.4L699.7,169.4z M697,174.9c-0.2,0.3-0.4,0.7-0.6,1
		l0.3,0.4c0.2-0.4,0.3-0.7,0.5-1.1L697,174.9z M634.2,91.1c0,0.5-0.1,1.1-0.1,1.6l4.8,5.4c0.1-0.5,0.2-0.9,0.3-1.4L634.2,91.1z
		 M669.4,207.3c-0.3,0.2-0.6,0.4-0.9,0.7l2.9,3.2c0.3-0.2,0.6-0.5,0.9-0.7L669.4,207.3z M667.1,208.9c-0.3,0.2-0.6,0.4-0.9,0.6
		l3,3.4c0.3-0.2,0.6-0.5,0.9-0.7L667.1,208.9z M662.3,211.9c-0.3,0.2-0.7,0.4-1,0.6l3.2,3.6c0.3-0.2,0.6-0.4,1-0.6L662.3,211.9z
		 M664.7,210.4c-0.3,0.2-0.6,0.4-1,0.6l3.1,3.5c0.3-0.2,0.6-0.4,0.9-0.6L664.7,210.4z M659.8,213.3c-0.3,0.2-0.7,0.3-1,0.5l3.3,3.8
		c0.3-0.2,0.7-0.4,1-0.6L659.8,213.3z M683.8,193.9c-0.2,0.3-0.5,0.6-0.7,0.9l1.8,2c0.2-0.3,0.5-0.6,0.7-0.9L683.8,193.9z
		 M657.1,214.6c-0.4,0.2-0.7,0.3-1.1,0.5l3.4,3.9c0.3-0.2,0.7-0.4,1-0.5L657.1,214.6z M682,196c-0.3,0.3-0.5,0.5-0.8,0.8l2,2.2
		c0.2-0.3,0.5-0.6,0.7-0.9L682,196z M680,198c-0.3,0.3-0.5,0.5-0.8,0.8l2.1,2.4c0.2-0.3,0.5-0.6,0.7-0.9L680,198z M676,201.9
		c-0.3,0.3-0.6,0.5-0.8,0.7l2.5,2.8c0.3-0.3,0.5-0.5,0.8-0.8L676,201.9z M671.7,205.6c-0.3,0.2-0.6,0.5-0.9,0.7l2.7,3.1
		c0.3-0.2,0.6-0.5,0.8-0.8L671.7,205.6z M678,200c-0.3,0.3-0.5,0.5-0.8,0.8l2.3,2.6c0.3-0.3,0.5-0.6,0.8-0.8L678,200z M346.6,164.6
		c-0.3,0.3-0.5,0.5-0.8,0.8l2.5,2.8c0.3-0.2,0.6-0.5,0.8-0.7L346.6,164.6z M364.1,150.5c-0.3,0.2-0.6,0.4-0.9,0.6l3.5,3.9
		c0.3-0.2,0.7-0.4,1-0.6L364.1,150.5z M361.8,152c-0.3,0.2-0.6,0.4-0.9,0.7l3.3,3.8c0.3-0.2,0.6-0.4,1-0.6L361.8,152z M357.2,155.4
		c-0.3,0.2-0.6,0.5-0.9,0.7l3.1,3.5c0.3-0.2,0.6-0.4,0.9-0.6L357.2,155.4z M359.5,153.7c-0.3,0.2-0.6,0.4-0.9,0.7l3.2,3.7
		c0.3-0.2,0.6-0.4,1-0.6L359.5,153.7z M352.8,158.9c-0.3,0.2-0.6,0.5-0.9,0.7l2.9,3.2c0.3-0.2,0.6-0.5,0.9-0.7L352.8,158.9z
		 M355,157.1c-0.3,0.2-0.6,0.5-0.9,0.7l3,3.4c0.3-0.2,0.6-0.4,0.9-0.7L355,157.1z M379.4,142.4c-0.4,0.1-0.7,0.3-1.1,0.5l3.9,4.4
		c0.4-0.2,0.7-0.3,1.1-0.4L379.4,142.4z M366.5,148.9c-0.3,0.2-0.7,0.4-1,0.6l3.6,4.1c0.3-0.2,0.7-0.4,1-0.6L366.5,148.9z
		 M376.7,143.5c-0.4,0.2-0.7,0.3-1.1,0.5l3.9,4.4c0.4-0.2,0.7-0.3,1.1-0.5L376.7,143.5z M504.5,169.2c-0.7-0.2-1.4-0.4-2.1-0.7
		l3,3.4c0.7,0.2,1.3,0.4,2,0.6L504.5,169.2z M374,144.7c-0.3,0.1-0.5,0.2-0.8,0.3c-0.1,0.1-0.2,0.1-0.3,0.2l3.9,4.5
		c0.4-0.2,0.7-0.3,1.1-0.5L374,144.7z M413.3,176.4c-0.8-0.3-1.6-0.6-2.4-1l2.5,2.8c0.8,0.4,1.7,0.8,2.6,1.2L413.3,176.4z
		 M368.9,147.4c-0.3,0.2-0.6,0.4-1,0.6l3.7,4.2c0.3-0.2,0.7-0.4,1-0.5L368.9,147.4z M371.4,146c-0.3,0.2-0.7,0.4-1,0.6l3.8,4.3
		c0.3-0.2,0.7-0.3,1-0.5L371.4,146z M348.7,162.7c-0.3,0.3-0.5,0.5-0.8,0.8l2.6,2.9c0.3-0.2,0.6-0.5,0.9-0.7L348.7,162.7z
		 M334.1,180.1c-0.2,0.3-0.4,0.7-0.6,1l1.5,1.7c0.2-0.3,0.5-0.6,0.7-0.9L334.1,180.1z M335.7,177.7c-0.2,0.3-0.4,0.6-0.7,0.9
		l1.6,1.8c0.2-0.3,0.5-0.6,0.7-0.9L335.7,177.7z M331,185.1c-0.2,0.3-0.4,0.7-0.6,1l1.2,1.3c0.2-0.3,0.4-0.6,0.6-1L331,185.1z
		 M329.6,187.7c-0.2,0.4-0.4,0.7-0.5,1.1l1,1.1c0.2-0.3,0.4-0.7,0.6-1L329.6,187.7z M328.2,190.5c-0.2,0.4-0.4,0.7-0.5,1.1l0.8,0.9
		c0.2-0.3,0.4-0.7,0.6-1L328.2,190.5z M332.5,182.6c-0.2,0.3-0.4,0.7-0.6,1l1.3,1.5c0.2-0.3,0.4-0.6,0.7-0.9L332.5,182.6z
		 M337.4,175.4c-0.2,0.3-0.5,0.6-0.7,0.9l1.8,2c0.2-0.3,0.5-0.6,0.7-0.9L337.4,175.4z M327,193.3c-0.2,0.4-0.3,0.8-0.5,1.1l0.7,0.7
		c0.2-0.3,0.4-0.7,0.6-1.1L327,193.3z M344.7,166.6c-0.3,0.3-0.5,0.6-0.8,0.8l2.3,2.6c0.3-0.3,0.5-0.5,0.8-0.8L344.7,166.6z
		 M339.1,173.1c-0.2,0.3-0.5,0.6-0.7,0.9l1.9,2.2c0.2-0.3,0.5-0.6,0.8-0.8L339.1,173.1z M340.9,170.9c-0.2,0.3-0.5,0.6-0.7,0.9
		l2.1,2.3c0.3-0.3,0.5-0.5,0.8-0.8L340.9,170.9z M350.7,160.8c-0.3,0.3-0.6,0.5-0.8,0.8l2.7,3.1c0.3-0.2,0.6-0.5,0.9-0.7
		L350.7,160.8z M479.2,174.5c-0.3,0.2-0.7,0.4-1,0.6l4,4.6c0.3-0.2,0.7-0.4,1-0.6L479.2,174.5z M481.5,172.9
		c-0.3,0.2-0.6,0.4-0.9,0.6l4.1,4.6c0.3-0.2,0.6-0.4,1-0.6L481.5,172.9z M476.7,175.9c-0.3,0.2-0.7,0.3-1,0.5l4,4.5
		c0.4-0.2,0.7-0.3,1.1-0.5L476.7,175.9z M483.7,171.2c-0.3,0.2-0.6,0.5-0.9,0.7l4.1,4.7c0.3-0.2,0.6-0.5,0.9-0.7L483.7,171.2z
		 M471.3,178.3c-0.4,0.1-0.8,0.3-1.1,0.4l3.9,4.4c0.4-0.1,0.8-0.2,1.2-0.4L471.3,178.3z M418.6,178.2c-0.7-0.2-1.4-0.4-2.1-0.6
		l2.9,3.3c0.7,0.2,1.4,0.5,2.1,0.7L418.6,178.2z M496.8,169c-0.1,0.2-0.3,0.4-0.4,0.6c-0.1,0.1-0.1,0.2-0.2,0.2
		c0.5,0.1,1.1,0.2,1.6,0.3L496.8,169z M468.4,179.3c-0.4,0.1-0.8,0.2-1.2,0.3l3.8,4.3c0.4-0.1,0.8-0.2,1.2-0.3L468.4,179.3z
		 M485.8,169.3c-0.3,0.3-0.5,0.5-0.8,0.8l4.2,4.8c0.3-0.2,0.6-0.5,0.8-0.8L485.8,169.3z M499.4,167.7c-0.5-0.1-1-0.3-1.5-0.4
		c0,0.1-0.1,0.2-0.1,0.2l2.8,3.2c0.6,0.1,1.3,0.3,1.9,0.5L499.4,167.7z M494.6,166.5c-0.6-0.1-1.2-0.3-1.8-0.4l3.5,3.7
		c0.2-0.3,0.4-0.5,0.6-0.9L494.6,166.5z M487.7,167.2c-0.2,0.3-0.5,0.6-0.8,0.8l4.3,4.8c0.3-0.3,0.5-0.5,0.8-0.8L487.7,167.2z
		 M489.5,165c-0.2,0.3-0.5,0.6-0.7,0.9l4.3,4.9c0.2-0.3,0.5-0.6,0.7-0.9L489.5,165z M474,177.2c-0.4,0.2-0.7,0.3-1.1,0.5l3.9,4.4
		c0.4-0.1,0.7-0.3,1.1-0.4L474,177.2z M436.7,181.7c-0.6-0.1-1.1-0.1-1.7-0.2l3.4,3.8c0.6,0.1,1.1,0.1,1.7,0.2L436.7,181.7z
		 M440.8,182c-0.5,0-1.1-0.1-1.6-0.1l3.4,3.9c0.5,0.1,1.1,0.1,1.6,0.1L440.8,182z M444.7,182.2c-0.5,0-1,0-1.5,0l3.5,3.9
		c0.5,0,1,0.1,1.6,0.1L444.7,182.2z M432.5,181.1c-0.6-0.1-1.2-0.2-1.7-0.3l3.3,3.7c0.6,0.1,1.2,0.2,1.8,0.3L432.5,181.1z
		 M423.5,179.5c-0.6-0.2-1.3-0.3-1.9-0.5l3.1,3.5c0.6,0.2,1.3,0.4,2,0.5L423.5,179.5z M428.1,180.4c-0.6-0.1-1.2-0.2-1.8-0.4
		l3.2,3.6c0.6,0.1,1.2,0.3,1.8,0.4L428.1,180.4z M452.1,182c-0.5,0-1,0-1.4,0.1l3.6,4.1c0.5,0,1,0,1.5-0.1L452.1,182z M459,181.3
		c-0.4,0.1-0.9,0.1-1.3,0.2l3.7,4.2c0.5,0,0.9-0.1,1.4-0.2L459,181.3z M462.2,180.8c-0.4,0.1-0.9,0.2-1.3,0.2l3.7,4.2
		c0.4-0.1,0.9-0.1,1.3-0.2L462.2,180.8z M455.6,181.8c-0.5,0-0.9,0.1-1.4,0.1l3.6,4.1c0.5,0,0.9-0.1,1.4-0.1L455.6,181.8z
		 M448.4,182.2c-0.5,0-1,0-1.5,0l3.5,4c0.5,0,1,0,1.5,0L448.4,182.2z M465.4,180.1c-0.4,0.1-0.8,0.2-1.2,0.3l3.8,4.3
		c0.4-0.1,0.8-0.2,1.3-0.3L465.4,180.1z M125.2,98.3c0.5,0,1.1,0.1,1.6,0.2l-3.4-3.8c-0.6-0.1-1.1-0.2-1.7-0.2L125.2,98.3z
		 M202.6,162.9l-5-5.7c0,0,0,0,0,0.1c0,0.5,0,1.1,0,1.7l5,5.7C202.6,164,202.6,163.4,202.6,162.9 M244.8,153
		c0.1-0.4,0.3-0.8,0.4-1.3l-4.6-5.2c-0.1,0.4-0.3,0.8-0.4,1.3L244.8,153z M201.6,108.4l4.9,5.5c0-0.4,0.1-0.8,0.1-1.1
		c0-0.1,0-0.3,0.1-0.4l-4.8-5.4C201.7,107.5,201.6,108,201.6,108.4 M162.1,199.4c0.1-0.5,0.1-1,0.2-1.5l-4.8-5.4
		c-0.1,0.5-0.1,1-0.2,1.5L162.1,199.4z M242.7,140.4c-0.2,0.4-0.3,0.8-0.4,1.2l4.6,5.2c0.1-0.4,0.3-0.8,0.4-1.2L242.7,140.4z
		 M245.8,149.8c0.1-0.4,0.3-0.8,0.4-1.2l-4.6-5.2c-0.1,0.4-0.3,0.8-0.4,1.2L245.8,149.8z M206.1,117.8c0-0.5,0.1-1.1,0.1-1.6
		l-4.9-5.5c0,0.5-0.1,1-0.1,1.6L206.1,117.8z M206,121.8c0-0.6,0-1.1,0-1.6l-4.9-5.6c0,0.5-0.1,1.1-0.1,1.6L206,121.8z M208.4,141.5
		c0.2-0.4,0.4-0.8,0.5-1.1l-4.5-5.1c-0.2,0.3-0.3,0.7-0.5,1.1L208.4,141.5z M207.2,144.4c0.2-0.4,0.3-0.8,0.5-1.1l-4.5-5.1
		c-0.2,0.4-0.3,0.7-0.5,1.1L207.2,144.4z M209.8,138.8c0.2-0.3,0.3-0.5,0.3-0.5c-0.8-0.9-1.5-1.9-2-3.1l-6-6.8c0.3,1,0.6,2,1,2.8
		L209.8,138.8z M206.1,126.2c0-0.6-0.1-1.2-0.1-1.8l-5-5.7c0,0.6,0,1.1,0,1.7L206.1,126.2z M206.7,131.2c-0.1-0.7-0.3-1.4-0.4-2.1
		l-5.2-5.9c0.1,0.7,0.1,1.3,0.2,1.9L206.7,131.2z M213.7,88.1c0.2-0.4,0.3-0.8,0.5-1.2l-4.5-5.1c-0.2,0.4-0.3,0.8-0.5,1.1
		L213.7,88.1z M212.6,91.1c0.1-0.4,0.3-0.8,0.4-1.2l-4.6-5.1c-0.2,0.4-0.3,0.8-0.5,1.2L212.6,91.1z M197.2,69.5
		c0.1-0.1,0.2-0.2,0.2-0.3c-0.8-1.3-2-2.5-3.6-3.5L197.2,69.5z M195.4,71.7c0.2-0.2,0.4-0.5,0.7-0.9l-2.2-2.5
		c0.3,0.9,0.5,1.7,0.6,2.4L195.4,71.7z M206,147.2c0.2-0.4,0.3-0.8,0.5-1.2l-4.5-5.1c-0.2,0.4-0.3,0.8-0.5,1.2L206,147.2z
		 M214.9,85.3c0.2-0.4,0.3-0.8,0.5-1.1l-4.5-5.1c-0.2,0.4-0.4,0.7-0.5,1.1L214.9,85.3z M216.2,82.5c0.2-0.4,0.4-0.7,0.6-1.1l-4.4-5
		c-0.2,0.3-0.4,0.7-0.6,1L216.2,82.5z M211.5,94.1c0.1-0.4,0.3-0.8,0.4-1.2l-4.6-5.2c-0.1,0.4-0.3,0.8-0.4,1.2L211.5,94.1z
		 M221.4,75.7c0.3-0.3,0.5-0.5,0.8-0.8l-4.2-4.7c-0.3,0.2-0.6,0.5-0.9,0.7L221.4,75.7z M299.5,214.8l5.1,5.8
		c0.1-0.1,0.3-0.1,0.4-0.2c-0.2-0.6-0.4-1.1-0.5-1.7l-5.9-6.6C298.9,213,299.2,213.9,299.5,214.8 M209.5,100.3
		c0.1-0.4,0.3-0.8,0.4-1.3l-4.6-5.2c-0.1,0.4-0.3,0.8-0.4,1.3L209.5,100.3z M176.4,213.9c0,0-0.1,0-0.1,0.1c0.1,0.7,0.2,1.3,0.3,1.8
		l2.3,2.7c0.4,0.1,0.9,0,1.4-0.1L176.4,213.9z M210.5,97.2c0.1-0.4,0.3-0.8,0.4-1.2l-4.6-5.2c-0.1,0.4-0.3,0.8-0.4,1.2L210.5,97.2z
		 M242.3,234.9l8.5,9.6c0.2,0.1,0.4,0.2,0.6,0.4c-1.5-1.7-2.9-3.7-4.1-6l-6.7-7.6C241.2,232.6,241.7,233.8,242.3,234.9 M165.8,165.4
		c0-0.5,0.1-1,0.1-1.5l-4.9-5.5c0,0.5-0.1,1-0.1,1.5L165.8,165.4z M166.1,161.6c0-0.5,0.1-1,0.1-1.6l-4.9-5.5c0,0.5-0.1,1-0.1,1.6
		L166.1,161.6z M165.5,169.3c0-0.5,0.1-1,0.1-1.5l-4.9-5.5c0,0.5-0.1,1-0.1,1.5L165.5,169.3z M166.5,157.7c0-0.5,0.1-1,0.1-1.6
		l-4.9-5.5c0,0.5-0.1,1-0.1,1.6L166.5,157.7z M165.1,173.1c0-0.5,0.1-1,0.1-1.5l-4.9-5.5c0,0.5-0.1,1-0.1,1.5L165.1,173.1z
		 M166.8,153.8c0-0.5,0.1-1.1,0.1-1.6l-4.9-5.5c0,0.5-0.1,1-0.1,1.6L166.8,153.8z M164.3,180.7c0.1-0.5,0.1-1,0.2-1.5l-4.8-5.5
		c-0.1,0.5-0.1,1-0.2,1.5L164.3,180.7z M163.1,192c0.1-0.5,0.1-1,0.2-1.5l-4.8-5.5c-0.1,0.5-0.1,1-0.2,1.5L163.1,192z M164.7,176.9
		c0.1-0.5,0.1-1,0.2-1.5l-4.9-5.5c0,0.5-0.1,1-0.2,1.5L164.7,176.9z M162.6,195.7c0.1-0.5,0.1-1,0.2-1.5l-4.8-5.4
		c-0.1,0.5-0.1,1-0.2,1.5L162.6,195.7z M163.5,188.3c0.1-0.5,0.1-1,0.2-1.5l-4.8-5.5c-0.1,0.5-0.1,1-0.2,1.5L163.5,188.3z
		 M163.9,184.5c0.1-0.5,0.1-1,0.2-1.5l-4.8-5.5c-0.1,0.5-0.1,1-0.2,1.5L163.9,184.5z M167,149.9c0-0.5,0.1-1.1,0.1-1.6l-4.9-5.5
		c0,0.5-0.1,1-0.1,1.6L167,149.9z M204.9,150.2c0.1-0.4,0.3-0.8,0.4-1.2l-4.6-5.2c-0.2,0.4-0.3,0.8-0.4,1.2L204.9,150.2z
		 M202.6,168.9c0-0.6,0-1.1,0-1.7l-5-5.7c0,0.6,0,1.1,0,1.7L202.6,168.9z M202.5,160.3c0-0.5,0.1-1,0.1-1.6l-4.8-5.4
		c-0.1,0.5-0.2,1-0.2,1.4L202.5,160.3z M167.3,145.9c0-0.5,0.1-1.1,0.1-1.6l-4.9-5.5c0,0.5-0.1,1-0.1,1.6L167.3,145.9z M197.6,167.5
		l5,5.6c0-0.6,0-1.1,0-1.7l-5-5.7C197.6,166.4,197.6,166.9,197.6,167.5 M203.9,153.3c0.1-0.4,0.3-0.8,0.4-1.3l-4.6-5.2
		c-0.1,0.4-0.3,0.8-0.4,1.2L203.9,153.3z M203,156.6c0.1-0.4,0.2-0.9,0.3-1.4l-4.7-5.3c-0.1,0.4-0.2,0.9-0.3,1.3L203,156.6z
		 M202.6,177.4c0-0.6,0-1.1,0-1.7l-5-5.6c0,0.6,0,1.1,0,1.7L202.6,177.4z M162.9,132.5l4.9,5.5c0-0.5,0.1-1.1,0.1-1.6l-4.9-5.5
		C163,131.4,163,132,162.9,132.5 M167.6,142c0-0.5,0.1-1.1,0.1-1.6l-4.9-5.5c0,0.5-0.1,1-0.1,1.6L167.6,142z M197.6,174.2
		c0,0.6,0,1.1,0,1.7l5,5.6c0-0.5,0-1.1,0-1.7L197.6,174.2z M197.6,178.4c0,0.6,0,1.1,0,1.7l5,5.6c0-0.5,0-1.1,0-1.7L197.6,178.4z
		 M197.5,182.6c0,0.6,0,1.1,0,1.7l5,5.6c0-0.5,0-1,0-1.6L197.5,182.6z M243.9,156.2c0.1-0.4,0.2-0.9,0.3-1.3l-4.7-5.3
		c-0.1,0.4-0.2,0.9-0.4,1.3L243.9,156.2z M360.6,80.4c0-0.6-0.1-1.2-0.1-1.9l-5.1-5.8c0,0.6,0.1,1.2,0.1,1.8L360.6,80.4z
		 M326.6,46.2c-1.9-3.1-4.1-5.8-6.7-7.8c-0.2-0.1-0.3-0.2-0.5-0.3L326.6,46.2z M360.3,75.8c0-0.6-0.1-1.2-0.1-1.8l-5.1-5.7
		c0,0.6,0.1,1.2,0.1,1.8L360.3,75.8z M361.1,85.2c-0.1-0.6-0.2-1.3-0.2-1.9l-5.2-5.9c0.1,0.7,0.1,1.3,0.2,1.9L361.1,85.2z
		 M359.9,66.9c0-0.6,0-1.2,0-1.8l-5-5.7c0,0.6,0,1.2,0,1.7L359.9,66.9z M360.1,71.3c0-0.6,0-1.2-0.1-1.8l-5.1-5.7
		c0,0.6,0,1.2,0.1,1.8L360.1,71.3z M334.3,67.5c-0.2-0.7-0.3-1.5-0.5-2.3l-5.6-6.3c0.2,0.8,0.4,1.6,0.6,2.3L334.3,67.5z M308.1,46.5
		l-0.3-2l-1.9-2.1c-0.3,0.2-0.6,0.4-0.9,0.7L308.1,46.5z M335.3,72.9c-0.1-0.7-0.2-1.4-0.4-2.1l-5.4-6.1c0.1,0.7,0.3,1.5,0.4,2.2
		L335.3,72.9z M307.5,50c0.2-0.3,0.4-0.6,0.7-0.9l-4.3-4.9c-0.2,0.3-0.5,0.6-0.7,0.9L307.5,50z M332.9,61.7
		c-0.2-0.8-0.5-1.7-0.7-2.5l-5.8-6.6c0.3,0.9,0.6,1.8,0.8,2.6L332.9,61.7z M330.8,55.2c-0.4-1-0.8-2-1.2-3l-6.7-7.5
		c0.6,1.2,1.2,2.4,1.7,3.6L330.8,55.2z M359.8,62.5c0-0.6,0-1.2,0-1.7l-5-5.7c0,0.6,0,1.2,0,1.7L359.8,62.5z M359.7,45.4
		c0-0.6,0-1.1,0-1.7l-5-5.6c0,0.6,0,1.1,0,1.7L359.7,45.4z M359.5,19.7c-0.1-0.7-0.2-1.4-0.3-2.1l-5.5-6.2c0.2,0.7,0.4,1.5,0.5,2.3
		L359.5,19.7z M359.8,24.3c0-0.6,0-1.2-0.1-1.8l-5.1-5.8c0.1,0.6,0.1,1.2,0.1,1.9L359.8,24.3z M223.5,73.8c0.3-0.2,0.6-0.5,0.9-0.7
		l-4.1-4.7c-0.3,0.2-0.6,0.4-0.9,0.7L223.5,73.8z M354.8,22.9l5,5.6c0-0.6,0-1.2,0-1.7l-5-5.6C354.8,21.7,354.8,22.2,354.8,22.9
		 M397.7,58.7c0.1-0.4,0.2-0.9,0.3-1.3l-4.7-5.3c-0.1,0.4-0.2,0.9-0.3,1.3L397.7,58.7z M358.2,14c-1.2-3.4-3.1-5.6-5.5-6.3
		c0,0,0,0,0,0L358.2,14z M359.7,49.6c0-0.6,0-1.1,0-1.7l-5-5.7c0,0.6,0,1.1,0,1.7L359.7,49.6z M359.7,53.9c0-0.6,0-1.1,0-1.7l-5-5.7
		c0,0.6,0,1.1,0,1.7L359.7,53.9z M359.7,58.2c0-0.6,0-1.1,0-1.7l-5-5.7c0,0.6,0,1.1,0,1.7L359.7,58.2z M359.7,41.2
		c0-0.6,0-1.1,0-1.7l-5-5.6c0,0.5,0,1.1,0,1.7L359.7,41.2z M359.7,36.9c0-0.6,0-1.1,0-1.7l-5-5.6c0,0.5,0,1.1,0,1.7L359.7,36.9z
		 M306,52.6c0.2-0.4,0.4-0.7,0.6-1l-4.4-5c-0.2,0.3-0.4,0.7-0.6,1L306,52.6z M359.7,32.8c0-0.6,0-1.1,0-1.7l-5-5.6
		c0,0.5,0,1.1,0,1.7L359.7,32.8z M264.7,77.9c0.1-0.4,0.3-0.8,0.4-1.2l-4.6-5.2c-0.2,0.4-0.3,0.8-0.4,1.2L264.7,77.9z M265.8,75
		c0.2-0.4,0.3-0.8,0.5-1.2l-4.5-5.1c-0.2,0.4-0.3,0.8-0.5,1.2L265.8,75z M269.3,66.3c0.2-0.4,0.3-0.8,0.5-1.1l-4.5-5.1
		c-0.2,0.4-0.3,0.8-0.5,1.1L269.3,66.3z M266.9,72c0.2-0.4,0.3-0.8,0.5-1.2l-4.5-5.1c-0.2,0.4-0.3,0.8-0.5,1.2L266.9,72z
		 M268.1,69.1c0.2-0.4,0.3-0.8,0.5-1.2l-4.5-5.1c-0.2,0.4-0.3,0.8-0.5,1.1L268.1,69.1z M262.6,84c0.1-0.4,0.3-0.8,0.4-1.2l-4.6-5.2
		c-0.1,0.4-0.3,0.8-0.4,1.2L262.6,84z M263.6,81c0.1-0.4,0.3-0.8,0.4-1.2l-4.6-5.2c-0.1,0.4-0.3,0.8-0.4,1.2L263.6,81z M230.7,69.2
		c0.4-0.2,0.7-0.3,1.1-0.5l-3.9-4.4c-0.4,0.1-0.7,0.3-1.1,0.4L230.7,69.2z M304.7,55.3c0.2-0.4,0.3-0.8,0.5-1.1l-4.5-5.1
		c-0.2,0.4-0.4,0.7-0.5,1.1L304.7,55.3z M260.7,90.4c0.1-0.4,0.2-0.9,0.4-1.3l-4.6-5.2c-0.1,0.4-0.2,0.9-0.4,1.3L260.7,90.4z
		 M225.8,72.1c0.3-0.2,0.6-0.4,0.9-0.6l-4.1-4.6c-0.3,0.2-0.6,0.4-1,0.6L225.8,72.1z M233.4,68.1c0.4-0.1,0.8-0.3,1.2-0.4l-3.7-4.2
		c-0.4,0-0.8,0.1-1.3,0.2L233.4,68.1z M259.8,93.7c0.1-0.4,0.2-0.9,0.3-1.3l-4.7-5.3c-0.1,0.4-0.2,0.9-0.4,1.3L259.8,93.7z
		 M228.2,70.6c0.3-0.2,0.7-0.4,1-0.6l-4-4.5c-0.3,0.2-0.7,0.4-1,0.5L228.2,70.6z M282.6,38.9c0.2-0.4,0.4-0.7,0.6-1l-4.4-5
		c-0.2,0.3-0.4,0.6-0.6,1L282.6,38.9z M281.2,41.5c0.2-0.4,0.4-0.7,0.6-1.1l-4.4-5c-0.2,0.3-0.4,0.7-0.6,1L281.2,41.5z M278.4,46.8
		c0.2-0.4,0.4-0.7,0.5-1.1l-4.5-5c-0.2,0.4-0.4,0.7-0.6,1.1L278.4,46.8z M279.8,44.2c0.2-0.4,0.4-0.7,0.6-1.1l-4.5-5
		c-0.2,0.3-0.4,0.7-0.6,1.1L279.8,44.2z M284.8,32.9c-0.2-1.9-1.4-4-4.4-5L284.8,32.9z M284.1,36.4c0.2-0.3,0.4-0.7,0.5-1.1
		l-4.8-5.4c0,0.5-0.1,1-0.2,1.4L284.1,36.4z M270.6,63.4c0.2-0.4,0.3-0.8,0.5-1.1l-4.5-5.1c-0.2,0.4-0.3,0.7-0.5,1.1L270.6,63.4z
		 M273.1,57.8c0.2-0.4,0.3-0.7,0.5-1.1l-4.5-5.1c-0.2,0.4-0.3,0.7-0.5,1.1L273.1,57.8z M277.1,49.5c0.2-0.4,0.4-0.7,0.5-1.1
		l-4.5-5.1c-0.2,0.4-0.4,0.7-0.5,1.1L277.1,49.5z M271.8,60.6c0.2-0.4,0.3-0.7,0.5-1.1l-4.5-5.1c-0.2,0.4-0.3,0.7-0.5,1.1
		L271.8,60.6z M274.4,55c0.2-0.4,0.3-0.7,0.5-1.1l-4.5-5.1c-0.2,0.4-0.4,0.7-0.5,1.1L274.4,55z M275.7,52.3c0.2-0.4,0.4-0.7,0.5-1.1
		l-4.5-5.1c-0.2,0.4-0.4,0.7-0.5,1.1L275.7,52.3z M191.9,197.5c-0.2,0.3-0.4,0.6-0.6,1l4.4,4.9c0.2-0.3,0.4-0.6,0.7-1L191.9,197.5z
		 M80.3,111.2c0.3-0.2,0.6-0.5,0.9-0.7l-4.2-4.7c-0.3,0.2-0.6,0.5-0.9,0.7L80.3,111.2z M78.2,113c0.3-0.3,0.6-0.5,0.8-0.7l-4.2-4.7
		c-0.3,0.2-0.6,0.5-0.8,0.7L78.2,113z M72.3,119.2c0.2-0.3,0.5-0.6,0.7-0.9l-4.3-4.8c-0.3,0.3-0.5,0.6-0.7,0.8L72.3,119.2z
		 M76.2,115c0.3-0.3,0.5-0.5,0.8-0.8l-4.2-4.8c-0.3,0.3-0.5,0.5-0.8,0.8L76.2,115z M82.5,109.4c0.3-0.2,0.6-0.4,0.9-0.7l-4.1-4.7
		c-0.3,0.2-0.6,0.4-0.9,0.7L82.5,109.4z M84.8,107.8c0.3-0.2,0.6-0.4,0.9-0.6l-4.1-4.6c-0.3,0.2-0.6,0.4-1,0.6L84.8,107.8z
		 M64.2,131.2c0.2-0.3,0.4-0.7,0.6-1l-4.4-5c-0.2,0.3-0.4,0.7-0.6,1L64.2,131.2z M87.2,106.3c0.3-0.2,0.7-0.4,1-0.6l-4-4.6
		c-0.3,0.2-0.7,0.4-1,0.6L87.2,106.3z M54.9,209.7l5.7,6.4c0.6,0.5,1.3,0.9,2,1.2c-1-1.1-1.9-2.4-2.8-3.8l-7.1-8
		C53.4,207.1,54.2,208.4,54.9,209.7 M65.7,128.6c0.2-0.3,0.4-0.7,0.6-1l-4.4-5c-0.2,0.3-0.4,0.7-0.6,1L65.7,128.6z M70.6,121.4
		c0.2-0.3,0.5-0.6,0.7-0.9l-4.3-4.9c-0.2,0.3-0.5,0.6-0.7,0.9L70.6,121.4z M86,243.1c-0.3,0.2-0.6,0.4-1,0.6l4,4.5
		c0.3-0.2,0.7-0.4,1-0.6L86,243.1z M67.2,126.1c0.2-0.3,0.4-0.6,0.6-1l-4.4-4.9c-0.2,0.3-0.4,0.6-0.7,0.9L67.2,126.1z M68.9,123.7
		c0.2-0.3,0.4-0.6,0.7-0.9l-4.3-4.9c-0.2,0.3-0.5,0.6-0.7,0.9L68.9,123.7z M113.8,98.1c0.5,0,0.9-0.1,1.4-0.1l-3.6-4
		c-0.5,0-1,0-1.5,0L113.8,98.1z M110.3,98.5c0.5-0.1,0.9-0.1,1.4-0.2l-3.6-4.1c-0.5,0-0.9,0.1-1.4,0.1L110.3,98.5z M117.4,98
		c0.5,0,1,0,1.5,0l-3.5-4c-0.5,0-1,0-1.5,0L117.4,98z M89.7,104.8c0.3-0.2,0.7-0.4,1-0.5l-4-4.5c-0.4,0.2-0.7,0.3-1,0.5L89.7,104.8z
		 M393.9,50.1l4.7,5.3c0.1-0.4,0.2-0.9,0.3-1.3l-5-5.7c0.2,0.3,0.3,0.6,0.3,0.7C394,49.5,394,49.8,393.9,50.1 M107,98.9
		c0.4-0.1,0.9-0.2,1.3-0.2l-3.7-4.2c-0.4,0.1-0.9,0.1-1.3,0.2L107,98.9z M121.2,98.1c0.5,0,1,0,1.6,0.1l-3.4-3.9
		c-0.5,0-1.1-0.1-1.6-0.1L121.2,98.1z M103.8,99.6c0.4-0.1,0.8-0.2,1.3-0.3l-3.8-4.2c-0.4,0.1-0.9,0.2-1.3,0.2L103.8,99.6z
		 M92.3,103.5c0.4-0.2,0.7-0.3,1.1-0.5l-4-4.5c-0.4,0.2-0.7,0.3-1.1,0.5L92.3,103.5z M129.3,98.8c0.6,0.1,1.2,0.2,1.7,0.3l-3.3-3.7
		c-0.6-0.1-1.2-0.2-1.8-0.3L129.3,98.8z M100.7,100.4c0.4-0.1,0.8-0.2,1.2-0.3l-3.8-4.3c-0.4,0.1-0.8,0.2-1.2,0.3L100.7,100.4z
		 M97.8,101.3c0.4-0.1,0.8-0.3,1.2-0.4l-3.9-4.4c-0.4,0.1-0.8,0.2-1.2,0.4L97.8,101.3z M178.9,212.5c-0.3,0.2-0.6,0.4-0.9,0.6l4,4.5
		c0.3-0.2,0.7-0.4,1-0.6L178.9,212.5z M108.2,196.1c0,0.6,0,1.1,0,1.7l5,5.6c0-0.6,0-1.1,0-1.7L108.2,196.1z M108,191.6
		c0,0.6,0.1,1.2,0.1,1.8l5.1,5.7c0-0.6,0-1.2-0.1-1.8L108,191.6z M108.2,200.3c0,0.5,0,1.1-0.1,1.6l4.9,5.6c0-0.5,0.1-1.1,0.1-1.6
		L108.2,200.3z M107.6,208.1c-0.1,0.5-0.1,1-0.2,1.5l4.8,5.4c0.1-0.5,0.2-1,0.2-1.4L107.6,208.1z M108.5,188c-0.2,0.3-0.4,0.7-0.6,1
		l5,5.6c-0.1-0.6-0.1-1.3-0.2-1.9L108.5,188z M107,211.7c-0.1,0.5-0.2,0.9-0.3,1.4l4.7,5.3c0.1-0.4,0.2-0.9,0.3-1.3L107,211.7z
		 M108,204.3c0,0.5-0.1,1-0.1,1.5l4.8,5.5c0.1-0.5,0.1-1,0.2-1.5L108,204.3z M109.9,185.4c-0.2,0.4-0.4,0.7-0.6,1.1l3,3.4
		c-0.1-0.7-0.2-1.4-0.3-2L109.9,185.4z M61.5,136.6c0.2-0.4,0.3-0.7,0.5-1.1l-4.5-5.1c-0.2,0.4-0.4,0.7-0.5,1.1L61.5,136.6z
		 M59.1,142.4c0.1-0.4,0.3-0.8,0.5-1.2l-4.5-5.1c-0.2,0.4-0.3,0.8-0.5,1.2L59.1,142.4z M60.3,139.5c0.2-0.4,0.3-0.8,0.5-1.1
		l-4.5-5.1c-0.2,0.4-0.3,0.7-0.5,1.1L60.3,139.5z M86.4,249.5c0.4-0.2,0.7-0.3,1.1-0.5l-4-4.5c-0.3,0.2-0.7,0.3-1.1,0.5L86.4,249.5z
		 M110.8,183.8l0.8,0.9c-0.2-1.2-0.4-1.8-0.4-1.8C111.1,183.2,110.9,183.5,110.8,183.8 M62.8,133.8c0.2-0.4,0.4-0.7,0.6-1.1l-4.5-5
		c-0.2,0.4-0.4,0.7-0.6,1.1L62.8,133.8z M92.7,238c-0.3,0.3-0.5,0.5-0.8,0.8l4.2,4.7c0.3-0.2,0.6-0.5,0.8-0.7L92.7,238z
		 M106.2,215.1c-0.1,0.4-0.2,0.9-0.3,1.3l4.6,5.2c0.1-0.4,0.3-0.8,0.4-1.3L106.2,215.1z M96.6,233.9c-0.2,0.3-0.5,0.6-0.7,0.9
		l4.3,4.8c0.3-0.3,0.5-0.5,0.8-0.8L96.6,233.9z M88.4,241.6c-0.3,0.2-0.6,0.4-0.9,0.6l4.1,4.6c0.3-0.2,0.6-0.4,1-0.6L88.4,241.6z
		 M90.6,239.8c-0.3,0.2-0.6,0.5-0.9,0.7l4.1,4.7c0.3-0.2,0.6-0.5,0.9-0.7L90.6,239.8z M98.3,231.6c-0.2,0.3-0.5,0.6-0.7,0.9l4.3,4.9
		c0.2-0.3,0.5-0.6,0.7-0.9L98.3,231.6z M94.7,236c-0.3,0.3-0.5,0.5-0.8,0.8l4.2,4.8c0.3-0.3,0.5-0.5,0.8-0.8L94.7,236z M104.2,221.3
		c-0.2,0.4-0.3,0.8-0.5,1.1l4.5,5.1c0.2-0.4,0.3-0.7,0.5-1.1L104.2,221.3z M105.3,218.3c-0.1,0.4-0.3,0.8-0.4,1.2l4.6,5.2
		c0.2-0.4,0.3-0.8,0.4-1.2L105.3,218.3z M101.6,226.8c-0.2,0.3-0.4,0.7-0.6,1l4.4,5c0.2-0.3,0.4-0.7,0.6-1L101.6,226.8z M103,224.2
		c-0.2,0.4-0.4,0.7-0.6,1.1l4.5,5c0.2-0.3,0.4-0.7,0.6-1.1L103,224.2z M100,229.3c-0.2,0.3-0.4,0.7-0.6,1l4.3,4.9
		c0.2-0.3,0.4-0.6,0.7-0.9L100,229.3z M95,102.4c0.4-0.1,0.7-0.3,1.1-0.4l-3.9-4.4c-0.4,0.1-0.8,0.3-1.1,0.4L95,102.4z M234.7,199.2
		c0,0.6,0.1,1.2,0.1,1.8l5.1,5.8c0-0.6-0.1-1.2-0.1-1.8L234.7,199.2z M234.6,194.8c0,0.6,0,1.2,0,1.7l5.1,5.7c0-0.6,0-1.2-0.1-1.8
		L234.6,194.8z M235,203.7c0,0.6,0.1,1.2,0.1,1.8l5.2,5.8c-0.1-0.6-0.1-1.3-0.2-1.9L235,203.7z M235.4,208.4
		c0.1,0.7,0.1,1.3,0.2,1.9l5.2,5.9c-0.1-0.7-0.2-1.3-0.3-2L235.4,208.4z M236,213.4c0.1,0.7,0.2,1.4,0.3,2.1l5.4,6.1
		c-0.1-0.7-0.3-1.4-0.4-2.1L236,213.4z M239.6,196.2l-5-5.6c0,0.6,0,1.1,0,1.7l5,5.7C239.6,197.4,239.6,196.8,239.6,196.2
		 M234.8,182.4c0,0.5-0.1,1.1-0.1,1.6l4.9,5.6c0-0.5,0-1.1,0.1-1.6L234.8,182.4z M235.7,170.7c-0.1,0.5-0.1,1-0.2,1.5l4.9,5.5
		c0-0.5,0.1-1,0.2-1.5L235.7,170.7z M236.7,163.3c-0.1,0.5-0.1,1-0.2,1.5l4.8,5.4c0.1-0.5,0.1-1,0.2-1.5L236.7,163.3z M234.6,186.4
		c0,0.5,0,1.1,0,1.7l5,5.6c0-0.6,0-1.1,0-1.7L234.6,186.4z M236.2,166.9c-0.1,0.5-0.1,1-0.2,1.5l4.8,5.5c0.1-0.5,0.1-1,0.2-1.5
		L236.2,166.9z M236.9,218.6c0.1,0.8,0.3,1.5,0.5,2.2l5.6,6.3c-0.2-0.8-0.4-1.5-0.6-2.3L236.9,218.6z M235,178.4
		c0,0.5-0.1,1.1-0.1,1.6l4.9,5.5c0-0.5,0.1-1.1,0.1-1.6L235,178.4z M235.3,174.5c0,0.5-0.1,1-0.1,1.5l4.9,5.5c0-0.5,0.1-1,0.1-1.6
		L235.3,174.5z M238.3,224.4c0.2,0.9,0.5,1.7,0.8,2.6l6,6.7c-0.3-0.9-0.7-1.8-1-2.8L238.3,224.4z M186.9,204.5
		c-0.2,0.3-0.5,0.6-0.7,0.9l4.3,4.8c0.2-0.3,0.5-0.6,0.7-0.9L186.9,204.5z M188.6,202.2c-0.2,0.3-0.5,0.6-0.7,0.9l4.3,4.9
		c0.2-0.3,0.5-0.6,0.7-0.9L188.6,202.2z M185,206.7c-0.3,0.3-0.5,0.6-0.8,0.8l4.3,4.8c0.3-0.3,0.5-0.6,0.8-0.8L185,206.7z
		 M183.1,208.7c-0.3,0.3-0.5,0.5-0.8,0.8l4.2,4.8c0.3-0.3,0.5-0.5,0.8-0.8L183.1,208.7z M181.1,210.7c-0.3,0.3-0.6,0.5-0.9,0.7
		l4.1,4.7c0.3-0.2,0.6-0.5,0.9-0.7L181.1,210.7z M190.3,199.9c-0.2,0.3-0.4,0.6-0.7,0.9l4.3,4.9c0.2-0.3,0.5-0.6,0.7-0.9
		L190.3,199.9z M58.1,145.4c0.1-0.4,0.3-0.8,0.4-1.2l-4.6-5.2c-0.1,0.4-0.3,0.8-0.4,1.2L58.1,145.4z M196.5,189.9
		c-0.2,0.3-0.4,0.7-0.6,1.1l4.4,5c0.2-0.4,0.4-0.7,0.6-1L196.5,189.9z M197.4,186.7c0,0.6-0.1,1.1-0.1,1.3c0,0.1,0,0.1-0.1,0.2
		l4.5,5.1c0.2-0.5,0.4-0.9,0.5-1.2L197.4,186.7z M195,192.5c-0.2,0.3-0.4,0.7-0.6,1l4.4,5c0.2-0.3,0.4-0.7,0.6-1L195,192.5z
		 M193.5,195.1c-0.2,0.3-0.4,0.7-0.6,1l4.4,5c0.2-0.3,0.4-0.7,0.6-1L193.5,195.1z M172.5,96.7c0.1-0.6,0.2-1,0.2-1.5l-4.8-5.4
		c-0.1,0.2-0.1,0.7-0.3,1.4L172.5,96.7z M171.5,104.1c0.1-0.5,0.1-1,0.2-1.5l-4.8-5.4c-0.1,0.5-0.1,1-0.2,1.5L171.5,104.1z
		 M171,107.8c0.1-0.5,0.1-1,0.2-1.5l-4.8-5.4c-0.1,0.5-0.1,1-0.2,1.5L171,107.8z M172,100.4c0.1-0.5,0.1-1,0.2-1.5l-4.8-5.4
		c-0.1,0.5-0.1,0.9-0.2,1.5L172,100.4z M170.6,111.5c0.1-0.5,0.1-1,0.2-1.5l-4.8-5.4c-0.1,0.5-0.1,1-0.2,1.5L170.6,111.5z
		 M133.7,99.5c0.6,0.1,1.2,0.3,1.8,0.4l-3.2-3.6c-0.6-0.1-1.2-0.3-1.9-0.4L133.7,99.5z M237.3,159.7c-0.1,0.4-0.2,0.9-0.2,1.3
		c0,0,0,0.1,0,0.1l4.8,5.4c0.1-0.5,0.2-1,0.2-1.4L237.3,159.7z M169.7,118.9c0.1-0.5,0.1-1,0.2-1.5L165,112l-0.2,1.5L169.7,118.9z
		 M168.1,134.1c0-0.6,0.1-1.1,0.1-1.6l-4.9-5.5c0,0.5-0.1,1-0.1,1.6L168.1,134.1z M168.8,126.4c0.1-0.5,0.1-1,0.2-1.5l-4.8-5.5
		c-0.1,0.5-0.1,1-0.2,1.5L168.8,126.4z M170.1,115.2c0.1-0.5,0.1-1,0.2-1.5l-4.8-5.4c-0.1,0.5-0.1,1-0.2,1.5L170.1,115.2z
		 M169.2,122.7c0.1-0.5,0.1-1,0.2-1.5l-4.8-5.5c-0.1,0.5-0.1,1-0.2,1.5L169.2,122.7z M177.3,89.4c0.3-0.2,0.6-0.5,0.9-0.7L174,84
		c-0.3,0.2-0.6,0.4-0.9,0.7L177.3,89.4z M175.2,91.3c0.3-0.3,0.5-0.5,0.8-0.8l-4.2-4.7c-0.3,0.3-0.6,0.5-0.8,0.8L175.2,91.3z
		 M295.4,204.2c0.5,1.1,1,2.2,1.5,3.4l6.2,7c-0.4-1.1-0.8-2.1-1.2-3.1L295.4,204.2z M300.7,218.6c0.2,0.8,0.4,1.6,0.6,2.4l0.7,0.8
		c0.3-0.1,0.6-0.3,1-0.5L300.7,218.6z M289,192.8c-1.1-1-2.3-1.8-3.4-2.5c1.9,1.9,3.8,4.1,5.6,6.8l8,9c-1-1.9-2-3.6-3.1-5.2
		L289,192.8z M238.7,152.9c-0.1,0.4-0.2,0.9-0.3,1.3l4.7,5.3c0.1-0.5,0.2-0.9,0.3-1.3L238.7,152.9z M179.5,87.7
		c0.3-0.2,0.6-0.4,0.9-0.6l-4-4.6c-0.3,0.2-0.7,0.4-1,0.6L179.5,87.7z M243.9,137.5c-0.2,0.4-0.3,0.8-0.5,1.2l4.5,5.1
		c0.2-0.4,0.3-0.8,0.5-1.2L243.9,137.5z M238,156.3c-0.1,0.5-0.2,0.9-0.3,1.4l4.7,5.4c0.1-0.5,0.2-0.9,0.3-1.4L238,156.3z
		 M184.3,84.6c-0.6-1.8-1.6-2.7-2.7-3.1L184.3,84.6z M182,86.2c0.4-0.2,0.7-0.3,1.1-0.5l-3.8-4.3c-0.4,0.1-0.8,0.2-1.2,0.3L182,86.2
		z M207.7,106.8c0.1-0.4,0.2-0.9,0.3-1.3l-4.7-5.3c-0.1,0.4-0.2,0.9-0.3,1.3L207.7,106.8z M208.6,103.5c0.1-0.4,0.2-0.9,0.4-1.3
		l-4.6-5.2c-0.1,0.4-0.2,0.9-0.4,1.3L208.6,103.5z M206.9,110.2c0.1-0.4,0.2-0.9,0.3-1.4l-4.7-5.3c-0.1,0.5-0.2,0.9-0.3,1.3
		L206.9,110.2z"/>
	<path class="st0" d="M489.8,102.4c6-10.5-0.6-28.1,0.9-29.3c9.4-7.1,8.1-31.6,6.3-38.1s-0.9-7.6-0.9-7.6c1.1-1.6,4-2.8,6.4-2.4
		c3.8,0.6,4.5,4.9,14.4,7.5c1.8,0.5,4.8,0.5,5.5,0.6s0.9,1.1,0.9,1.9s-3.5,8.6-3.5,8.6s-7.7,17.4-9.1,22.6s1.1,11.6,1.1,11.6
		s-7,5.5-7.1,20.5s7.7,10.5,11.1,8.3s14.3-22.1,14.3-22.1s-3.4,21.5-4,28.4s-2,11.5-2,11.5c-1.5-1.3-9.8-3.8-21-6.9
		c-11.3-3.1-16.5-1.6-18.6-2S483.8,112.9,489.8,102.4 M562.1,137.6c5.5-1.1,7.3-9.5,7.3-9.6c-0.6-6.3-2.8,5.9-9.3,3.2
		s-14.3-14.4-12.4-20.6s6.8-11.9,6.8-11.9s-3.9-2.3-2.1-6.9s6.5-6.9,7.3-8.5s-0.5-4.8-0.5-4.8l-15.5-10.3c0,0-3.4-1-4.5,9.6
		s-5.3,48.8-5.3,48.8S556.4,138.7,562.1,137.6 M549.9,65.5c1.6,0.3,8.4,0.4,8.4-7.5c0-7.9-7.6-8.8-7.6-8.8s-8.9,0.9-9,8
		C541.5,65,548.3,65.2,549.9,65.5 M573.4,64.2c-1.1,0.4,1,3,4.9,0.5s7.9-7.1,7.9-7.1s1-1.8,2.4-2.1s3.4-1.4,3.4-1.4
		s-1.9-2.4-2.1-2.9s1.8-8.5-7.3-9.8c0,0-6.8,0.5-8.9,6.1s2.6,9.4,2.9,9.8S574.6,63.9,573.4,64.2 M345,66.7
		c0.4,8.9,1.8,11.7-1.7,17.7c0,0,2.5,1.5,3.6,5s-1.3,55.5,10,45.7c7.1-6.2,7.5-7.1,9.3-7.1s3.3,0.6,3.8,0c0.5-0.6-0.3-3.3-0.5-3.6
		s-3-11.1-1.3-20s7.1-24.8,7.6-25.5c0,0,14.5,16,11,39.4c-0.1,0.9-0.8,2.5,0.6,3.5s9.4,1.3,10,0.5s23.4-78.7,44.6-87.1
		c13.1-5.2,38.5,4.6,30.8,30.4c0,0,7.4-4.9,9.4-16.1s-1.7-15-1.7-15s4.3-5.1,6.7-14.8c2.4-9.6-0.4-17.3-0.4-17.3s-1.3,9.8-9.8,15.8
		l-4.5,2.9c0,0-44.9-38.5-66.5,46.7c0,0-1.7,6.4-7.2,7.4c0,0,2.1,5.1,1,10.6s-4.1,11.5-4.1,11.5s-2-16.6-3.1-22.9
		c-1.4-8-0.2-14.5,2.7-25.1c0.2-0.6-3.4-5.4-5.7-4.8s-3.3,1.1-4.8,0.2s-3.2-3.5-3.9-3.2s-3.7,3-4.3,3.3c-1.2,0.5-8,3.1-9,4.4
		c-2.7,3.7-2.2,20.5-2.2,21.8s1,11.9-5,17.5s-4.4-61.8-4.5-67.8c-0.1-9.4-2.8-15.8-7.1-16.9C316.6-4.4,320.4,8,320.4,8
		S343.9,45.3,345,66.7 M557.9,188.1c-25.1-19.7-47.4-27.6-61.9-29.1c-0.8,2.3-1.9,4.6-3.4,6.8c-0.1,0.1-0.1,0.2-0.2,0.2
		c41.6,6.9,75.3,46.2,113.2,53.9c33.7,6.8,68.9-1.3,90.3-54.5C695.9,165.4,654.3,263.8,557.9,188.1 M490,136.3
		c71.1,18.9,101.9,64.5,138.4,43.3c9.7-5.7,15.8-11,15.8-11c-3.8-2.5-3.5-4.3-3.6-15.1c-0.4-30.5-34.8-40-58.1-57.6
		c-7.2-5.4-1.1-14.6,8-10.3s9.3,14.9,9.3,14.9s6.6,2.6,7,2.6s0.6-1.1,0.6-1.1c-3.8-10.5-0.9-26.4,9.3-25.9s7.9,8.9,7.9,8.9
		c-9.5-1.4-10.3,15.6-2.3,16.5c23.9,2.6,11.3-34.4-5.9-34.8c-13.1-0.3-16.4,17.8-16.4,17.8c-13.4-12.8-27.2-11.7-33.5-1.9
		c-16.6,26.1,40.6,34.6,41.7,53.7c0.5,9.1-11.3,6.5-11.3,6.5s12.6,24.4-8.7,18.5c-5.7-1.6-88.5-45.6-155.4-38.5
		c-101.5,10.8-113.4,78-113.4,78s12.6-48.1,82.5-65.2c91-22.3,114.1,55.1,21.4,35.4c-0.7-0.2-1.4-0.4-2.1-0.6
		c-6.9-3.1,13.3-10.4,56.1-5.7c2.5-2.5,3.6-4.6,3.2-7.8c-12.3-1.4-76.2-2.8-76.2,12.3c0.6,9,65.5,26.3,86.7-4.7
		C501.1,149.7,490,136.3,490,136.3 M302.7,222.1c-12.8-52.5-46.5-39-46.5-39c26.3,24,14,72.5-4.3,61.5s-18.3-56.7-13.8-83.5
		s18.1-43.8,18.1-43.8s-3-3.5-3.2-5.5c-0.5-3.5-0.6-10.7,5.1-30s20-46.5,22-49.3s2.2-13.8-19.7-7.3c-12.6,3.8-28.6,11.8-34,15.3
		c-14.3,9.5-30.3,32.2-30.6,31.7s-0.3-10.3-10.8-12.5s-37.5,19-37.5,19S124.6,68.8,87.8,80s-57.7,62.8-57.7,62.8
		c-16.5,15.8-29-1.5-29-1.5c-2.5,31.5,22,28.8,22,28.8c-5.6,79.7,55.2,98.9,79.8,56.4c11.1-19.2,4.4-47.5,4.4-47.5
		C38.9,312.2,9.9,66.7,134.7,96.6c8.8,2.1,7.5,27.9,6.6,45.1s-14.9,27.8-14.9,27.8c1.8,1.6,6.7,9.9,4.9,18.8
		c-6.6,31.9-25.9,69.3-45.1,77.6c-14,6.1-18.3-5.1-18.3-5.1c-16,19.1,7.7,35.1,7.7,35.1c-2.4,1-7.4,6.8-9.8,15.5s3.4,17.3,3.4,17.3
		c1.3-12.3,18.7-11.8,39.5-18.5c50.6-16.4,54.4-172.2,56-185.7s4.1-33.6,4.4-34.5s20.6-23.1,16.7,8.3c-0.4,3.5-1.7,26.5-2.2,30.7
		c-0.5,4.3-6,15-6,15c7.5,7.9,6.4,12.2,6.5,14.5c0.1,1.8-20.5,60.1-7.5,56c8.7-2.8,21.5-24.2,21.8-26.2s0.5-22.5,0.3-30.8
		s7.5-23,7.5-23c-5.5-5.8-4-20-3.5-25.5s6.7-27.3,12-34s16.3-12.8,19.3-11c8.2,4.8-9.5,67.5-9.5,67.5s-21.2,85.5-0.3,136.7
		s66.3,32,74-3.3s20-43.8,20-43.8C312.7,216.4,302.7,222.1,302.7,222.1 M467.2,46.1c0,0-4.1-6.6-15-8.4c0,0-14.4,12.6-19.4,26.3
		s-6.8,12-8.3,13.3c0,0,5.6,4.5,6.4,7.3s7.4,28.1,28,30.5s24.5-33.8,25-34.5s0.3-2-0.4-2s-20.8-0.4-21.9-0.1s-5,2.6-5.6,6.8
		s3.4,6.4,5.3,6.5s4.9-1.6,5.4-2.8s0.3-3.6,0.3-3.6s3.7-1.1,3.6,0.1c-1.1,31.5-22,25.8-20.6-2.5S467.2,46.1,467.2,46.1 M273.1,94.2
		c0.7-3.3,16.8-79.3,42.9-59.7c13.5,10.2,16.2,39.3,16.9,47c0.7,7.7,6.4,7.8,5.6,8.5c-0.8,0.7-2.8,4.5-3.9,6.8
		c-0.8,1.9-2.8,10.9-3.2,12.7c-0.4,1.8-4.8,24.5-6.9,33.5c-2.1,9.1-12.3,30.5-27.8,25.5c-15.5-5-21.7-32-23.9-40.9
		c-2.2-8.9-7-14.1-7-14.1c1.8-2.2,3.9-7.8,4.3-8.7C270.6,103.9,272.4,97.5,273.1,94.2 M303.3,152.5c7.4,1.8,9.9-17.2,12.3-58.9
		c2.3-41.7-7-51.9-7-51.9C291.3,47.6,282.6,147.5,303.3,152.5"/>
	<path d="M549.7,48.2c0,0-8.9,0.9-9,8c-0.1,7.7,6.6,8,8.3,8.3s8.4,0.4,8.4-7.5C557.3,49.1,549.7,48.2,549.7,48.2"/>
	<path d="M581.6,40.5c0,0-6.8,0.5-8.9,6.1s2.6,9.4,2.9,9.8s-2,6.5-3.1,6.9s1,3,4.9,0.5s7.9-7.1,7.9-7.1s1-1.8,2.4-2.1
		s3.4-1.4,3.4-1.4s-1.9-2.4-2.1-2.9S590.6,41.7,581.6,40.5"/>
	<path d="M106.4,178c0,0,6.7,28.3-4.4,47.5c-24.6,42.6-85.3,23.3-79.8-56.4c0,0-24.5,2.8-22-28.8c0,0,12.5,17.3,29,1.5
		c0,0,20.9-51.6,57.7-62.8s59.8-1.2,59.8-1.2s27-21.3,37.5-19s10.5,12,10.8,12.5s16.3-22.2,30.6-31.7c5.4-3.6,21.4-11.6,34-15.3
		c21.9-6.5,21.7,4.5,19.7,7.3s-16.3,30-22,49.3s-5.6,26.5-5.1,30c0.3,2,3.2,5.5,3.2,5.5s-13.6,17-18.1,43.8s-4.5,72.5,13.8,83.5
		s30.5-37.5,4.3-61.5c0,0,33.8-13.5,46.5,39c0,0,10-5.8,15.5-1c0,0-12.3,8.5-20,43.8s-53,54.5-74,3.3s0.3-136.7,0.3-136.7
		s17.7-62.7,9.5-67.5c-3-1.8-14,4.3-19.3,11c-5.2,6.8-11.5,28.5-12,34s-2,19.8,3.5,25.5c0,0-7.8,14.8-7.5,23s0,28.8-0.3,30.8
		s-13,23.5-21.8,26.2c-13,4.1,7.6-54.2,7.5-56c-0.1-2.3,1-6.6-6.5-14.5c0,0,5.5-10.8,6-15c0.5-4.3,1.7-27.2,2.2-30.7
		c3.8-31.4-16.4-9.2-16.7-8.3s-2.8,21-4.4,34.5s-5.4,169.4-56,185.7c-20.8,6.7-38.3,6.3-39.5,18.5c0,0-5.8-8.5-3.4-17.3
		s7.4-14.5,9.8-15.5c0,0-23.7-16-7.7-35.1c0,0,4.3,11.2,18.3,5.1c19.2-8.3,38.5-45.8,45.1-77.6c1.8-8.8-3.1-17.1-4.9-18.8
		c0,0,14-10.5,14.9-27.8s2.2-43-6.6-45.1C8.9,65.7,37.9,311.2,106.4,178"/>
	<path d="M319.4,7c0,0,23.5,37.3,24.6,58.7c0.5,8.9,1.8,11.7-1.7,17.7c0,0,2.5,1.5,3.6,5s-1.3,55.5,10,45.7c7.1-6.2,7.5-7.1,9.3-7.1
		s3.3,0.6,3.8,0s-0.3-3.3-0.5-3.6s-3-11.1-1.3-20s7.1-24.8,7.6-25.5c0,0,14.5,16,11,39.4c-0.1,0.9-0.8,2.5,0.6,3.5s9.4,1.3,10,0.5
		s23.4-78.7,44.6-87.1c13.1-5.2,38.5,4.6,30.7,30.4c0,0,7.4-4.9,9.4-16.1s-1.7-15-1.7-15s4.3-5.1,6.7-14.8s-0.4-17.3-0.4-17.3
		s-1.3,9.8-9.8,15.8l-4.5,2.9c0,0-44.9-38.5-66.5,46.7c0,0-1.7,6.4-7.2,7.4c0,0,2.1,5.1,1,10.6s-4.1,11.5-4.1,11.5
		s-2.1-16.6-3.1-22.9c-1.4-8-0.2-14.5,2.7-25.1c0.2-0.6-3.4-5.4-5.7-4.8s-3.3,1.1-4.8,0.2s-3.2-3.5-3.9-3.2s-3.7,3-4.3,3.3
		c-1.2,0.5-8,3.1-9,4.4c-2.7,3.7-2.2,20.5-2.2,21.8s1,11.9-5,17.5s-4.4-61.8-4.5-67.8c-0.1-9.4-2.8-15.8-7.1-16.9
		C315.6-5.4,319.4,7,319.4,7"/>
	<path d="M467.3,44.2c0,0-3-7.3-13.9-9c0,0-16.6,14.1-21.6,27.8s-6.8,12-8.3,13.3c0,0,5.6,4.5,6.4,7.3s7.4,28.1,28,30.5
		c20.6,2.4,24.5-33.8,25-34.5s0.3-2-0.4-2s-20.7-0.4-21.9-0.1s-5,2.6-5.6,6.8s3.4,6.4,5.3,6.5s4.9-1.6,5.4-2.8
		c0.5-1.1,0.3-3.6,0.3-3.6s3.7-1.1,3.6,0.1c-1.1,31.5-22,25.8-20.6-2.5S467.3,44.2,467.3,44.2"/>
	<path d="M495.1,26.4c0,0-1,1.1,0.9,7.6s3.2,31.1-6.3,38.1c-1.5,1.1,5.1,18.8-0.9,29.3s-7.6,12.8-5.5,13.1s7.4-1.1,18.6,2
		c11.2,3.1,19.5,5.6,21,6.9c0,0,1.4-4.6,2-11.5s4-28.4,4-28.4s-10.9,19.9-14.3,22.1c-3.4,2.3-11.2,6.8-11.1-8.3s7.1-20.5,7.1-20.5
		s-2.5-6.4-1.1-11.6s9.1-22.6,9.1-22.6s3.5-7.9,3.5-8.6s-0.1-1.8-0.9-1.9c-0.8-0.1-3.7-0.2-5.5-0.6c-9.9-2.6-10.6-6.9-14.4-7.5
		C499.1,23.6,496.2,24.7,495.1,26.4"/>
	<path d="M542.6,67.4c0,0-3.4-1-4.5,9.6s-5.3,48.8-5.3,48.8s22.6,12,28.3,10.9c5.5-1.1,7.3-9.5,7.3-9.6c-0.6-6.3-2.8,5.9-9.3,3.2
		c-6.5-2.6-14.3-14.4-12.4-20.6s6.8-11.9,6.8-11.9s-3.9-2.3-2.1-6.9s6.5-6.9,7.3-8.5s-0.5-4.8-0.5-4.8L542.6,67.4z"/>
	<path d="M489,135.3c71.1,18.9,101.9,64.5,138.4,43.3c9.7-5.7,15.8-11,15.8-11c-3.8-2.5-3.5-4.3-3.6-15.1
		c-0.4-30.5-34.8-40-58.1-57.6c-7.2-5.4-1.1-14.6,8-10.3s9.3,14.9,9.3,14.9s6.6,2.6,7,2.6s0.6-1.1,0.6-1.1
		c-3.8-10.5-0.9-26.4,9.3-25.9s7.9,8.9,7.9,8.9c-9.5-1.4-10.3,15.6-2.3,16.5c23.9,2.6,11.3-34.4-5.9-34.8
		c-13.1-0.3-16.4,17.8-16.4,17.8c-13.4-12.8-27.2-11.7-33.5-1.9c-16.6,26.1,40.6,34.6,41.7,53.7c0.5,9.1-11.3,6.5-11.3,6.5
		s12.6,24.4-8.7,18.5c-5.7-1.6-88.5-45.6-155.4-38.5c-101.5,10.8-113.4,78-113.4,78s12.6-48.1,82.5-65.2
		c91-22.3,114.1,55.1,21.4,35.4c-0.7-0.2-1.4-0.4-2.1-0.6c-6.9-3.1,13.3-10.4,56.1-5.7c2.5-2.5,3.6-4.6,3.2-7.8
		c-12.3-1.4-76.2-2.8-76.2,12.3c0.6,9,65.5,26.3,86.7-4.7C500.1,148.7,489,135.3,489,135.3"/>
	<path d="M556.9,187.1c-25.1-19.7-47.4-27.6-61.9-29.1c-0.8,2.3-1.9,4.6-3.4,6.8c-0.1,0.1-0.1,0.2-0.2,0.2
		c41.6,6.9,75.3,46.2,113.2,53.9c33.7,6.8,68.9-1.3,90.3-54.5C694.9,164.4,653.3,262.8,556.9,187.1"/>
	<path d="M331.9,80.5c-0.7-7.7-3.4-36.8-16.9-47c-26.1-19.6-42.2,56.4-42.9,59.7c-0.7,3.3-2.6,9.7-2.9,10.7
		c-0.4,0.9-2.5,6.6-4.3,8.7c0,0,4.8,5.1,7,14.1c2.2,8.9,8.4,35.9,23.9,40.9c15.5,5,25.7-16.4,27.8-25.5c2.1-9.1,6.5-31.7,6.9-33.5
		c0.4-1.8,2.3-10.8,3.2-12.7c1-2.3,3-6.1,3.9-6.8C338.4,88.3,332.6,88.2,331.9,80.5 M314.5,92.6c-2.3,41.7-4.8,60.7-12.3,58.9
		c-20.7-5-12-104.9,5.2-110.8C307.5,40.7,316.9,50.9,314.5,92.6"/>
	<path d="M66.2,150.1c-0.2,0-0.3-0.1-0.5-0.2C66,150.1,66.2,150.1,66.2,150.1 M107.3,129.4l0.5-0.7l-7.3,1.8l1.6,0.6v7.4l-7.2,2
		l0-7.7l1.4-1.1l-10.9,2.2c0,0-8.6,2-9.7,2.3c-1,0.3-9,1.8-11.7,7.1c-2.1,4.2,0.2,6,1.5,6.6c-1.4-0.8-1.9-2.4-1.9-2.4
		c-0.9-9.2,14.4-9.9,14.4-9.9L78,155l-1.2,1.6l8.3-2.1l-1.4-0.8c0,0-0.3-17.9-0.2-18.3c0-0.2,2.9-0.8,4.4-1.3l1.9,0l-0.1,18.1
		l-1.1,1.5l7.8-2l-1.4-1.6l-0.1-8.7l7.2-2l0,9.3l-0.8,2.1l7.6-2l-1.3-0.9L107.3,129.4z M135.5,131.8c0,0,0.5,7.3-3.8,9
		c-5,2-13.1,3-13.1,3v-8.1l5.4-1.4v-0.7l-5.5,1.3l0-7.5l12-2.8l0.1-1.1l-20.1,4.6l2.6,0.4l0.1,17.7l-0.8,1.4l20-5.1
		C132.4,142.4,138.2,138.1,135.5,131.8"/>
	<polygon points="69.7,134.9 130.8,120.9 130.8,118.4 69.6,132.9 	"/>
	<polygon points="69.7,161.9 130.8,147.8 130.8,145.4 69.6,159.8 	"/>
	<polygon points="69.7,166.5 130.8,152.4 130.8,150 69.6,164.4 	"/>
	<polyline points="69.6,128.9 69.7,130.9 130.8,116.9 130.8,114.4 	"/>
	<path d="M66.9,145.4c0,0-2.6,0.3-2.6,2.3c0,2.2,1.9,2.3,2.4,2.4c0.5,0.1,2.4,0.1,2.4-2.2C69.1,145.6,66.9,145.4,66.9,145.4"/>
	<path d="M133.6,130.5c0,0-2.6,0.3-2.6,2.3c0,2.2,1.9,2.3,2.4,2.4c0.5,0.1,2.4,0.1,2.4-2.2C135.9,130.8,133.6,130.5,133.6,130.5"/>
</g>
</svg>
